<?xml version="1.0" encoding="utf-8"?>
<!-- Generator: Adobe Illustrator 21.1.0, SVG Export Plug-In . SVG Version: 6.00 Build 0)  -->
<svg version="1.1" id="Layer_1" xmlns="http://www.w3.org/2000/svg" xmlns:xlink="http://www.w3.org/1999/xlink" x="0px" y="0px"
	 viewBox="0 0 200 200" style="enable-background:new 0 0 200 200;" xml:space="preserve">
<style type="text/css">
	.st0{fill:#13487D;}
	.st1{fill:#4C98CB;}
	.st2{fill:#222222;}
	.st3{fill:#666766;}
	.st4{fill:#C1D5EA;}
	.st5{fill:#4D79A9;}
	.st6{fill:#3B70A1;}
	.st7{fill:#DAEDFA;}
	.st8{fill:#CEDEEF;}
	.st9{fill:#E3F2FA;}
	.st10{fill:#FFFFFF;}
	.st11{opacity:0.35;}
	.st12{fill:url(#SVGID_1_);}
	.st13{fill:url(#SVGID_2_);}
	.st14{fill:url(#SVGID_3_);}
</style>
<rect x="-0.9" y="0.4" class="st0" width="200" height="200"/>
<g>
	<path id="XMLID_231_" class="st1" d="M177.9,95.7c-0.8-4.5-5.8-5.8-5.8-5.8l-12.4-3.6c-17.5-12.2-21.9-13.1-21.9-13.1
		c-13.8-5.2-26.9-5-38.4-3.6c-17.6,2.1-34.3,16.6-34.3,16.6l-21.3,3.3c-26.7,5.2-25.1,13.5-25.4,15.7c-0.3,2.1,0.2,6.2,1.5,10.4
		c1.4,4.5,4.8,3.9,4.8,3.9s9.5,0,11.8,0c-0.2-1.1-0.4-2-0.4-3.2c0-9.3,7.4-16.8,16.7-16.8s16.7,7.4,16.7,16.6c0,1.1-0.1,2.2-0.3,3.3
		c3.7,0,54.4,0,66.4,0c-0.2-1-0.3-2.3-0.3-3.4c0-9.3,7.4-16.7,16.7-16.7s16.7,7.4,16.7,16.7c0,1-0.1,2.4-0.3,3.4c4.4,0,6.1,0,6.4,0
		c3.5-0.3,3.3-4.6,3.3-4.6C178,114.4,178.6,100.5,177.9,95.7z"/>
	<g>
		<g id="XMLID_1_">
			<path class="st2" d="M152.8,103.5c-7.5,0-13.7,6.1-13.7,13.7c0,7.5,6.1,13.7,13.7,13.7c7.5,0,13.7-6.1,13.7-13.7
				C166.6,109.7,160.3,103.5,152.8,103.5z"/>
		</g>
		<path class="st3" d="M169.4,115.9c0,0,0.1,0.8,0.1,1.2c0,1-0.1,2.4-0.3,3.4c4.4,0,6.1,0,6.4-0.1c3.1-0.3,3.3-3,3.3-4.6h-9.6v0.1
			H169.4z"/>
		<path class="st3" d="M20.7,115.9c0.1,0,0.1,0.5,0.2,0.7c1.4,4.5,4.8,3.9,4.8,3.9s9.5,0,11.8,0c-0.2-1.1-0.4-2.1-0.4-3.3
			c0-0.4,0-1.4,0.1-1.4H20.7V115.9z"/>
		<g id="XMLID_2_">
			<path class="st4" d="M152.8,107.9c-5.1,0-9.4,4.2-9.4,9.4s4.2,9.4,9.4,9.4c5.1,0,9.4-4.2,9.4-9.4
				C162.2,112.1,158,107.9,152.8,107.9z"/>
		</g>
		<g id="XMLID_22_">
			<path class="st5" d="M152.8,113.2c-2.3,0-4.1,1.8-4.1,4.1s1.8,4.1,4.1,4.1s4.1-1.8,4.1-4.1C156.9,115,155.1,113.2,152.8,113.2z"
				/>
		</g>
		<g>
			<path class="st6" d="M25.7,120.6c0,0,9.5,0,11.8,0c-0.2-1.1-0.4-2.5-0.4-3.7c0-4.8,2-9.7,5.6-12.8H19.5c-0.1,0.8-0.1,1.4-0.1,1.8
				c-0.3,2.1,0.2,6.4,1.5,10.6C22.4,121,25.7,120.6,25.7,120.6z"/>
			<path class="st6" d="M164.1,104.2c3.3,3.1,5.4,7.8,5.4,12.7c0,1-0.1,2.6-0.3,3.6c4.4,0,6.1,0.2,6.4,0.1c3.5-0.3,3.3-5.1,3.3-5.1
				c0.1-0.2,0.4-5,0.4-11.3C179.3,104.2,164.1,104.2,164.1,104.2z"/>
			<path class="st6" d="M141.6,104.2H65c3.4,3.1,5.5,7.8,5.5,12.7c0,1.1-0.1,2.5-0.3,3.6c3.7,0,54.4,0.2,66.4,0.1
				c-0.2-1-0.3-2.7-0.3-3.8C136.1,111.9,138.2,107.3,141.6,104.2z"/>
		</g>
		<path id="XMLID_228_" class="st7" d="M115.8,92.4H71.1c0,0,15.7-16.9,40-17l0,0h4.7V92.4L115.8,92.4z"/>
		<path id="XMLID_188_" class="st7" d="M117.4,92.4v-17c23.5,0.4,38.8,17,38.8,17H117.4z"/>
		<g id="XMLID_81_">
			<path class="st2" d="M53.8,103.5c-7.5,0-13.7,6.1-13.7,13.7c0,7.5,6.1,13.7,13.7,13.7s13.7-6.1,13.7-13.7S61.4,103.5,53.8,103.5z
				"/>
		</g>
		<g id="XMLID_264_">
			<path class="st4" d="M53.8,107.9c-5.1,0-9.4,4.2-9.4,9.4s4.2,9.4,9.4,9.4s9.4-4.2,9.4-9.4C63.2,112.1,59,107.9,53.8,107.9z"/>
		</g>
		<path class="st8" d="M70.4,115.9c0,0,0.1,0.9,0.1,1.3c0,1.1-0.1,2.3-0.3,3.4c3.7,0,54.4,0.1,66.4,0c-0.2-1-0.3-2.4-0.3-3.5
			c0-0.4,0-1.2,0.1-1.2C136.4,115.9,70.4,115.9,70.4,115.9z"/>
		<g id="XMLID_6_">
			<path class="st5" d="M53.8,113.2c-2.3,0-4.1,1.8-4.1,4.1s1.8,4.1,4.1,4.1s4.1-1.8,4.1-4.1C58,115,56,113.2,53.8,113.2z"/>
		</g>
		<path class="st9" d="M178.4,95.3c-1.8,0.1-3.2,3.3-3.2,7.2c0,4,1.4,7.2,3.2,7.2c0.3,0,0.6-0.1,0.9-0.3c0.1-4.3,0.1-9.8-0.3-12.5
			C178.9,96.4,178.7,95.8,178.4,95.3z"/>
		<path class="st10" d="M21.3,100.8L21.3,100.8c-2.1,2.5-1.8,4.6-2,5.6c0,0.3-0.1,0.6-0.1,0.9c0.6,0.4,1.3,0.6,2,0.6
			c2.1,0,2.9-1.6,2.9-3.6C24.3,102.3,23.5,100.8,21.3,100.8z"/>
		<path class="st3" d="M114.5,97.6h-6.8c-0.6,0-1-0.5-1-1v-0.3c0-0.6,0.5-1,1-1h6.7c0.6,0,1,0.5,1,1v0.3
			C115.5,97.2,115,97.6,114.5,97.6z"/>
		<g class="st11">
			<g>
				
					<linearGradient id="SVGID_1_" gradientUnits="userSpaceOnUse" x1="56.7778" y1="1087.7456" x2="145.7896" y2="1176.7573" gradientTransform="matrix(1 0 0 1 0 -1024)">
					<stop  offset="0" style="stop-color:#FFFFFF"/>
					<stop  offset="0.11" style="stop-color:#F2F1F0"/>
					<stop  offset="0.2414" style="stop-color:#DAD8D8"/>
					<stop  offset="0.3838" style="stop-color:#B8B6B6"/>
					<stop  offset="0.5341" style="stop-color:#8F8C8C"/>
					<stop  offset="0.6906" style="stop-color:#625F5E"/>
					<stop  offset="0.8497" style="stop-color:#363434"/>
					<stop  offset="1" style="stop-color:#000101"/>
				</linearGradient>
				<path class="st12" d="M113.4,70.1c8,0,16.7,1.1,25.5,4.4c0,0,4.4,0.9,21.8,13.1l12.4,3.6c0,0,5,1.3,5.8,5.8
					c0.8,4.8,0.1,18.7,0,18.9c0,0,0.2,4.3-3.3,4.6c-0.1,0-0.2,0-0.4,0c-0.6,0-1.7,0-3.6,0c-0.7,0-1.5,0-2.3,0c0.2-1,0.3-2.3,0.3-3.4
					c0-9.3-7.4-16.7-16.7-16.7s-16.7,7.4-16.7,16.7c0,1.1,0.1,2.3,0.3,3.4c-3.6,0-10.9,0-19.2,0c-17.1,0-39.2,0-45.6,0
					c-0.7,0-1.3,0-1.5,0c0.2-1.1,0.3-2.2,0.3-3.3c0-9.3-7.4-16.6-16.7-16.6s-16.7,7.5-16.7,16.8c0,1.2,0.1,2.1,0.4,3.2
					c-0.8,0-2.4,0-4.1,0c-3.5,0-7.7,0-7.7,0s-0.2,0-0.4,0c-0.9,0-3.3-0.4-4.4-3.9c-1.3-4.1-1.7-8.2-1.5-10.4
					c0.2-2-1.3-10.4,25.4-15.6l21.3-3.2c0,0,16.7-14.7,34.3-16.7C104.6,70.4,109,70.1,113.4,70.1 M113.4,69c-4,0-8.2,0.3-13.1,0.8
					c-16.8,2-32.5,15-34.6,16.8l-21,3.1c-25.5,5-26.1,13.1-26.3,16.1c0,0.2,0,0.3,0,0.5c-0.3,2.1,0.1,6.3,1.5,10.8
					c1.3,4.3,4.4,4.6,5.3,4.6c0.2,0,0.4,0,0.5,0h7.6c1.7,0,3.3,0,4.1,0h1.2l-0.3-1.2c-0.2-1.1-0.3-2-0.3-3c0-8.7,7-15.8,15.7-15.8
					s15.7,7,15.7,15.6c0,1.1-0.1,2.1-0.3,3.1l-0.2,1.2h1.2h1.5c2.4,0,7,0,12.8,0c9.5,0,22,0,32.7,0c8.4,0,15.6,0,19.2,0h1.2
					l-0.2-1.2c-0.2-0.9-0.3-2.1-0.3-3.2c0-8.7,7-15.7,15.7-15.7s15.7,7,15.7,15.7c0,1-0.1,2.3-0.3,3.2l-0.2,1.2h1.2
					c0.9,0,1.7,0,2.3,0c1.2,0,2.1,0,2.8,0c0.4,0,0.6,0,0.8,0c0.3,0,0.4,0,0.5,0c3.5-0.3,4.3-3.9,4.2-5.7c0.4-2.8,0.6-15.5,0-19
					c-0.8-5.1-6.3-6.6-6.5-6.6l-12.3-3.6c-16.1-11.3-21.2-12.9-21.9-13.2C131.2,70.5,122.7,69,113.4,69L113.4,69z"/>
			</g>
			<g>
				
					<linearGradient id="SVGID_2_" gradientUnits="userSpaceOnUse" x1="142.401" y1="1130.8658" x2="163.207" y2="1151.6719" gradientTransform="matrix(1 0 0 1 0 -1024)">
					<stop  offset="0" style="stop-color:#FFFFFF"/>
					<stop  offset="0.11" style="stop-color:#F2F1F0"/>
					<stop  offset="0.2414" style="stop-color:#DAD8D8"/>
					<stop  offset="0.3838" style="stop-color:#B8B6B6"/>
					<stop  offset="0.5341" style="stop-color:#8F8C8C"/>
					<stop  offset="0.6906" style="stop-color:#625F5E"/>
					<stop  offset="0.8497" style="stop-color:#363434"/>
					<stop  offset="1" style="stop-color:#000101"/>
				</linearGradient>
				<path class="st13" d="M152.8,103.5c7.5,0,13.7,6.1,13.7,13.7c0,7.5-6.1,13.7-13.7,13.7c-7.5,0-13.7-6.1-13.7-13.7
					C139.1,109.7,145.3,103.5,152.8,103.5 M152.8,102.5c-8.1,0-14.7,6.6-14.7,14.7s6.6,14.7,14.7,14.7c8.1,0,14.7-6.6,14.7-14.7
					C167.6,109.2,161,102.5,152.8,102.5L152.8,102.5z"/>
			</g>
			<g>
				
					<linearGradient id="SVGID_3_" gradientUnits="userSpaceOnUse" x1="43.4055" y1="1130.889" x2="64.2114" y2="1151.6951" gradientTransform="matrix(1 0 0 1 0 -1024)">
					<stop  offset="0" style="stop-color:#FFFFFF"/>
					<stop  offset="0.11" style="stop-color:#F2F1F0"/>
					<stop  offset="0.2414" style="stop-color:#DAD8D8"/>
					<stop  offset="0.3838" style="stop-color:#B8B6B6"/>
					<stop  offset="0.5341" style="stop-color:#8F8C8C"/>
					<stop  offset="0.6906" style="stop-color:#625F5E"/>
					<stop  offset="0.8497" style="stop-color:#363434"/>
					<stop  offset="1" style="stop-color:#000101"/>
				</linearGradient>
				<path class="st14" d="M53.8,103.5c7.5,0,13.7,6.1,13.7,13.7c0,7.5-6.1,13.7-13.7,13.7s-13.7-6.1-13.7-13.7
					C40.1,109.7,46.2,103.5,53.8,103.5 M53.8,102.5c-8.1,0-14.7,6.6-14.7,14.7s6.6,14.7,14.7,14.7s14.7-6.6,14.7-14.7
					S61.9,102.5,53.8,102.5L53.8,102.5z"/>
			</g>
		</g>
	</g>
</g>
</svg>
