<?xml version="1.0" encoding="utf-8"?>
<!-- Generator: Adobe Illustrator 21.1.0, SVG Export Plug-In . SVG Version: 6.00 Build 0)  -->
<svg version="1.1" id="Layer_1" xmlns="http://www.w3.org/2000/svg" xmlns:xlink="http://www.w3.org/1999/xlink" x="0px" y="0px"
	 viewBox="0 0 200 200" style="enable-background:new 0 0 200 200;" xml:space="preserve">
<style type="text/css">
	.st0{fill:#13487D;}
	.st1{fill:#028CBA;}
	.st2{fill:none;stroke:#17254F;stroke-miterlimit:10;}
	.st3{opacity:0.3;fill:url(#SVGID_1_);enable-background:new    ;}
	.st4{opacity:0.3;fill:url(#SVGID_2_);enable-background:new    ;}
	.st5{fill:#FFFFFF;}
	.st6{fill:#96D3BA;}
	.st7{fill:#EEEEEE;}
	.st8{opacity:0.35;fill:url(#SVGID_3_);enable-background:new    ;}
	.st9{fill:none;}
</style>
<rect x="-0.5" y="-1.3" class="st0" width="200" height="200"/>
<g>
	<g>
		<path class="st1" d="M137.3,150.9c0.6,0,1.2-0.4,1.5-0.8l12.1-18.6c0.3-0.5,0.1-0.8-0.5-0.8l-101,7.7c-0.5,0-0.8,0.5-0.4,0.9
			l7.1,10.8c0.3,0.5,1,0.8,1.5,0.8H137.3z"/>
	</g>
	<path class="st2" d="M100.9,135.1"/>
	
		<linearGradient id="SVGID_1_" gradientUnits="userSpaceOnUse" x1="102.3882" y1="1112.375" x2="144.2177" y2="1112.375" gradientTransform="matrix(1 0 0 1 0 -1024)">
		<stop  offset="0" style="stop-color:#FFFFFF"/>
		<stop  offset="0.11" style="stop-color:#F2F1F0"/>
		<stop  offset="0.2414" style="stop-color:#DAD8D8"/>
		<stop  offset="0.3838" style="stop-color:#B8B6B6"/>
		<stop  offset="0.5341" style="stop-color:#8F8C8C"/>
		<stop  offset="0.6906" style="stop-color:#625F5E"/>
		<stop  offset="0.8497" style="stop-color:#363434"/>
		<stop  offset="1" style="stop-color:#000101"/>
	</linearGradient>
	<path class="st3" d="M102.4,129.3l0.4-0.6c0.2-0.3,16.3-27.2,0-80.9l0.7-0.3l40.8,77.8L102.4,129.3z M104.6,51.2
		c7.5,26.4,7,45.8,5.2,57.6c-1.7,11.1-4.9,17.7-5.9,19.6l39.3-3.8L104.6,51.2z"/>
	
		<linearGradient id="SVGID_2_" gradientUnits="userSpaceOnUse" x1="66.3382" y1="1103.325" x2="107.8382" y2="1144.825" gradientTransform="matrix(1 0 0 1 0 -1024)">
		<stop  offset="0" style="stop-color:#FFFFFF"/>
		<stop  offset="0.11" style="stop-color:#F2F1F0"/>
		<stop  offset="0.2414" style="stop-color:#DAD8D8"/>
		<stop  offset="0.3838" style="stop-color:#B8B6B6"/>
		<stop  offset="0.5341" style="stop-color:#8F8C8C"/>
		<stop  offset="0.6906" style="stop-color:#625F5E"/>
		<stop  offset="0.8497" style="stop-color:#363434"/>
		<stop  offset="1" style="stop-color:#000101"/>
	</linearGradient>
	<path class="st4" d="M53.3,132.6l46.2-86.4v83L53.3,132.6z M98.7,49.2l-44.1,82.6l44.1-3.2V49.2z"/>
	<g>
		<polygon class="st5" points="98.6,47.9 53.6,132.2 98.6,129 		"/>
		<path class="st5" d="M102.6,47.9L143,125l-40.4,3.9C102.6,129,119.2,102.3,102.6,47.9z"/>
		<g>
			<path class="st6" d="M50.8,142.7c0.3,0.5,1,0.8,1.5,0.8l93.8-7c0.5,0,1.2-0.5,1.5-0.9l0.6-0.9c0.3-0.5,0.1-0.8-0.5-0.8l-96.9,7.3
				c-0.5,0-0.8,0.5-0.4,0.9L50.8,142.7z"/>
		</g>
		<path class="st7" d="M93.9,126.3c-0.9-5-1.4-9.9-1.8-14.9c-0.3-5-0.5-9.9-0.5-14.9s0.2-9.9,0.5-14.9s0.8-9.9,1.8-14.9
			c0.9,5,1.4,9.9,1.8,14.9c0.3,5,0.5,9.9,0.5,14.9s-0.2,9.9-0.5,14.9C95.3,116.4,94.8,121.3,93.9,126.3z"/>
		<path class="st7" d="M109.6,125.3c1.7-4.7,2.8-9.4,3.5-14.2c0.7-4.8,1-9.5,1-14.3l-0.2-3.6c0-0.6,0-1.2-0.1-1.8l-0.2-1.8
			c-0.1-1.2-0.2-2.4-0.3-3.6c-0.2-1.2-0.3-2.4-0.5-3.6c-0.1-0.6-0.1-1.2-0.2-1.8l-0.3-1.8c-0.2-1.2-0.4-2.4-0.6-3.6
			c-0.5-2.4-1.1-4.8-1.4-7.3c0.7,1.1,1.3,2.2,1.8,3.3c0.3,0.6,0.6,1.1,0.9,1.7c0.3,0.6,0.6,1.1,0.8,1.7c0.5,1.2,0.9,2.3,1.4,3.5
			l0.7,1.8c0.2,0.6,0.4,1.2,0.5,1.8c0.3,1.2,0.7,2.4,1,3.7c0.3,1.2,0.4,2.5,0.7,3.8c0.5,2.5,0.5,5.1,0.7,7.6c0,5.1-0.6,10.2-2,15.1
			C115.1,116.7,113,121.4,109.6,125.3z"/>
		
			<linearGradient id="SVGID_3_" gradientUnits="userSpaceOnUse" x1="74.5062" y1="1135.9445" x2="125.7374" y2="1187.1754" gradientTransform="matrix(1 0 0 1 0 -1024)">
			<stop  offset="0" style="stop-color:#FFFFFF"/>
			<stop  offset="0.11" style="stop-color:#F2F1F0"/>
			<stop  offset="0.2414" style="stop-color:#DAD8D8"/>
			<stop  offset="0.3838" style="stop-color:#B8B6B6"/>
			<stop  offset="0.5341" style="stop-color:#8F8C8C"/>
			<stop  offset="0.6906" style="stop-color:#625F5E"/>
			<stop  offset="0.8497" style="stop-color:#363434"/>
			<stop  offset="1" style="stop-color:#000101"/>
		</linearGradient>
		<path class="st8" d="M136.9,151.3h-80c-0.5,0-1.2-0.3-1.5-0.8l-7.3-11.2c-0.2-0.3-0.2-0.6-0.1-0.8c0.1-0.2,0.4-0.4,0.7-0.4
			l101.4-7.7c0.3,0,0.6,0.1,0.8,0.3c0.1,0.2,0.1,0.5-0.1,0.8l-12.4,19C138.1,150.9,137.5,151.3,136.9,151.3z M48.7,138.8L48.7,138.8
			l7.4,11.3c0.2,0.2,0.6,0.5,0.8,0.5h80c0.3,0,0.7-0.2,0.8-0.5l12.4-19L48.7,138.8L48.7,138.8z"/>
	</g>
</g>
<rect id="XMLID_3_" x="1137" y="943.7" class="st9" width="161.6" height="20.6"/>
</svg>
