<?xml version="1.0" encoding="utf-8"?>
<!-- Generator: Adobe Illustrator 21.1.0, SVG Export Plug-In . SVG Version: 6.00 Build 0)  -->
<svg version="1.1" id="Layer_1" xmlns="http://www.w3.org/2000/svg" xmlns:xlink="http://www.w3.org/1999/xlink" x="0px" y="0px"
	 viewBox="0 0 200 200" style="enable-background:new 0 0 200 200;" xml:space="preserve">
<style type="text/css">
	.st0{fill:#13487D;}
	.st1{fill:#028CBA;}
	.st2{fill:#000101;}
	.st3{fill:#CEDEEF;}
	.st4{fill:#D1D2D3;}
	.st5{fill:#052460;}
	.st6{fill:#73A8D4;}
	.st7{fill:#00588E;stroke:#CEDEEF;stroke-width:0.25;stroke-miterlimit:10;}
	.st8{fill:#4C98CB;stroke:#CEDEEF;stroke-width:6.606679e-02;stroke-linejoin:round;stroke-miterlimit:10;}
	.st9{fill:#13487D;stroke:#000101;stroke-width:6.606679e-02;stroke-linejoin:round;stroke-miterlimit:10;}
	.st10{fill:none;stroke:#E3F2FA;stroke-width:6.606679e-02;stroke-linejoin:round;stroke-miterlimit:10;}
	.st11{fill:#4C98CB;stroke:#E3F2FA;stroke-width:0.25;stroke-miterlimit:10;}
	.st12{fill:#4C98CB;stroke:#CEDEEF;stroke-width:0.25;stroke-miterlimit:10;}
	.st13{fill:#3B70A1;}
	.st14{fill:#DAEDFA;}
	.st15{opacity:0.4;}
	.st16{fill:#FFFFFF;}
	.st17{fill:none;stroke:#E3F2FA;stroke-width:0.758;stroke-miterlimit:10;}
	.st18{fill:none;stroke:#E3F2FA;stroke-width:0.758;stroke-miterlimit:10;stroke-dasharray:1.5108,1.5108;}
	.st19{fill:#4C98CB;}
	.st20{fill:none;stroke:#E3F2FA;stroke-width:0.3745;stroke-miterlimit:10;stroke-dasharray:1.4978,1.4978;}
	.st21{fill:#F6A537;stroke:#3B70A1;stroke-miterlimit:10;}
	.st22{fill:#E3F2FA;}
</style>
<rect x="-1.9" y="0.7" class="st0" width="200" height="200"/>
<g>
	<path class="st1" d="M136.1,90.1H76.3c-0.2,0-0.4-0.2-0.6-0.2l-0.1-0.2l-5.9,0.6l-6.8,1.9l0.6,5.6h2.2c-0.5,0.7-1.1,1.7-1.1,3.2
		v33.6c0,6.2,5.4,12.8,11.6,12.8h59.8c6.2,0,10.9-6.4,10.9-12.8V101C146.8,94.7,142.3,90.1,136.1,90.1z"/>
	<path class="st2" d="M134.3,146H78.2c-7,0-12.7-5.7-12.7-12.7v-29.6c0-7,5.7-12.7,12.7-12.7h56.2c7,0,12.7,5.7,12.7,12.7v29.6
		C146.9,140.3,141.2,146,134.3,146z"/>
	<g>
		<path class="st3" d="M103.7,99.1l15.4-36.3c0.3-0.7,1.3-1.2,2-0.8l25.5,10.8c0.7,0.3,1.2,1.3,0.8,2L132,111
			c-0.3,0.7-1.3,1.2-2,0.8l-25.5-10.8C103.7,100.8,103.4,99.8,103.7,99.1z"/>
		<path class="st4" d="M124.4,103.3c5.4-12.7,2.2-26.1-7.1-30c-0.8-0.3-1.6-0.5-2.4-0.7l-10.9,25.7c-0.5,1.3,0.1,2.7,1.3,3.3l16.4,7
			C122.8,106.8,123.7,105.1,124.4,103.3z"/>
		
			<rect x="110.9" y="87.9" transform="matrix(0.3903 -0.9207 0.9207 0.3903 -2.0261 176.3033)" class="st5" width="42.5" height="3.6"/>
	</g>
	<g>
		<path class="st6" d="M84,98.7L87,59.4c0.1-0.8,0.8-1.5,1.6-1.4l27.6,2.1c0.8,0.1,1.5,0.8,1.4,1.6l-3.1,39.3
			c-0.1,0.8-0.8,1.5-1.6,1.4l-27.6-2.1C84.5,100.2,83.9,99.5,84,98.7z"/>
		<path class="st4" d="M105,96.1c1.1-13.6-6.2-25.4-16.3-26.2c-0.8-0.1-1.7,0-2.5,0.1l-2.1,27.8c-0.1,1.4,1,2.5,2.2,2.6l17.7,1.4
			C104.5,99.9,104.8,98,105,96.1z"/>
		
			<rect x="86.7" y="78.9" transform="matrix(7.691942e-02 -0.997 0.997 7.691942e-02 19.1614 182.1654)" class="st5" width="42.5" height="3.6"/>
	</g>
	<g>
		<g>
			<polygon class="st7" points="90.5,71.9 101.2,105.5 102.7,78.7 91.9,45.2 			"/>
		</g>
		<g>
			<path class="st8" d="M88,60.5L88,60.5c0.1,0.2,0.3,0.3,0.5,0.2c0.6-0.4,2-0.7,2.5-0.6c0.6,0.1,1,1.1,1,1.2l4.2,14.4
				c0,0.2,0.2,0.3,0.4,0.2c0.2-0.1,0.3-0.2,0.2-0.4l-4.2-14.3c0,0-0.3-1.4-1.5-1.6c-1.1-0.2-2.9,0.6-3.1,0.7
				C88,60.2,87.9,60.3,88,60.5z"/>
			<g>
				<path class="st9" d="M87.5,61.2l-0.3-1.1c0-0.2-0.2-0.2-0.4-0.2l-5.2,1.6c-0.2,0-0.2,0.2-0.2,0.4l0.3,1.1c0,0.2,0.2,0.2,0.4,0.2
					l5.2-1.6C87.5,61.5,87.6,61.3,87.5,61.2z"/>
				<path class="st8" d="M87.5,61.2l-0.3-1.1c0-0.2-0.2-0.2-0.4-0.2l-5.2,1.6c-0.2,0-0.2,0.2-0.2,0.4l0.3,1.1c0,0.2,0.2,0.2,0.4,0.2
					l5.2-1.6C87.5,61.5,87.6,61.3,87.5,61.2z"/>
				<ellipse transform="matrix(0.9528 -0.3036 0.3036 0.9528 -14.1917 29.5349)" class="st8" cx="87.9" cy="60.4" rx="1" ry="1"/>
				<line class="st10" x1="86" y1="60.7" x2="81.5" y2="62.1"/>
				<line class="st10" x1="81.5" y1="62.4" x2="85.9" y2="61"/>
				<line class="st10" x1="86.2" y1="61.4" x2="81.8" y2="62.7"/>
			</g>
		</g>
		<g>
			<g>
				<path class="st11" d="M90.3,72l5.8,18.4l-7,2.2c1.1-2.1,1.3-4.5,0.5-7c-1-3.1-3.4-5.3-6.2-6.1C85.4,77.2,86,74,85,71
					c-0.7-2.4-2.4-4.3-4.5-5.4l10.2-3.3L90.3,72C90.3,71.9,90.3,72,90.3,72z"/>
			</g>
			<g>
				<path class="st12" d="M90.3,72l0.7,2.3l-5.9,1.9c0.4-1.7,0.5-3.5-0.1-5.3c-0.7-2.4-2.4-4.3-4.5-5.4l10.2-3.3L90.3,72
					C90.3,71.9,90.3,72,90.3,72z"/>
			</g>
		</g>
	</g>
	<g>
		<g>
			<path class="st13" d="M60.2,67.6l3.8,3.3l3.2-3.6c3-3.4,7.8-3.9,11-1.2l12,10.6c3.1,2.7,3.2,7.6,0.3,11l-3.2,3.6l4.1,3.6
				c1.6,1.4,1.7,4,0.1,5.7l-3.4,3.8c-1.5,1.8-4.1,2-5.7,0.6L51.2,77.7c-1.6-1.4-1.7-4-0.1-5.7l3.4-3.8C56,66.4,58.5,66.1,60.2,67.6z
				"/>
			<path class="st14" d="M67.1,67.3c0.8-1,1.9-1.7,3.1-2.2l0,0l6.1,5.4c0.5,0.4,0.5,1.4,0,1.9L73,76.2c-0.5,0.6-1.4,0.6-1.9,0.2
				l-6.8-5.9L67.1,67.3z"/>
		</g>
		<g class="st15">
			<g>
				<path class="st3" d="M75.1,81.4l-7.4,8.5l-4.1-3.6c-2.5-3.9-2.3-9.1,1-12.8c0.2-0.2,0.4-0.5,0.7-0.7L75.1,81.4z"/>
				<path class="st1" d="M67.6,79.2l4.3,3.8c0.1,0.1,0.3,0.1,0.4,0l1-1.1c0.1-0.1,0.1-0.3,0-0.4L69,77.7c-0.1-0.1-0.3-0.1-0.4,0
					l-1,1.1C67.4,79,67.5,79.2,67.6,79.2z"/>
			</g>
			<g>
				<path class="st3" d="M75.6,82l-7.4,8.5l4.1,3.6c4.2,2,9.3,1.1,12.6-2.5c0.2-0.2,0.4-0.5,0.6-0.8L75.6,82z"/>
				<path class="st1" d="M74.5,85.2l4.3,3.8c0.1,0.1,0.3,0.1,0.4,0l1-1.1c0.1-0.1,0.1-0.3,0-0.4l-4.3-3.8c-0.1-0.1-0.3-0.1-0.4,0
					l-1,1.1C74.3,85,74.3,85.1,74.5,85.2z"/>
			</g>
		</g>
		<g>
			<g>
				
					<ellipse transform="matrix(0.6588 -0.7523 0.7523 0.6588 -43.7993 69.083)" class="st5" cx="54.3" cy="82.8" rx="6.1" ry="6.1"/>
				
					<ellipse transform="matrix(0.6588 -0.7523 0.7523 0.6588 -43.7993 69.083)" class="st16" cx="54.3" cy="82.8" rx="2.6" ry="2.6"/>
			</g>
			<g>
				<ellipse transform="matrix(0.6588 -0.7523 0.7523 0.6588 -50.96 92.9752)" class="st2" cx="77" cy="102.7" rx="6.1" ry="6.1"/>
				<ellipse transform="matrix(0.6588 -0.7523 0.7523 0.6588 -50.96 92.9752)" class="st16" cx="77" cy="102.7" rx="2.6" ry="2.6"/>
			</g>
		</g>
	</g>
	<path class="st1" d="M134.6,91.7H74.8H63.4v11.4v33.6v11.4h11.4h59.8c6.2,0,11.4-5.2,11.4-11.4v-33.6
		C146,96.8,140.8,91.7,134.6,91.7z"/>
	<g>
		<g>
			<g>
				<line class="st17" x1="64" y1="94.2" x2="64.9" y2="94.2"/>
				<path class="st18" d="M66.4,94.2h67.1c5.3,0,9.6,4.3,9.6,9.6v32.1c0,5.3-4.3,9.6-9.6,9.6H65.7"/>
				<line class="st17" x1="64.9" y1="145.5" x2="64" y2="145.5"/>
			</g>
		</g>
		<g>
			<g>
				<polygon class="st19" points="148,125.6 146,126.9 146,112.8 148,111.5 				"/>
				<path class="st19" d="M146,112.8h-20.7c-1.2,0-2,1-2,2v9.9c0,1.2,1,2,2,2H146V112.8z"/>
			</g>
			<path class="st20" d="M148,112.8l-2,1.5h-19.5c-1,0-1.8,0.8-1.8,1.8v7.3c0,1,0.8,1.8,1.8,1.8H146l2-1.4"/>
			<g>
				<circle class="st21" cx="130.3" cy="120.1" r="3.4"/>
				<circle class="st22" cx="130" cy="119.8" r="3.4"/>
			</g>
		</g>
	</g>
</g>
</svg>
