<?xml version="1.0" encoding="utf-8"?>
<!-- Generator: Adobe Illustrator 21.1.0, SVG Export Plug-In . SVG Version: 6.00 Build 0)  -->
<svg version="1.1" id="Layer_1" xmlns="http://www.w3.org/2000/svg" xmlns:xlink="http://www.w3.org/1999/xlink" x="0px" y="0px"
	 viewBox="0 0 200 200" style="enable-background:new 0 0 200 200;" xml:space="preserve">
<style type="text/css">
	.st0{fill:#13487D;}
	.st1{fill:none;}
	.st2{fill:none;stroke:#CEDEEF;stroke-width:0.758;stroke-miterlimit:10;stroke-dasharray:1.5159,1.5159;}
	.st3{fill:#052460;}
	.st4{fill:#028CBA;}
	.st5{fill:#7BB3CC;}
	.st6{fill:none;stroke:#CEDEEF;stroke-width:0.8961;stroke-miterlimit:10;stroke-dasharray:1.3585,1.3584;}
	.st7{fill:#F5F5F5;}
	.st8{fill:#DAEDFA;}
</style>
<rect x="-0.2" y="0.7" class="st0" width="200" height="200"/>
<rect id="XMLID_3_" x="1137" y="943.7" class="st1" width="161.6" height="20.6"/>
<g id="XMLID_1160_">
	<g id="XMLID_1178_">
		<path id="XMLID_1179_" class="st2" d="M144.6,149.9H142V63.5c0-5.3-4.5-9.7-10.1-9.7c-5.6,0-10.1,4.3-10.1,9.7v1.8h-2.6v-1.8
			c0-6.7,5.7-12.1,12.7-12.1s12.7,5.4,12.7,12.1L144.6,149.9L144.6,149.9z"/>
	</g>
	<path id="XMLID_1177_" class="st3" d="M110.8,149.9v-8.7c0-1.4,1.2-2.5,2.6-2.5s2.6,1.1,2.6,2.5v8.7H110.8z"/>
	<path id="XMLID_1176_" class="st3" d="M64.7,149.9v-8.8c0-1.4,1.2-2.5,2.6-2.5s2.6,1.1,2.6,2.5v8.8H64.7z"/>
	<path id="XMLID_1175_" class="st4" d="M50.5,117.6l4.5,16.5c1.2,4.3,5.9,7.9,10.6,7.9h62.2c4.7,0,10.2-3.2,12.4-7.2l9.3-17.1h-99
		V117.6z"/>
	<path id="XMLID_1174_" class="st3" d="M130.1,149.9v-10c0-1.4,1.2-2.5,2.6-2.5s2.6,1.1,2.6,2.5v10H130.1z"/>
	<path id="XMLID_1173_" class="st3" d="M83.9,149.9v-10c0-1.4,1.2-2.5,2.6-2.5s2.6,1.1,2.6,2.5v10H83.9z"/>
	<path id="XMLID_1172_" class="st3" d="M81.3,149.9c0-1.4,1.2-2.5,2.6-2.5s2.6,1.1,2.6,2.5H81.3z"/>
	<path id="XMLID_1171_" class="st3" d="M132.6,149.9c0-1.4,1.2-2.5,2.6-2.5s2.6,1.1,2.6,2.5H132.6z"/>
	<path id="XMLID_1170_" class="st3" d="M113.4,149.9c0-1.4,1.2-2.5,2.6-2.5s2.6,1.1,2.6,2.5H113.4z"/>
	<path id="XMLID_1169_" class="st3" d="M62,149.9c0-1.4,1.2-2.5,2.6-2.5s2.6,1.1,2.6,2.5H62z"/>
	<path id="XMLID_1168_" class="st5" d="M149.4,114.3H50.2c-1.9,0-3.4,1.4-3.4,3.2h106C152.8,115.8,151.2,114.3,149.4,114.3z"/>
	<path id="XMLID_1167_" class="st6" d="M128.9,65.2h-16.5c-3.6,0-6.6,2.8-6.6,6.3h29.6C135.4,68,132.6,65.2,128.9,65.2z"/>
	<path id="XMLID_1166_" class="st3" d="M139.4,104.2c-0.7,0-1.3-0.5-1.3-1.2s0.6-1.2,1.3-1.2h8c0.7,0,1.3,0.5,1.3,1.2
		s-0.6,1.2-1.3,1.2H139.4z"/>
	<g id="XMLID_1163_">
		<polygon id="XMLID_1165_" class="st7" points="138.1,105.2 135.9,102.9 138.1,100.8 140.4,102.9 		"/>
		<polygon id="XMLID_1164_" class="st7" points="147.1,105.2 144.9,102.9 147.1,100.8 149.4,102.9 		"/>
	</g>
	<path id="XMLID_1162_" class="st5" d="M81.8,114.3h2.9c2.3,0,4.1,1.8,4.1,3.9v16.7h13v-17.7c0-2.9-2.5-5.3-5.5-5.3h-9.8
		C84.4,111.9,82.8,112.8,81.8,114.3z"/>
	<path id="XMLID_1161_" class="st8" d="M91.3,135.1v-16.2c0-0.7,0.6-1.2,1.3-1.2c0.7,0,1.3,0.6,1.3,1.2v16.2H91.3z"/>
</g>
</svg>
