<?xml version="1.0" encoding="utf-8"?>
<!-- Generator: Adobe Illustrator 21.1.0, SVG Export Plug-In . SVG Version: 6.00 Build 0)  -->
<svg version="1.1" id="Layer_1" xmlns="http://www.w3.org/2000/svg" xmlns:xlink="http://www.w3.org/1999/xlink" x="0px" y="0px"
	 viewBox="0 0 200 200" style="enable-background:new 0 0 200 200;" xml:space="preserve">
<style type="text/css">
	.st0{fill:#13487D;}
	.st1{fill:none;stroke:#17254F;stroke-miterlimit:10;}
	.st2{fill:none;}
	.st3{fill:#DAEDFA;}
	.st4{fill:#028CBA;}
</style>
<rect x="0" y="1.4" class="st0" width="200" height="200"/>
<path class="st1" d="M93.1-44.5"/>
<rect id="XMLID_3_" x="1137" y="943.7" class="st2" width="161.6" height="20.6"/>
<rect id="XMLID_2_" x="-1" y="154.5" class="st2" width="200.1" height="34.5"/>
<g>
	<path id="XMLID_61_" class="st3" d="M98.1,109.8l0.1,5.3c0.5,0.4,1.1,0.7,1.7,1.1c0.6-0.4,1.1-0.7,1.7-1.1l0.1-5.3
		c-0.6-0.2-1.2-0.3-1.8-0.5C99.3,109.4,98.7,109.6,98.1,109.8z M98.6,128.7c0.4,0.2,0.8,0.5,1.3,0.7c0.5-0.2,0.9-0.5,1.3-0.7l0-1.5
		c-0.4-0.3-0.8-0.6-1.3-0.9c-0.5,0.3-1,0.6-1.3,0.9L98.6,128.7z M146.9,74.3c-9.3-0.7-9.8-6.1-21.1-9.6
		c-11.1-3.4-15.3,12.7-23.2,12.7l0.1-4.4c2.5-1,4.2-3.4,4.2-6.1c0-3.7-3.1-6.7-6.9-6.7c-3.8,0-6.9,3-6.9,6.7c0,2.7,1.7,5.1,4.2,6.1
		l0.1,4.4c-8.6,0-11.4-16.3-22.4-12.9c-11.3,3.4-12.4,9.1-21.7,9.8c-4.1,0.3,10.2,14.3,44.3,9.2l0.4,15.3c0.7,0.2,1.4,0.4,2.1,0.6
		c0.7-0.2,1.4-0.4,2.1-0.6l0.4-15.3C136.6,88.6,151,74.6,146.9,74.3z M99.9,137.8c-0.3,0.1-0.7,0.2-1.1,0.3l0.1,3.5
		c0,0.5,0.4,0.9,1,0.9c0.5,0,1-0.4,1-0.9l0.1-3.5C100.6,138,100.3,137.9,99.9,137.8z"/>
	<path id="XMLID_6_" class="st4" d="M96.5,101.3c-2.8,1-5.4,2.2-7.3,3.8c-5.4-1.7-9.9-4.2-9.9-9.3c0-8.8,10.2-10.3,14.2-6.1
		c1.6,1.7-0.6,5.4-3.7,3.5c-1.9-1.1-4.6-0.2-4.6,2.4C85.2,98.4,90.5,99.7,96.5,101.3z M105.7,139.1c0,1.7,0.4,3,1.7,3
		c1,0,1-1.3,1-2.7c0-1.2-0.7-2.3-1.6-3.1c-0.9,0.5-1.9,0.9-2.8,1.2C105,137.9,105.7,138.4,105.7,139.1z M111.1,107.6
		c-2.1,0.6-4.3,1.1-6.2,1.5c-0.1,0-0.2,0-0.3,0.1c1.7,0.8,2.8,1.7,2.8,3c0,2.5-2.1,4.4-4.8,6.2c-0.7,0.4-1.4,0.9-2.1,1.3
		c-1.4,0.8-2.8,1.7-4.1,2.6c-0.7,0.5-1.3,1-1.9,1.5c-1.7,1.5-2.9,3.3-2.9,5.6c0,1.8,1,3.1,2.4,4.2c1.2-0.8,2.6-1.5,3.9-2.1
		c-1.2-0.7-2-1.5-2-2.4c0-1,1-2,2.4-3c0.6-0.4,1.4-0.9,2.2-1.3c1.3-0.7,2.7-1.5,4.1-2.3c0.7-0.4,1.4-0.8,2.1-1.3
		c3.5-2.2,6.4-5,6.4-8.6C113.1,110.4,112.3,108.9,111.1,107.6z M106.5,123.7c-1,0.6-2,1.2-3,1.7c-0.3,0.1-0.5,0.3-0.8,0.5
		c1.5,1,2.4,2,2.4,3c0,0.9-0.8,1.7-2,2.4c-0.7,0.4-1.6,0.9-2.6,1.3c-1.4,0.6-2.9,1.3-4.2,2.1c-0.8,0.4-1.5,0.9-2.1,1.5
		c-1,0.9-1.6,1.9-1.6,3.1c0,1.4,0,2.7,1,2.7c1.2,0,1.7-1.3,1.7-3c0-0.7,0.7-1.2,1.8-1.7c0.9-0.4,2.2-0.8,3.5-1.2
		c1.4-0.4,2.9-0.9,4.2-1.5c0.8-0.4,1.6-0.8,2.2-1.3c1.4-1,2.4-2.3,2.4-4.2C109.3,127.1,108.2,125.3,106.5,123.7z M107.4,89.7
		c-1.6,1.7,0.6,5.4,3.7,3.5c1.9-1.1,4.6-0.2,4.6,2.4c0,2.8-5.3,4.1-11.3,5.6c-1.3,0.3-2.6,0.7-3.9,1.1c-3.1,0.9-6.2,2-8.5,3.5
		c-0.8,0.5-1.5,1.1-2.1,1.7c-1.2,1.3-2,2.9-2,4.8c0,3.7,2.9,6.4,6.4,8.6c1.3-1,2.7-1.9,4.1-2.7c-2.7-1.8-4.8-3.6-4.8-6.2
		c0-1.3,1.1-2.3,2.8-3c1.1-0.5,2.5-0.9,4.1-1.3c2.6-0.6,5.6-1.2,8.5-2c0.9-0.2,1.9-0.5,2.8-0.8c5.4-1.7,9.9-4.2,9.9-9.3
		C121.6,87,111.4,85.5,107.4,89.7z"/>
</g>
</svg>
