<?xml version="1.0" encoding="utf-8"?>
<!-- Generator: Adobe Illustrator 21.1.0, SVG Export Plug-In . SVG Version: 6.00 Build 0)  -->
<svg version="1.1" id="Layer_1" xmlns="http://www.w3.org/2000/svg" xmlns:xlink="http://www.w3.org/1999/xlink" x="0px" y="0px"
	 viewBox="0 0 200 200" style="enable-background:new 0 0 200 200;" xml:space="preserve">
<style type="text/css">
	.st0{fill:#13487D;}
	.st1{fill:#4C98CB;}
	.st2{fill:#2899D5;}
	.st3{fill:#E3F2FA;}
</style>
<rect x="-1.3" y="-0.2" class="st0" width="200" height="200"/>
<g>
	<g>
		<g>
			<path class="st1" d="M137.6,101.9c-17.1,12.2-11.5-10.1-25.7,0c-10.6,7.5-12.7,1.9-15.2-0.7c-2.4-2.7-6.1-2.3-10.5,0.8
				s-8.2,4.5-10.7,3.3c-4.5-1.5-5-10.6-15.1-3.5c-4.4,3.1-8.2,4.5-10.7,3.3c-2.6-0.8-3.9-4.2-4.1-2.6c-0.1,0.9,1.1,6.4,3.5,8.9
				c2.4,2.7,6.1,2.3,10.5-0.8c10.8-7.7,13-1.5,15.3,0.8c2.4,2.7,6.1,2.3,10.5-0.8c17.1-12.2,11.4,10.1,25.7,0
				c17.1-12.2,11.5,10.2,25.7,0c4.4-3.1,8.2-4.5,10.7-3.3c2.6,0.8,3.9,4.2,4.1,2.6c0.1-0.9-1.1-6.4-3.5-8.9
				C145.7,98.4,141.9,98.8,137.6,101.9z"/>
		</g>
		<g>
			<path class="st1" d="M137.6,119.8c-17.1,12.2-11.5-10.1-25.7,0c-10.6,7.5-12.7,1.9-15.2-0.7c-2.4-2.7-6.1-2.3-10.5,0.8
				c-4.4,3.1-8.2,4.5-10.7,3.3c-4.5-1.5-5-10.5-15.1-3.4c-4.4,3.1-8.2,4.5-10.7,3.3c-2.6-0.8-3.9-4.2-4.1-2.6
				c-0.1,0.9,1.1,6.4,3.5,8.9c2.4,2.7,6.1,2.3,10.5-0.8c10.8-7.7,13-1.5,15.3,0.8c2.4,2.7,6.1,2.3,10.5-0.8
				c17.1-12.2,11.4,10.1,25.7,0c17.1-12.2,11.5,10.2,25.7,0c4.4-3.1,8.2-4.5,10.7-3.3c2.6,0.8,3.9,4.2,4.1,2.6
				c0.1-0.9-1.1-6.4-3.5-8.9C145.7,116.3,141.9,116.7,137.6,119.8z"/>
		</g>
		<g>
			<path class="st1" d="M137.6,137.8c-17.1,12.2-11.5-10.1-25.7,0c-10.6,7.5-12.7,1.9-15.2-0.7c-2.4-2.7-6.1-2.3-10.5,0.8
				s-8.2,4.5-10.7,3.3c-4.5-1.4-5-10.5-15-3.4c-4.4,3.1-8.2,4.5-10.7,3.3c-2.6-0.8-3.9-4.2-4.1-2.6c-0.1,0.9,1.1,6.4,3.5,8.9
				c2.4,2.7,6.1,2.3,10.5-0.8c10.8-7.7,13-1.5,15.3,0.8c2.4,2.7,6.1,2.3,10.5-0.8c17.1-12.2,11.4,10.1,25.7,0
				c17.1-12.2,11.5,10.2,25.7,0c4.4-3.1,8.2-4.5,10.7-3.3c2.6,0.8,3.9,4.2,4.1,2.6c0.1-0.9-1.1-6.4-3.5-8.9
				C145.7,134.3,141.9,134.8,137.6,137.8z"/>
		</g>
	</g>
	<rect x="85.8" y="68.2" class="st2" width="23.4" height="2.7"/>
	<rect x="85.8" y="77.3" class="st2" width="23.4" height="2.7"/>
	<polyline class="st2" points="85.8,86.4 85.8,89.2 109.2,89.2 109.2,86.4 	"/>
	<path class="st3" d="M85.8,80v-2.7V71v-2.8V57.6c0-2.6,2.1-4.7,4.6-4.7c2.6,0,4.6,2.1,4.6,4.7v4.6c0,0.8,0.6,1.4,1.4,1.4
		s1.4-0.6,1.4-1.4v-4.6c0-4.1-3.3-7.5-7.5-7.5c-4.1,0-7.5,3.3-7.5,7.5v36.3c0,0.8,0.6,1.4,1.4,1.4s1.4-0.6,1.4-1.4v-4.7v-2.7v-6.4
		L85.8,80L85.8,80z"/>
	<path class="st3" d="M116.7,50.1c-4.1,0-7.5,3.3-7.5,7.5v10.6v2.7v6.3v2.7v6.3v2.7v4.7c0,0.8,0.6,1.4,1.4,1.4s1.4-0.6,1.4-1.4v-36
		c0-2.6,2.1-4.7,4.6-4.7c2.6,0,4.6,2.1,4.6,4.7v4.6c0,0.8,0.6,1.4,1.4,1.4s1.4-0.6,1.4-1.4v-4.6C124.1,53.5,120.7,50.1,116.7,50.1z"
		/>
</g>
</svg>
