<?xml version="1.0" encoding="utf-8"?>
<!-- Generator: Adobe Illustrator 21.1.0, SVG Export Plug-In . SVG Version: 6.00 Build 0)  -->
<svg version="1.1" id="Layer_1" xmlns="http://www.w3.org/2000/svg" xmlns:xlink="http://www.w3.org/1999/xlink" x="0px" y="0px"
	 viewBox="0 0 200 200" style="enable-background:new 0 0 200 200;" xml:space="preserve">
<style type="text/css">
	.st0{fill:#13487D;}
	.st1{fill:#052460;}
	.st2{fill:#CEDEEF;}
	.st3{fill:#7BB3CC;}
	.st4{fill:#3B70A1;}
	.st5{fill:#73A8D4;}
</style>
<rect x="-1.4" y="1" class="st0" width="200" height="200"/>
<g>
	<path class="st1" d="M103,84.5c-1.3-1.4-2.4-2.8-3.6-4.5l0,0c-1.4,1-2.6,2-4,2.7l-2.6,68.4h6.6h19.4
		C105.9,147.4,103.4,101.9,103,84.5z"/>
	<g>
		<path class="st2" d="M109,136.1c-8.8,0-16.8,3.5-23.1,9.3c-2-0.7-4-1.1-6.2-1.1c-6.7,0-12.8,3.8-16.3,9.7h15.5H96h43.1
			C132.6,143.2,121.5,136.1,109,136.1z"/>
		<path class="st3" d="M149.5,153.8c-6.5-6.7-17.6-11.1-30.1-11.1s-23.5,4.4-30.1,11.1H149.5z"/>
	</g>
	<path class="st4" d="M100.2,79.5c7.3-3.1,13.3-7.5,20.2-15.8c8.2-9.9,21.1-10.6,21.1-10.6c-24-10-36.5,7-42,18.7
		c-1-4.8-4.9-10.5-15.7-15.4C60.6,46,47.6,67.6,47.6,67.6c22.1-13.3,43.1,5.7,49,11.8c-0.4,1.2-0.5,1.9-0.5,1.9
		c0.6-0.2,1.1-0.4,1.7-0.6c0.4,0.4,0.5,0.6,0.5,0.6s0.2-0.4,0.5-1c0.2-0.1,0.4-0.2,0.6-0.2c4.9,7,10.1,11.8,20.1,16.5
		c10.3,4.8,13.9,15.5,13.9,15.5C137.2,82.6,107,79.8,100.2,79.5z"/>
	<path class="st5" d="M101.7,76.9c-0.9-0.8-2.1-2-3.8-3.1c3.5-3.4,6.2-7.4,8.7-13.8c3.4-8.6,12.1-11.9,12.1-11.9
		C99.5,46.4,95,62,94,71.1c-8.5-5.2-21.4-9.2-31.7,3.6c0,0,8.4-3.9,16.9-0.5c2.1,0.9,4.3,1.7,6.4,2.2c-12.2,0.7-26.8,6.1-29.6,27.1
		c0,0,7.1-10.7,19.8-12.9c11.5-2,18.5-5.3,25.4-10.7c30.5-2.6,46,18,46,18C132.7,59.9,110.8,70.3,101.7,76.9z"/>
	<ellipse class="st1" cx="81.9" cy="89.4" rx="5.3" ry="6.4"/>
	<ellipse class="st1" cx="103.3" cy="74.8" rx="5.3" ry="6.4"/>
	<ellipse class="st1" cx="116.3" cy="95.7" rx="5.3" ry="6.4"/>
</g>
</svg>
