<?xml version="1.0" encoding="utf-8"?>
<!-- Generator: Adobe Illustrator 21.1.0, SVG Export Plug-In . SVG Version: 6.00 Build 0)  -->
<svg version="1.1" id="Layer_1" xmlns="http://www.w3.org/2000/svg" xmlns:xlink="http://www.w3.org/1999/xlink" x="0px" y="0px"
	 viewBox="0 0 200 200" style="enable-background:new 0 0 200 200;" xml:space="preserve">
<style type="text/css">
	.st0{fill:#13487D;}
	.st1{fill:#DAEDFA;}
	.st2{fill:#FFFFFF;}
	.st3{fill:#2899D5;}
	.st4{fill:#4C98CB;}
</style>
<rect x="0" y="0.4" class="st0" width="200" height="200"/>
<g>
	<path class="st1" d="M144.6,121h-2.5v-15.7c0-4.6-3-8.4-6.7-8.4h-2.8V81c0-4.6-2.3-8.4-5.2-8.4h-25.6c3.8-3.6,11.5-8.8,12.3-18.4
		c0.4-4-3.3-7.3-7.3-7.3c-3.2,0-5.8,2-6.9,4.8c-1.1-2.8-3.7-4.8-6.9-4.8c-4,0-7.3,3.3-7.3,7.3c0,9.9,8.4,14.9,12.3,18.4H72.6
		c-2.9,0-5.2,3.7-5.2,8.4v15.9h-2.8c-3.6,0-6.7,3.7-6.7,8.4V121h-2.5c-4.6,0-8.4,3.7-8.4,8.4v16c0,4.6,3.7,8.4,8.4,8.4h89.2
		c4.6,0,8.4-3.7,8.4-8.4v-16.1C153,124.7,149.2,121,144.6,121z M91.5,57c0-2.4,2-4.4,4.4-4.4c1.9,0,3.4,1.1,4.1,2.9
		c0.7-1.6,2.2-2.9,4.1-2.9c2.4,0,4.6,2,4.4,4.4c-0.7,7-7.4,10-8.5,12.3C99.4,67.2,91.5,64.3,91.5,57z"/>
	<g>
		<path class="st2" d="M152.9,128.3c-0.1-0.5-0.2-0.9-0.3-1.3c-0.7,1.6-2.3,2.9-4.2,2.9c-2.1,0-3.9-1.4-4.4-3.4v-0.2
			c-0.5,2-2.3,3.4-4.4,3.4c-2.1,0-3.9-1.4-4.4-3.4v0.1c-0.5,1.9-2.3,3.3-4.4,3.3c-2.1,0-3.9-1.4-4.4-3.4v-0.1
			c-0.5,2-2.3,3.4-4.4,3.4s-3.9-1.4-4.4-3.4c0,0.1,0,0.1,0,0.2c-0.6,1.9-2.3,3.3-4.4,3.3s-3.9-1.4-4.4-3.4v-0.1
			c-0.5,2-2.3,3.4-4.4,3.4s-3.9-1.4-4.4-3.4v0.1c-0.5,1.9-2.3,3.3-4.4,3.3s-3.9-1.4-4.4-3.4v-0.1c-0.5,2-2.3,3.4-4.4,3.4
			s-3.9-1.4-4.4-3.4c0,0,0,0,0,0.1l0,0c-0.5,2-2.3,3.4-4.4,3.4s-3.9-1.4-4.4-3.4v-0.1c-0.5,2-2.3,3.4-4.4,3.4s-3.9-1.4-4.4-3.4v0.1
			c-0.5,1.9-2.3,3.3-4.4,3.3s-3.9-1.4-4.4-3.4V126c-0.5,2-2.3,3.4-4.4,3.4c-1.9,0-3.5-1.1-4.2-2.8c-0.1,0.4-0.2,0.9-0.3,1.3
			c0.4,2.1,2.2,3.7,4.5,3.7c2.1,0,3.9-1.4,4.4-3.4c0.5,2,2.3,3.4,4.4,3.4c2.1,0,3.9-1.4,4.4-3.4c0.5,1.9,2.3,3.4,4.4,3.4
			s3.9-1.4,4.4-3.4c0.5,2,2.3,3.4,4.4,3.4s3.9-1.5,4.4-3.4c0.5,2,2.3,3.4,4.4,3.4s3.9-1.4,4.4-3.4c0.5,2,2.3,3.4,4.4,3.4
			s3.9-1.4,4.4-3.4c0.5,1.9,2.3,3.4,4.4,3.4s3.9-1.4,4.4-3.4c0.5,2,2.3,3.4,4.4,3.4s3.9-1.4,4.4-3.4c0.5,1.9,2.3,3.3,4.4,3.3
			s3.9-1.4,4.4-3.4c0.5,2,2.3,3.4,4.4,3.4s3.9-1.4,4.4-3.4c0.5,1.9,2.3,3.4,4.4,3.4c2.1,0,3.9-1.4,4.4-3.4c0.5,2,2.3,3.4,4.4,3.4
			C150.7,132.1,152.5,130.4,152.9,128.3z"/>
		<path class="st2" d="M142.2,105.4c-0.8,0.5-1.6,0.8-2.5,0.8c-2.1,0-3.9-1.4-4.4-3.4v0.1c-0.5,1.9-2.3,3.3-4.4,3.3
			c-2.1,0-3.9-1.4-4.4-3.4v-0.1c-0.5,2-2.3,3.4-4.4,3.4s-3.9-1.4-4.4-3.4c0,0.1,0,0.1,0,0.2c-0.6,1.9-2.3,3.3-4.4,3.3
			s-3.9-1.4-4.4-3.4v-0.1c-0.5,2-2.3,3.4-4.4,3.4s-3.9-1.4-4.4-3.4v0.1c-0.5,1.9-2.3,3.3-4.4,3.3s-3.9-1.4-4.4-3.4v-0.1
			c-0.5,2-2.3,3.4-4.4,3.4s-3.9-1.4-4.4-3.4v0.1l0,0c-0.5,2-2.3,3.4-4.4,3.4s-3.9-1.4-4.4-3.4v-0.1c-0.6,2.2-2.3,3.6-4.5,3.6
			c-2.1,0-3.9-1.4-4.4-3.4v0.1c-0.5,1.9-2.3,3.3-4.4,3.3c-1,0-1.8-0.3-2.5-0.8v2.2c0.8,0.5,1.6,0.8,2.5,0.8c2.1,0,3.9-1.4,4.4-3.4
			c0.5,1.9,2.3,3.4,4.4,3.4s3.9-1.4,4.4-3.4c0.5,2,2.3,3.4,4.4,3.4s3.9-1.5,4.4-3.4c0.5,2,2.3,3.4,4.4,3.4s3.9-1.4,4.4-3.4
			c0.5,2,2.3,3.4,4.4,3.4s3.9-1.4,4.4-3.4c0.5,1.9,2.3,3.4,4.4,3.4s3.9-1.4,4.4-3.4c0.5,2,2.3,3.4,4.4,3.4s3.9-1.4,4.4-3.4
			c0.5,1.9,2.3,3.3,4.4,3.3s3.9-1.4,4.4-3.4c0.5,2,2.3,3.4,4.4,3.4c2.1,0,3.9-1.4,4.4-3.4c0.5,1.9,2.3,3.4,4.4,3.4
			c1,0,1.8-0.3,2.5-0.8L142.2,105.4L142.2,105.4z"/>
		<path class="st2" d="M132.7,81c0-0.4,0-0.7,0-1.1c-0.6,0.3-1.1,0.4-1.8,0.4c-2.1,0-3.9-1.4-4.4-3.4v-0.1c-0.5,2-2.3,3.4-4.4,3.4
			s-3.9-1.4-4.4-3.4c0,0.1,0,0.1,0,0.2c-0.6,1.9-2.3,3.3-4.4,3.3s-3.9-1.4-4.4-3.4v-0.1c-0.5,2-2.3,3.4-4.4,3.4s-3.9-1.4-4.4-3.4
			v0.1c-0.5,1.9-2.3,3.3-4.4,3.3s-3.9-1.4-4.4-3.4v-0.1c-0.5,2-2.3,3.4-4.4,3.4s-3.9-1.4-4.4-3.4c0,0,0,0,0,0.1l0,0
			c-0.5,2-2.3,3.4-4.4,3.4s-3.9-1.4-4.4-3.4v-0.1c-0.6,2.2-2.3,3.6-4.5,3.6c-0.7,0-1.2-0.2-1.8-0.4c0,0.4-0.1,0.8-0.1,1.1v1.1
			c0.6,0.3,1.1,0.4,1.8,0.4c2.1,0,3.9-1.4,4.4-3.4c0.5,2,2.3,3.4,4.4,3.4s3.9-1.5,4.4-3.4c0.5,2,2.3,3.4,4.4,3.4s3.9-1.4,4.4-3.4
			c0.5,2,2.3,3.4,4.4,3.4s3.9-1.4,4.4-3.4c0.5,1.9,2.3,3.4,4.4,3.4s3.9-1.4,4.4-3.4c0.5,2,2.3,3.4,4.4,3.4s3.9-1.4,4.4-3.4
			c0.5,1.9,2.3,3.3,4.4,3.3s3.9-1.4,4.4-3.4c0.5,2,2.3,3.4,4.4,3.4c0.7,0,1.2-0.2,1.8-0.4v-1.1h0.2V81z"/>
	</g>
	<g>
		<rect x="67.4" y="94.2" class="st3" width="65.3" height="2.7"/>
		<rect x="57.9" y="118.3" class="st3" width="84.3" height="2.7"/>
		<path class="st4" d="M49.3,150.7v0.3c1.5,1.7,3.7,2.8,6.2,2.8h89.2c2.6,0,5-1.2,6.5-3.1C151.2,150.7,49.3,150.7,49.3,150.7z"/>
	</g>
</g>
</svg>
