<?xml version="1.0" encoding="utf-8"?>
<!-- Generator: Adobe Illustrator 20.1.0, SVG Export Plug-In . SVG Version: 6.00 Build 0)  -->
<svg version="1.1" id="Layer_1" xmlns="http://www.w3.org/2000/svg" xmlns:xlink="http://www.w3.org/1999/xlink" x="0px" y="0px"
	 viewBox="0 0 40 40" style="enable-background:new 0 0 40 40;" xml:space="preserve">
<style type="text/css">
	.st0{opacity:0.6;fill:#00467E;enable-background:new    ;}
</style>
<title>Asset 10</title>
<g id="Layer_2">
	<g id="content_header">
		<path class="st0" d="M27.3,11.6H12.7c-0.8,0-1.4,0.7-1.4,1.4v10.1c0,0.8,0.7,1.4,1.4,1.4h14.5c0.8,0,1.4-0.7,1.4-1.4V13
			C28.7,12.2,28.1,11.6,27.3,11.6z M14.7,20c-1,0-1.8-0.8-1.8-1.8s0.8-1.8,1.8-1.8s1.8,0.8,1.8,1.8S15.7,20,14.7,20z M19.9,20
			c-1,0-1.8-0.8-1.8-1.8s0.8-1.8,1.8-1.8s1.8,0.8,1.8,1.8S21,20,19.9,20z M25.2,20c-1,0-1.8-0.8-1.8-1.8s0.8-1.8,1.8-1.8
			s1.8,0.8,1.8,1.8S26.2,20,25.2,20C25.2,20,25.2,20,25.2,20z"/>
		<path class="st0" d="M20,0C9,0,0,9,0,20s9,20,20,20s20-9,20-20S31,0,20,0C20,0,20,0,20,0z M30.9,23.2c0,2-1.6,3.7-3.7,3.7H17.1
			C17,31,9.9,30.6,9.9,30.6c3.1-1,2.9-3.1,2.7-3.8c-2-0.1-3.6-1.7-3.6-3.7V13c0-2,1.6-3.7,3.7-3.7h14.5c2,0,3.7,1.6,3.7,3.7
			L30.9,23.2z"/>
	</g>
</g>
</svg>
