<?xml version="1.0" encoding="utf-8"?>
<!-- Generator: Adobe Illustrator 20.1.0, SVG Export Plug-In . SVG Version: 6.00 Build 0)  -->
<svg version="1.1" id="Layer_1" xmlns="http://www.w3.org/2000/svg" xmlns:xlink="http://www.w3.org/1999/xlink" x="0px" y="0px"
	 viewBox="0 0 42 40" style="enable-background:new 0 0 42 40;" xml:space="preserve">
<style type="text/css">
	.st0{opacity:0.39;}
	.st1{fill:#2C2D2C;}
</style>
<title>Asset 3</title>
<g id="Layer_2">
	<g id="content_header">
		<g class="st0">
			<path class="st1" d="M26.7,26.1c-1.8-0.5-3.6-0.7-5.5-0.5c-1.8-0.1-3.7,0-5.4,0.5c-0.1,0.3,2.2,0.9,5.4,0.9S26.8,26.3,26.7,26.1z
				"/>
			<path class="st1" d="M3.7,26.9c0.9,0,1.4-0.2,1.3-0.4c-0.4-0.5-1-0.9-1.6-1c-0.5,0-1,0-1.5,0.1c-0.2,0.1-0.3,0.5-0.3,0.6
				c0,0.1,0.1,0.3,0.1,0.4C2.3,26.9,3,27,3.7,26.9z"/>
			<path class="st1" d="M40.1,25.7c-0.4-0.1-0.8-0.2-1.2-0.1c-0.4,0-0.8,0.1-1,0.5c-0.1,0.4,0.1,0.8,0.5,0.9c0.1,0,0.1,0,0.2,0
				c0.5,0,1,0,1.4-0.1c0.2-0.1,0.3-0.5,0.3-0.6S40.2,25.8,40.1,25.7z"/>
			<path class="st1" d="M40.8,22.7c-0.1-0.1-0.3-0.1-0.4-0.1c-0.1,0-0.2-0.7-0.2-1.6c0-0.7,0-1.4-0.2-2.1c-1.4-0.8-2.8-1.4-4.3-1.8
				c-2.3-0.8-4.4-1.8-6.4-3.1c-1.4-1.1-2.9-2-3.1-2.2c-2-0.2-4-0.2-6-0.2c-2.9,0-5.3,0-5.5,0s-2,1.1-3.7,2.1
				c-1.5,0.9-3.2,1.5-4.9,1.7c-0.9,0-1.7,0.1-2.6,0.3c-0.3,0.1-0.6,1.9-0.6,3.1S2.5,21,2.3,21c-0.3,0-0.6,0.1-0.9,0.2
				C1.2,21.3,1,22.4,1,23c0,0.4,0,0.9,0.1,1.3c0.6,0.2,1.2,0.2,1.8,0.2h2.2c0.4,0,0.8,0.3,0.9,0.7l0.1,0.3C7.1,27.9,9.7,29,12,28
				c1.1-0.5,2-1.4,2.5-2.5l0.1-0.3c0.1-0.4,0.4-0.7,0.8-0.7H27c0.4,0,0.8,0.3,0.9,0.7l0.1,0.3C29,27.9,31.6,29,34,28
				c1.1-0.5,2-1.4,2.5-2.5l0.1-0.3c0.1-0.4,0.5-0.7,0.9-0.7h1.8c0.5,0,1,0,1.4-0.1c0.1,0,0.3-0.6,0.3-0.9S40.9,22.7,40.8,22.7z
				 M24.5,13.5c0.1,0,1,0.8,2,1.6c1,0.8,1.9,1.5,1.9,1.6v0.1c0,0-2.1,0-4.6,0s-4.3-0.8-4-1.7c0.4-1,1.3-1.6,2.4-1.7
				C23,13.4,23.8,13.4,24.5,13.5z M12.6,15.7c0.4-0.5,0.9-0.9,1.4-1.3c0.5-0.3,1-0.5,1.4-0.8c0.7-0.1,1.3-0.2,2-0.2
				c0.5,0,0.7,0.8,0.4,1.7c-0.4,1-1.3,1.7-2.4,1.7c-0.9,0-1.8-0.1-2.7-0.3l-0.1-0.4L12.6,15.7z M4.6,20.7c-0.4,0-0.7-0.4-0.7-1
				c0-0.6,0.8-0.7,1.8-0.3l0.2,0.5L6,20.3c-0.1,0.2-0.2,0.3-0.4,0.4H4.6z M11.4,25.5c-0.9,0.6-2.2,0.3-2.8-0.6s-0.3-2.2,0.6-2.8
				c0.9-0.6,2.2-0.3,2.8,0.6c0.3,0.5,0.4,1.2,0.2,1.8C12.1,24.9,11.8,25.3,11.4,25.5z M21.3,18.8c0,0.2-0.5,0.3-1.1,0.3
				s-1.1-0.1-1.1-0.3c0-0.2,0.5-0.3,1.1-0.3S21.3,18.6,21.3,18.8L21.3,18.8z M33.4,25.5c-0.9,0.6-2.2,0.3-2.8-0.6
				c-0.6-0.9-0.3-2.2,0.6-2.8c0.9-0.6,2.2-0.3,2.8,0.6c0.3,0.5,0.4,1.2,0.2,1.8C34,24.9,33.8,25.3,33.4,25.5z"/>
		</g>
	</g>
</g>
</svg>
