<?xml version="1.0" encoding="utf-8"?>
<!-- Generator: Adobe Illustrator 20.1.0, SVG Export Plug-In . SVG Version: 6.00 Build 0)  -->
<svg version="1.1" id="Layer_1" xmlns="http://www.w3.org/2000/svg" xmlns:xlink="http://www.w3.org/1999/xlink" x="0px" y="0px"
	 viewBox="0 0 40 40" style="enable-background:new 0 0 40 40;" xml:space="preserve">
<style type="text/css">
	.st0{opacity:0.6;fill:#00467E;enable-background:new    ;}
	.st1{fill:#FFFFFF;}
	.st2{clip-path:url(#SVGID_2_);}
	.st3{clip-path:url(#SVGID_4_);}
	.st4{clip-path:url(#SVGID_6_);}
	.st5{clip-path:url(#SVGID_8_);}
	.st6{clip-path:url(#SVGID_10_);}
	.st7{clip-path:url(#SVGID_12_);}
</style>
<title>Asset 9</title>
<g id="Layer_2">
	<g id="content_header">
		<path class="st0" d="M20,0C8.9,0,0,9,0,20s9,20,20,20c11,0,20-9,20-20C40,8.9,31.1,0,20,0C20,0,20,0,20,0z"/>
		<g id="_Clip_Group_">
			<path id="_Clipping_Path_7" class="st1" d="M10.7,18.5c0,0.4,0.7,0.7,0.7,0.7l15,6.6c0,0-8.9-8-11.7-11.1
				c-0.2-0.2-0.4-0.3-0.6-0.2C12.2,14.9,10.7,16.6,10.7,18.5"/>
			<g>
				<defs>
					<path id="SVGID_1_" d="M10.7,18.5c0,0.4,0.7,0.7,0.7,0.7l15,6.6c0,0-8.9-8-11.7-11.1c-0.2-0.2-0.4-0.3-0.6-0.2
						C12.2,14.9,10.7,16.6,10.7,18.5"/>
				</defs>
				<clipPath id="SVGID_2_">
					<use xlink:href="#SVGID_1_"  style="overflow:visible;"/>
				</clipPath>
				<g class="st2">
					<polygon id="_Path_" class="st1" points="10.5,13.9 26.6,14.5 26.4,26.4 10.3,25.8 					"/>
				</g>
			</g>
		</g>
		<g id="_Clip_Group_2">
			<polygon id="_Clipping_Path_8" class="st1" points="25.1,26.6 25.1,26.6 25.1,26.5 			"/>
			<g>
				<defs>
					<polygon id="SVGID_3_" points="25.1,26.6 25.1,26.6 25.1,26.5 					"/>
				</defs>
				<clipPath id="SVGID_4_">
					<use xlink:href="#SVGID_3_"  style="overflow:visible;"/>
				</clipPath>
				<g class="st3">
					<rect id="_Path_2" x="25.1" y="26.5" class="st1" width="0.1" height="0"/>
				</g>
			</g>
		</g>
		<g id="_Clip_Group_3">
			<path id="_Clipping_Path_9" class="st1" d="M26.4,10.2l1.1,14.6c0,0,1.1-10.8,1.6-14.3c0-0.6-0.8-1-1.5-1S26.4,9.7,26.4,10.2"/>
			<g>
				<defs>
					<path id="SVGID_5_" d="M26.4,10.2l1.1,14.6c0,0,1.1-10.8,1.6-14.3c0-0.6-0.8-1-1.5-1S26.4,9.7,26.4,10.2"/>
				</defs>
				<clipPath id="SVGID_6_">
					<use xlink:href="#SVGID_5_"  style="overflow:visible;"/>
				</clipPath>
				<g class="st4">
					<polygon id="_Path_3" class="st1" points="27.5,7.5 34.5,15.4 28.1,26.7 21,18.8 					"/>
				</g>
			</g>
		</g>
		<g id="_Clip_Group_4">
			<path id="_Clipping_Path_10" class="st1" d="M21.6,10.5c0.1,0.8,0.3,1.5,0.6,2.2c2,5.1,4.8,12.2,4.8,12.2s-1.9-11.7-2.6-14.8
				c-0.1-0.5-0.6-0.8-1.2-0.8c-0.6,0-1.6,0.4-1.7,1"/>
			<g>
				<defs>
					<path id="SVGID_7_" d="M21.6,10.5c0.1,0.8,0.3,1.5,0.6,2.2c2,5.1,4.8,12.2,4.8,12.2s-1.9-11.7-2.6-14.8
						c-0.1-0.5-0.6-0.8-1.2-0.8c-0.6,0-1.6,0.4-1.7,1"/>
				</defs>
				<clipPath id="SVGID_8_">
					<use xlink:href="#SVGID_7_"  style="overflow:visible;"/>
				</clipPath>
				<g class="st5">
					<polygon id="_Path_4" class="st1" points="21.7,8.5 28.4,9.6 27,25.7 20.3,24.6 					"/>
				</g>
			</g>
		</g>
		<g id="_Clip_Group_5">
			<path id="_Clipping_Path_11" class="st1" d="M6.4,26.1c0,0.2,0.2,0.4,0.5,0.4h19.2c0,0-12.2-4.2-16.4-5.5H9.3
				C7.9,21,5.8,23.4,6.4,26.1"/>
			<g>
				<defs>
					<path id="SVGID_9_" d="M6.4,26.1c0,0.2,0.2,0.4,0.5,0.4h19.2c0,0-12.2-4.2-16.4-5.5H9.3C7.9,21,5.8,23.4,6.4,26.1"/>
				</defs>
				<clipPath id="SVGID_10_">
					<use xlink:href="#SVGID_9_"  style="overflow:visible;"/>
				</clipPath>
				<g class="st6">
					<rect id="_Path_5" x="5.8" y="21" class="st1" width="20.3" height="5.6"/>
				</g>
			</g>
		</g>
		<g id="_Clip_Group_6">
			<path id="_Clipping_Path_12" class="st1" d="M16.2,13.6c0.5,1,10.5,11.7,10.5,11.7s-5.2-10.5-7.2-13.7c-0.2-0.3-0.6-0.5-1-0.5
				C17.4,11,15.8,12.6,16.2,13.6"/>
			<g>
				<defs>
					<path id="SVGID_11_" d="M16.2,13.6c0.5,1,10.5,11.7,10.5,11.7s-5.2-10.5-7.2-13.7c-0.2-0.3-0.6-0.5-1-0.5
						C17.4,11,15.8,12.6,16.2,13.6"/>
				</defs>
				<clipPath id="SVGID_12_">
					<use xlink:href="#SVGID_11_"  style="overflow:visible;"/>
				</clipPath>
				<g class="st7">
					<polygon id="_Path_6" class="st1" points="15.7,10.5 26.9,11 26.6,25.7 15.4,25.3 					"/>
				</g>
			</g>
		</g>
	</g>
</g>
</svg>
