<?xml version="1.0" encoding="utf-8"?>
<!-- Generator: Adobe Illustrator 20.1.0, SVG Export Plug-In . SVG Version: 6.00 Build 0)  -->
<svg version="1.1" id="Layer_1" xmlns="http://www.w3.org/2000/svg" xmlns:xlink="http://www.w3.org/1999/xlink" x="0px" y="0px"
	 viewBox="0 0 42 40" style="enable-background:new 0 0 42 40;" xml:space="preserve">
<style type="text/css">
	.st0{opacity:0.6;fill:#00467E;enable-background:new    ;}
</style>
<title>Asset 2</title>
<g id="Layer_2">
	<g id="content_header">
		<path class="st0" d="M21,0C9.9,0,1,9,1,20s9,20,20,20s20-9,20-20l0,0C41,9,32,0,21,0z M23.8,28c-0.2,0.1-0.5,0.1-0.7,0l-4.5-1.5
			l0.3-0.7c0.1-0.2,0.3-0.3,0.5-0.4l0.3-0.1l1.3,0.5l0.5,0.2c0.1,0,0.3,0,0.4-0.2c0.3-0.5,0.9-0.8,1.6-0.7c0.1,0,0.3,0,0.4-0.2
			l3.5-10.1c0-0.1,0-0.3-0.2-0.4c-0.5-0.3-0.8-0.9-0.7-1.6c0-0.1,0-0.3-0.2-0.4l-0.6-0.3l-2.7-0.9c-0.1,0-0.3,0-0.4,0.2
			c-0.3,0.5-0.9,0.8-1.6,0.7c-0.1,0-0.3,0-0.4,0.2l-2.5,7l1.4-0.2l1.5-0.2c0.7-0.1,1.3,0.4,1.3,1.1c0,0,0,0,0,0v0.5l0.1,1.4
			c0,0.4-0.2,0.7-0.6,0.8l-3.4,0.9h-0.2c-0.2,0-0.3,0.1-0.4,0.3v0.1l-0.8,1.8V26c-0.1,0.2-0.3,0.3-0.5,0.4l-1.9,0.3L12.4,27
			c-0.2,0-0.4,0.1-0.7,0.2l-2.6,1.3c-0.2,0.1-0.3,0-0.4-0.1c0,0,0,0,0,0l-2.2-5.3c-0.1-0.2,0-0.4,0.2-0.5l2.8-1.2
			c0.2-0.1,0.4-0.2,0.5-0.4l6.5-7.1c0.1-0.2,0.4-0.3,0.6-0.2h1.3h0.4l1.5-4.1c0.2-0.5,0.8-0.8,1.3-0.6l5.3,1.9l2.1,0.7
			c0.5,0.2,0.8,0.8,0.6,1.3l-5.1,14.5C24.3,27.7,24.1,27.9,23.8,28z M21.2,17.4L21.2,17.4c-0.1-0.1-0.1-0.2,0-0.3l0.3-0.6
			c0-0.1,0.1-0.1,0.2-0.1c0,0,0.1,0,0.1,0l0.2,0.1c0.2,0.2,0.5,0.3,0.8,0.4H23c0.1,0,0.3,0,0.4-0.2c0-0.2,0-0.3-0.5-0.7l-0.3-0.1
			c-0.5-0.3-0.8-0.9-0.7-1.5c0.2-0.7,0.8-1.1,1.5-1.1l0,0l0.1-0.5c0-0.1,0.2-0.2,0.3-0.2l0.5,0.1c0.1,0,0.2,0.2,0.2,0.3l-0.1,0.4
			l0.2,0.1c0.2,0.1,0.4,0.2,0.5,0.3c0.1,0.1,0.1,0.2,0,0.3l-0.3,0.5c-0.1,0.1-0.2,0.1-0.3,0c0,0,0,0,0,0c-0.2-0.2-0.5-0.3-0.7-0.4
			l0,0h-0.2c-0.1,0-0.3,0.1-0.3,0.2c0,0.1,0,0.2,0.2,0.3l0.4,0.3c0.8,0.5,1.1,1,0.9,1.8c-0.2,0.7-0.9,1.2-1.6,1.1L23,18.6
			c0,0.1-0.1,0.2-0.2,0.2l0,0l-0.5,0c-0.1,0-0.2-0.2-0.2-0.3l0.1-0.4C21.8,17.9,21.5,17.7,21.2,17.4L21.2,17.4z M26.8,26l5-14.1
			l3.3,2.9c0.4,0.4,0.5,1,0.1,1.4L26.8,26z"/>
	</g>
</g>
</svg>
