<?xml version="1.0" encoding="utf-8"?>
<!-- Generator: Adobe Illustrator 20.1.0, SVG Export Plug-In . SVG Version: 6.00 Build 0)  -->
<svg version="1.1" id="Layer_1" xmlns="http://www.w3.org/2000/svg" xmlns:xlink="http://www.w3.org/1999/xlink" x="0px" y="0px"
	 viewBox="0 0 27 27" style="enable-background:new 0 0 27 27;" xml:space="preserve">
<style type="text/css">
	.st0{opacity:0.6;fill:#00467E;}
	.st1{fill:#FFFFFF;}
</style>
<g>
	<path class="st0" d="M25.2,25.8H1.8C1.4,25.8,1,25.4,1,25V1.7c0-0.5,0.4-0.8,0.8-0.8h23.3c0.5,0,0.8,0.4,0.8,0.8V25
		C26,25.4,25.6,25.8,25.2,25.8z"/>
	<path id="XMLID_4_" class="st1" d="M15,26V16h-4v-3h4V8.3c0-3.2,2-5,5-5c1.4,0,3,0.1,3,0.1V8h-2.1C19.3,8,19,7.6,19,8.7V13h4.9
		l-0.5,3H19v10H15z"/>
</g>
<g>
</g>
<g>
</g>
<g>
</g>
<g>
</g>
<g>
</g>
<g>
</g>
<g>
</g>
<g>
</g>
<g>
</g>
<g>
</g>
<g>
</g>
<g>
</g>
<g>
</g>
<g>
</g>
<g>
</g>
</svg>
