<?xml version="1.0" encoding="utf-8"?>
<!-- Generator: Adobe Illustrator 20.1.0, SVG Export Plug-In . SVG Version: 6.00 Build 0)  -->
<svg version="1.1" id="Layer_1" xmlns="http://www.w3.org/2000/svg" xmlns:xlink="http://www.w3.org/1999/xlink" x="0px" y="0px"
	 viewBox="0 0 40 40" style="enable-background:new 0 0 40 40;" xml:space="preserve">
<style type="text/css">
	.st0{opacity:0.6;fill:#00467E;enable-background:new    ;}
</style>
<title>Asset 11</title>
<g id="Layer_2">
	<g id="content_header">
		<path class="st0" d="M19.6,24l-0.3,1.6h1.4L20.4,24c0.4-0.2,0.5-0.7,0.3-1c-0.2-0.4-0.7-0.5-1-0.3c-0.4,0.2-0.5,0.7-0.3,1
			C19.4,23.9,19.5,23.9,19.6,24z"/>
		<path class="st0" d="M22.3,12h0.9c0.2,0,0.4,0.2,0.4,0.4v0.9c0,0.2-0.2,0.4-0.4,0.4h-0.9c-0.2,0-0.4-0.2-0.4-0.4v-0.9
			C21.9,12.1,22.1,12,22.3,12z"/>
		<path class="st0" d="M12.7,12h6.6c0.2,0,0.4,0.2,0.4,0.4v0.9c0,0.2-0.2,0.4-0.4,0.4h-6.6c-0.2,0-0.4-0.2-0.4-0.4v-0.9
			C12.4,12.1,12.5,12,12.7,12z"/>
		<path class="st0" d="M20,0C9,0,0,9,0,20s9,20,20,20s20-9,20-20S31,0,20,0C20,0,20,0,20,0z M29.9,26.7c0,1.8-1.4,3.2-3.2,3.2H13.3
			c-1.8,0-3.2-1.4-3.2-3.2V13.3c0-1.8,1.4-3.2,3.2-3.2h13.4c1.8,0,3.2,1.4,3.2,3.2L29.9,26.7z"/>
		<path class="st0" d="M11.8,26.7c0,0.8,0.7,1.5,1.5,1.5h0h13.4c0.8,0,1.5-0.7,1.5-1.5v0V15.6H11.8V26.7z M17.3,19.8
			c0-1.5,1.2-2.7,2.7-2.7c1.5,0,2.7,1.2,2.7,2.7v0.6h-1.2v-0.6c-0.1-0.9-0.9-1.5-1.7-1.4c-0.7,0.1-1.3,0.7-1.4,1.4v0.6h-1.3
			L17.3,19.8z M16.4,21.7c0-0.3,0.3-0.6,0.6-0.6H23c0.3,0,0.6,0.3,0.6,0.6v4.5c0,0.3-0.3,0.6-0.6,0.6h-6c-0.3,0-0.6-0.3-0.5-0.6
			L16.4,21.7z"/>
		<path class="st0" d="M26,12h0.9c0.2,0,0.4,0.2,0.4,0.4v0.9c0,0.2-0.2,0.4-0.4,0.4H26c-0.2,0-0.4-0.2-0.4-0.4v-0.9
			C25.6,12.1,25.8,12,26,12z"/>
	</g>
</g>
</svg>
