<svg id="Layer_1" data-name="Layer 1" xmlns="http://www.w3.org/2000/svg" viewBox="0 0 40 40"><defs><style>.cls-1{fill:#13477c;opacity:0.6;}.cls-2{fill:#fff;}</style></defs><title>Artboard 1</title><circle class="cls-1" cx="20.06" cy="20.09" r="20"/><path class="cls-2" d="M20.62,18.13c3.24,0,5.87-3.07,5.87-6.85,0-5-2.63-6.85-5.87-6.85s-5.87,1.82-5.87,6.85C14.76,15.07,17.38,18.13,20.62,18.13Z"/><path class="cls-2" d="M31.47,22a17.12,17.12,0,0,0-6.1-3.45l-.53-.1c-.3,1-2.2,1.86-4.5,1.86s-4.07-.75-4.47-1.75a9.86,9.86,0,0,0-8,10.12,54.45,54.45,0,0,0,17.65,1.83C22.59,26.08,26.49,21,31.47,22Z"/><path class="cls-2" d="M33.63,24.1a4.74,4.74,0,1,0,0,6.71A4.72,4.72,0,0,0,33.63,24.1Zm-.52,6.18a4,4,0,1,1,0-5.66h0a4,4,0,0,1,0,5.66Z"/><circle class="cls-2" cx="30.28" cy="25.62" r="0.69"/><rect class="cls-2" x="29.65" y="26.84" width="1.27" height="3.13"/></svg>