<?xml version="1.0" encoding="utf-8"?>
<!-- Generator: Adobe Illustrator 20.1.0, SVG Export Plug-In . SVG Version: 6.00 Build 0)  -->
<svg version="1.1" id="Layer_1" xmlns="http://www.w3.org/2000/svg" xmlns:xlink="http://www.w3.org/1999/xlink" x="0px" y="0px"
	 viewBox="0 0 40 40" style="enable-background:new 0 0 40 40;" xml:space="preserve">
<style type="text/css">
	.st0{opacity:0.39;}
	.st1{fill:#2C2D2C;}
</style>
<title>Asset 6</title>
<g id="Layer_2">
	<g id="content_header">
		<g class="st0">
			<path class="st1" d="M34,18.6c-0.2-0.1-0.3-0.2-0.5-0.3l0.1,0.5L34,18.6z"/>
			<path class="st1" d="M6.1,18.4v-0.2l-0.1,0.1L6.1,18.4z"/>
			<path class="st1" d="M15.2,9.4H8.9c-1.1,0.1-2,0.9-2.4,1.9c-0.2,0.4-0.3,0.9-0.3,1.4v0.6c1.3,0.8,1.8,2.5,1,3.8
				c-0.2,0.4-0.6,0.8-1,1v0.1c0.9,0.5,1.6,1.3,2.1,2.1v-6.9h0.6v8.1c0.5,1.2,0.8,2.5,0.7,3.9c0,0.1,0,0.2,0,0.4c0,0,0,0,0,0.1
				c0,0.3-0.1,0.5-0.3,0.7c-0.1,0.1-0.3,0.2-0.5,0.3v7.9l0,0c0.1,0.8,0.8,1.4,1.6,1.3c0.7-0.1,1.2-0.6,1.3-1.3V22.1h0.6v12.7
				c0.1,0.8,0.8,1.4,1.6,1.3c0.7-0.1,1.2-0.6,1.3-1.3l0,0V13.5h0.6v7.7c0,0.6,0.5,1.1,1.1,1.1s1.1-0.5,1.1-1.1v-8.5
				c0-0.5-0.1-1-0.3-1.4C17.3,10.3,16.3,9.6,15.2,9.4z"/>
			<ellipse class="st1" cx="12.1" cy="6.3" rx="2.6" ry="2.6"/>
			<ellipse class="st1" cx="26.4" cy="6.3" rx="2.5" ry="2.5"/>
			<path class="st1" d="M31.3,21.3v-0.1l-2.1-7.5c0-0.1,0-0.2,0.1-0.3c0,0,0,0,0.1,0l0,0c0.1,0,0.2,0.1,0.2,0.2l2.2,7l0,0
				c0.5-0.7,1.1-1.3,1.9-1.8l-0.1-0.5c-0.9-0.7-1.3-1.9-1-3l-1-3.4l0,0c-0.7-1.6-2.4-2.6-4.2-2.4H25c-1.6,0-3.1,1-3.7,2.4l0,0
				l-2.4,7.9c0,0,0,0.1,0,0.1v0.3l0,0c0,0.1,0,0.1,0,0.2c0,0.6,0.5,1.1,1.1,1c0.5,0,0.9-0.3,1.1-0.7v-0.1l2.1-7
				c0.1-0.1,0.2-0.1,0.3-0.1c0.1,0,0.1,0.1,0.1,0.2l-3.2,11.3c-0.1,0.3,0.1,0.6,0.4,0.7c0.1,0,0.1,0,0.2,0h2.3
				c0.1,0,0.2,0.1,0.2,0.2c0,0,0,0,0,0v9.4c0,0.6,0.6,1.1,1.2,1c0,0,0,0,0,0c0.3,0,0.7-0.1,0.9-0.4c0.2-0.2,0.3-0.4,0.2-0.7
				c0-0.1,0-7.7,0-9.3c0-0.1,0.1-0.2,0.2-0.2h0.7c0.1,0,0.2,0.1,0.2,0.2c0,1.6,0,9.2,0,9.3c0,0.2,0.1,0.5,0.2,0.7
				c0.2,0.2,0.6,0.4,0.9,0.3c0.6,0.1,1.2-0.4,1.2-1c0,0,0,0,0,0v-9.3c0-0.1,0.1-0.2,0.2-0.2h0.6C30.2,24.1,30.6,22.6,31.3,21.3z"/>
			<path class="st1" d="M9.3,25.3c0.1-1.5-0.3-2.9-1-4.2c-0.6-1.1-1.5-2.1-2.7-2.6c-0.3,0.2-0.7,0.3-1,0.3c-0.4,0-0.7-0.1-1-0.2
				c-1.1,0.6-2,1.5-2.6,2.6c-0.7,1.3-1.1,2.8-1,4.2c0,0.1,0,0.3,0,0.4l0,0c0,0.4,0.3,0.7,0.7,0.7c0.4,0,0.7-0.3,0.7-0.7l0,0l0,0l0,0
				c0.1-0.9,0.2-1.7,0.4-2.5l0.3-1v4.1c0,0.1,0,0.2,0.1,0.2l0.1,0.1v8.2c0,0.5,0.3,1,0.9,1c0.5,0,1-0.4,1-0.9c0,0,0,0,0-0.1v-6.8
				h0.2l0,0l0.2,0.1H5V35c0,0.5,0.4,1,0.9,1c0.5,0,1-0.4,1-0.9c0,0,0,0,0-0.1v-8.2l0.1-0.1c0.1-0.1,0.1-0.2,0.1-0.2v-4.1l0.3,1
				c0.2,0.8,0.4,1.7,0.4,2.5l0,0l0,0c0,0.4,0.3,0.7,0.7,0.7c0.2,0,0.4-0.1,0.5-0.2c0.1-0.1,0.2-0.3,0.2-0.5l0,0
				C9.3,25.7,9.3,25.5,9.3,25.3z"/>
			<circle class="st1" cx="4.7" cy="15.8" r="2.5"/>
			<path class="st1" d="M39.9,25.7c0.1-1.5-0.3-2.9-1-4.2c-0.6-1.1-1.5-2-2.6-2.6c-0.6,0.3-1.4,0.3-2,0c-1.1,0.5-2,1.4-2.6,2.5
				c-0.7,1.3-1,2.8-1,4.2c0,0.1,0,0.3,0,0.4l0,0c0,0.4,0.3,0.7,0.7,0.7c0.4,0,0.7-0.3,0.7-0.7l0,0l0,0l0,0c0.1-0.9,0.2-1.7,0.4-2.5
				l0.3-1v4.1l0,0l0,0l-0.6,3.1H33V35c0,0.5,0.4,1,0.9,1c0.5,0,1-0.4,1-0.9c0,0,0,0,0-0.1v-5.3h0.8v5.3c0,0.5,0.4,1,0.9,1
				c0.5,0,1-0.4,1-0.9c0,0,0,0,0-0.1v-5.4h0.9l-0.6-3.2v-4.1l0.3,1c0.2,0.8,0.4,1.7,0.4,2.5l0,0l0,0c0,0.4,0.3,0.7,0.7,0.7
				c0.2,0,0.4-0.1,0.5-0.2c0.1-0.1,0.2-0.3,0.2-0.5l0,0C39.9,25.9,39.9,25.8,39.9,25.7z"/>
			<circle class="st1" cx="35.2" cy="16.1" r="2.5"/>
		</g>
	</g>
</g>
</svg>
