<svg id="Layer_1" data-name="Layer 1" xmlns="http://www.w3.org/2000/svg" viewBox="0 0 40 40"><defs><style>.cls-1{fill:#13477c;opacity:0.6;}.cls-2{fill:#fff;}</style></defs><title>Artboard 1</title><circle class="cls-1" cx="19.96" cy="20" r="20"/><path class="cls-2" d="M26.4,11.23H12.62a1.75,1.75,0,1,1,0-3.5H26.4a1.75,1.75,0,1,1,0,3.5ZM12.62,8.84a.64.64,0,1,0,0,1.28H26.4a.64.64,0,1,0,0-1.28Z"/><path class="cls-2" d="M15.34,9.71a.55.55,0,0,1-.55-.55V8.48a.55.55,0,1,1,1.11,0v.67A.55.55,0,0,1,15.34,9.71Z"/><path class="cls-2" d="M19.51,9.71A.55.55,0,0,1,19,9.15V8.48a.55.55,0,1,1,1.11,0v.67A.55.55,0,0,1,19.51,9.71Z"/><path class="cls-2" d="M23.68,9.71a.55.55,0,0,1-.55-.55V8.48a.55.55,0,1,1,1.11,0v.67A.55.55,0,0,1,23.68,9.71Z"/><path class="cls-2" d="M21.41,30.44h-8a2.55,2.55,0,0,1-2.55-2.55V9.48a.55.55,0,0,1,1.11,0v18.4a1.44,1.44,0,0,0,1.44,1.44h8a.55.55,0,0,1,0,1.11Z"/><path class="cls-2" d="M27.6,24a.55.55,0,0,1-.55-.55v-11a.55.55,0,1,1,1.11,0v11A.55.55,0,0,1,27.6,24Z"/><path class="cls-2" d="M25.36,14H13.66a.55.55,0,1,1,0-1.11h11.7a.55.55,0,1,1,0,1.11Z"/><path class="cls-2" d="M24.25,16.42H14.77a.55.55,0,0,1,0-1.11h9.48a.55.55,0,0,1,0,1.11Z"/><path class="cls-2" d="M24.25,18.86H14.77a.55.55,0,0,1,0-1.11h9.48a.55.55,0,0,1,0,1.11Z"/><path class="cls-2" d="M24.25,21.29H14.77a.55.55,0,0,1,0-1.11h9.48a.55.55,0,0,1,0,1.11Z"/><path class="cls-2" d="M20.74,23.72h-6a.55.55,0,0,1,0-1.11h6a.55.55,0,0,1,0,1.11Z"/><path class="cls-2" d="M19.22,26.16H14.77a.55.55,0,1,1,0-1.11h4.45a.55.55,0,1,1,0,1.11Z"/><path class="cls-2" d="M26,33.38a5.27,5.27,0,1,1,5.27-5.27A5.28,5.28,0,0,1,26,33.38Zm0-9.43a4.16,4.16,0,1,0,4.16,4.16A4.17,4.17,0,0,0,26,23.95Z"/><path class="cls-2" d="M25.5,30.73a.55.55,0,0,1-.39-.16l-2.3-2.3a.55.55,0,0,1,.78-.78l1.91,1.91,2.77-2.77a.55.55,0,0,1,.78.78l-3.16,3.16A.55.55,0,0,1,25.5,30.73Z"/></svg>