<?xml version="1.0" encoding="utf-8"?>
<!-- Generator: Adobe Illustrator 20.1.0, SVG Export Plug-In . SVG Version: 6.00 Build 0)  -->
<svg version="1.1" id="Layer_1" xmlns="http://www.w3.org/2000/svg" xmlns:xlink="http://www.w3.org/1999/xlink" x="0px" y="0px"
	 viewBox="0 0 42 40" style="enable-background:new 0 0 42 40;" xml:space="preserve">
<style type="text/css">
	.st0{opacity:0.6;fill:#00467E;enable-background:new    ;}
</style>
<title>Asset 1</title>
<g id="Layer_2">
	<g id="content_header">
		<path class="st0" d="M16.4,16.4c0.5-0.5,0.8-1.2,0.8-2c0-1.6-1.2-2.8-2.7-2.9c0,0,0,0,0,0c-0.8,0-1.5,0.3-2,0.8
			c-0.6,0.5-0.9,1.3-0.8,2.1c0,0.7,0.3,1.5,0.8,2c0.5,0.5,1.3,0.8,2,0.8C15.2,17.2,15.9,16.9,16.4,16.4z"/>
		<path class="st0" d="M27.6,22.8c-0.8,0-1.5,0.3-2,0.8c-0.5,0.5-0.8,1.2-0.8,2c0,1.6,1.3,2.9,2.8,2.9c0,0,0,0,0,0
			c0.8,0,1.5-0.3,2-0.8c0.5-0.5,0.8-1.3,0.8-2c0-1.5-1.2-2.8-2.7-2.8C27.7,22.8,27.6,22.8,27.6,22.8L27.6,22.8z"/>
		<path class="st0" d="M21,0C9.9,0,1,9,1,20s9,20,20,20s20-9,20-20S32,0,21,0C21,0,21,0,21,0z M8.4,14.4c-0.1-3.3,2.5-6,5.8-6.1
			c0.1,0,0.2,0,0.2,0c1.6,0,3.2,0.6,4.3,1.8c1.1,1.1,1.8,2.7,1.7,4.3c0,3.3-2.6,6-6,6c0,0,0,0-0.1,0c-1.6,0-3.2-0.6-4.3-1.8
			C9,17.5,8.4,16,8.4,14.4L8.4,14.4z M14.9,32.4h-3.1L27.1,7.7h3.2L14.9,32.4z M31.8,30c-2.4,2.3-6.2,2.3-8.5,0
			c-2.4-2.3-2.4-6.1-0.1-8.5c1.1-1.2,2.7-1.8,4.4-1.8c3.3,0,6,2.6,6,5.8c0,0,0,0.1,0,0.1c0,1.6-0.6,3.1-1.7,4.2V30z"/>
	</g>
</g>
</svg>
