<?xml version="1.0" encoding="utf-8"?>
<!-- Generator: Adobe Illustrator 21.0.0, SVG Export Plug-In . SVG Version: 6.00 Build 0)  -->
<svg version="1.1" id="Layer_1" xmlns="http://www.w3.org/2000/svg" xmlns:xlink="http://www.w3.org/1999/xlink" x="0px" y="0px"
	 viewBox="0 0 102 19" style="enable-background:new 0 0 102 19;" xml:space="preserve">
<style type="text/css">
	.st0{clip-path:url(#SVGID_2_);fill:url(#SVGID_3_);}
	.st1{clip-path:url(#SVGID_5_);fill:url(#SVGID_6_);}
	.st2{clip-path:url(#SVGID_8_);fill:url(#SVGID_9_);}
	.st3{clip-path:url(#SVGID_11_);fill:url(#SVGID_12_);}
	.st4{clip-path:url(#SVGID_14_);fill:url(#SVGID_15_);}
	.st5{clip-path:url(#SVGID_17_);fill:url(#SVGID_18_);}
	.st6{fill:#003B71;}
	.st7{fill:#6D6E70;}
</style>
<g>
	<defs>
		<path id="SVGID_1_" d="M4,6c0,0.3,0.6,0.4,0.6,0.4l12.8,4c0,0-7.6-4.8-9.9-6.7C7.3,3.6,7.1,3.6,6.9,3.6C5.8,3.6,3.8,4.9,4,6"/>
	</defs>
	<clipPath id="SVGID_2_">
		<use xlink:href="#SVGID_1_"  style="overflow:visible;"/>
	</clipPath>
	
		<linearGradient id="SVGID_3_" gradientUnits="userSpaceOnUse" x1="-66.1195" y1="49.9207" x2="-65.6581" y2="49.9207" gradientTransform="matrix(29.251 0.752 0.752 -29.251 1900.501 1516.7729)">
		<stop  offset="0" style="stop-color:#FAAF3C"/>
		<stop  offset="1" style="stop-color:#EA2429"/>
	</linearGradient>
	<polygon class="st0" points="3.8,3.2 17.6,3.6 17.4,10.8 3.7,10.4 	"/>
</g>
<g>
	<defs>
		<polygon id="SVGID_4_" points="16.3,10.9 16.3,10.9 16.2,10.8 		"/>
	</defs>
	<clipPath id="SVGID_5_">
		<use xlink:href="#SVGID_4_"  style="overflow:visible;"/>
	</clipPath>
	
		<linearGradient id="SVGID_6_" gradientUnits="userSpaceOnUse" x1="225.2936" y1="55.8149" x2="225.7563" y2="55.8149" gradientTransform="matrix(0.1389 0 0 -0.1389 -15.0444 18.6022)">
		<stop  offset="0" style="stop-color:#FAAF3C"/>
		<stop  offset="1" style="stop-color:#EA2429"/>
	</linearGradient>
	<rect x="16.2" y="10.8" class="st1" width="0.1" height="0"/>
</g>
<g>
	<defs>
		<path id="SVGID_7_" d="M17.4,1l0.9,8.8c0,0,1-6.6,1.3-8.7c0.1-0.4-0.7-0.6-1.3-0.6C17.8,0.5,17.3,0.7,17.4,1"/>
	</defs>
	<clipPath id="SVGID_8_">
		<use xlink:href="#SVGID_7_"  style="overflow:visible;"/>
	</clipPath>
	
		<linearGradient id="SVGID_9_" gradientUnits="userSpaceOnUse" x1="-65.6869" y1="51.1798" x2="-65.2256" y2="51.1798" gradientTransform="matrix(12.4158 9.9602 9.9602 -12.4158 321.9371 1292.9231)">
		<stop  offset="0" style="stop-color:#FAAF3C"/>
		<stop  offset="1" style="stop-color:#EA2429"/>
	</linearGradient>
	<polygon class="st2" points="18.3,-0.7 24.3,4.1 18.8,10.9 12.8,6.2 	"/>
</g>
<g>
	<defs>
		<path id="SVGID_10_" d="M13.3,1.1c-0.1,0.2,0.4,1,0.5,1.3c1.7,3.1,4.1,7.3,4.1,7.3s-1.6-7-2.1-8.8c-0.1-0.3-0.5-0.4-1-0.4
			C14.1,0.5,13.4,0.7,13.3,1.1"/>
	</defs>
	<clipPath id="SVGID_11_">
		<use xlink:href="#SVGID_10_"  style="overflow:visible;"/>
	</clipPath>
	
		<linearGradient id="SVGID_12_" gradientUnits="userSpaceOnUse" x1="-64.2571" y1="49.9066" x2="-63.796" y2="49.9066" gradientTransform="matrix(12.0862 1.4806 1.4806 -12.0862 715.6091 703.1315)">
		<stop  offset="0" style="stop-color:#FAAF3C"/>
		<stop  offset="1" style="stop-color:#EA2429"/>
	</linearGradient>
	<polygon class="st3" points="13.4,-0.1 19,0.6 17.9,10.3 12.2,9.7 	"/>
</g>
<g>
	<defs>
		<path id="SVGID_13_" d="M0.4,10.6c0.1,0.3,0.4,0.3,0.4,0.3l16.4,0c0,0-10.5-2.5-14-3.3c-0.1,0-0.2,0-0.3,0
			C1.7,7.5-0.1,8.9,0.4,10.6"/>
	</defs>
	<clipPath id="SVGID_14_">
		<use xlink:href="#SVGID_13_"  style="overflow:visible;"/>
	</clipPath>
	
		<linearGradient id="SVGID_15_" gradientUnits="userSpaceOnUse" x1="-66.3758" y1="49.9672" x2="-65.9145" y2="49.9672" gradientTransform="matrix(36.5359 0 0 -36.5359 2425.3999 1834.7701)">
		<stop  offset="0" style="stop-color:#FAAF3C"/>
		<stop  offset="1" style="stop-color:#EA2429"/>
	</linearGradient>
	<rect x="-0.1" y="7.5" class="st4" width="17.3" height="3.4"/>
</g>
<g>
	<defs>
		<path id="SVGID_16_" d="M8.7,3c0.4,0.6,8.9,7,8.9,7s-4.4-6.3-6.1-8.3c-0.2-0.2-0.5-0.3-0.8-0.3C9.6,1.5,8.3,2.4,8.7,3"/>
	</defs>
	<clipPath id="SVGID_17_">
		<use xlink:href="#SVGID_16_"  style="overflow:visible;"/>
	</clipPath>
	
		<linearGradient id="SVGID_18_" gradientUnits="userSpaceOnUse" x1="-65.4756" y1="49.792" x2="-65.0145" y2="49.792" gradientTransform="matrix(19.8556 0.578 0.578 -19.8556 1279.8112 1032.1353)">
		<stop  offset="0" style="stop-color:#FAAF3C"/>
		<stop  offset="1" style="stop-color:#EA2429"/>
	</linearGradient>
	<polygon class="st5" points="8.3,1.2 17.8,1.5 17.6,10.3 8,10.1 	"/>
</g>
<polygon class="st6" points="22.5,0.9 20.8,0.9 18.6,11.1 25.6,11.1 25.9,9.6 20.7,9.6 "/>
<polygon class="st6" points="27.9,3 26.2,11.1 27.9,11.1 29.6,3 "/>
<path class="st6" d="M33.4,6.7l-0.3,1.4h2.1c-0.3,0.9-0.8,1.8-2.1,1.8c-1.2,0-2-0.8-2-2.2c0-1.7,0.9-3.4,2.6-3.4
	c0.8,0,1.7,0.2,1.8,1.4l0,0.2h1.7l0-0.2c0-1.8-1.3-2.8-3.4-2.8c-2.1,0-4.4,1.5-4.4,4.9c0,2.2,1.4,3.6,3.6,3.6c0.5,0,1.3-0.2,1.9-0.8
	v0.6h1.2l0.9-4.5H33.4z"/>
<polygon class="st6" points="42.9,6.1 39.7,6.1 40.3,3 38.6,3 36.9,11.1 38.6,11.1 39.4,7.6 42.6,7.6 41.9,11.1 43.6,11.1 45.3,3 
	43.6,3 "/>
<polygon class="st6" points="52.5,3 45.8,3 45.5,4.5 48,4.5 46.6,11.1 48.4,11.1 49.7,4.5 52.2,4.5 "/>
<path class="st6" d="M56.7,0.7c-2.4,0-3.8,1.3-3.8,3.2c0,1.9,1.9,2.4,2.8,2.6c1.3,0.3,2.4,0.6,2.4,1.8c0,1.2-1.3,1.6-2.3,1.6
	c-1.5,0-2.4-0.6-2.3-2.2h-1.7c-0.1,2.5,1.5,3.6,3.9,3.6c3.1,0,4.2-1.7,4.2-3.3c0-2.1-1.7-2.5-3.1-2.9c-1.1-0.3-2.1-0.5-2.1-1.5
	c0-1.4,1.5-1.5,2-1.5c1.4,0,2.1,0.5,2.1,1.8h1.7C60.5,1.5,58.8,0.7,56.7,0.7"/>
<polygon class="st6" points="67.8,3 61,3 60.7,4.5 63.2,4.5 61.9,11.1 63.6,11.1 65,4.5 67.4,4.5 "/>
<path class="st6" d="M74.4,5.2c0-1.4-0.9-2.2-2.6-2.2h-3.5l-1.7,8.1h1.7L69,7.9h1.5c0.8,0,1.3,0,1.3,0.7c0,0.3,0,0.5-0.1,0.8
	c0,0.3-0.1,0.6-0.1,0.9c0,0.3,0,0.5,0.1,0.7l0,0.1h1.9l-0.2-0.3c-0.1-0.2-0.1-0.4-0.1-0.6c0-0.3,0-0.5,0.1-0.8
	c0-0.3,0.1-0.5,0.1-0.8c0-0.4-0.1-1-0.5-1.4C73.8,7,74.4,6.3,74.4,5.2 M69.7,4.5h1.8c0.9,0,1.2,0.3,1.2,0.8c0,1.1-1,1.2-1.6,1.2
	h-1.8L69.7,4.5z"/>
<polygon class="st6" points="76.5,7.7 80.5,7.7 80.8,6.2 76.8,6.2 77.1,4.5 81.5,4.5 81.8,3 75.7,3 74.1,11.1 80.1,11.1 80.4,9.6 
	76.1,9.6 "/>
<path class="st6" d="M85.3,3l-4.9,8.1h1.9l1.2-2.1h2.8l0.3,2.1h1.7L87,3H85.3z M86.2,7.7h-1.9l1.5-2.6L86.2,7.7z"/>
<polygon class="st6" points="96.6,3 93.4,8.6 92.6,3 90.4,3 88.7,11.1 90.4,11.1 91.4,5.7 92.3,11.1 93.6,11.1 96.6,5.8 95.5,11.1 
	97.1,11.1 98.8,3 "/>
<path class="st7" d="M12.7,13.4h0.7l0.8,4.5h-0.6l-0.2-1.4h-1.9l-0.8,1.4H10L12.7,13.4z M11.7,16h1.6l-0.3-2.1h0L11.7,16z"/>
<path class="st7" d="M17.4,13.4h1.6c1.1,0,1.7,0.7,1.7,1.7c0,1.7-1,2.8-2.5,2.8h-1.7L17.4,13.4z M17.1,17.4h1c1.3,0,1.9-1.1,1.9-2.2
	c0-0.7-0.2-1.3-1.2-1.3h-1L17.1,17.4z"/>
<polygon class="st7" points="21.6,14.3 22.3,14.3 21.5,17.9 20.9,17.9 "/>
<polygon class="st7" points="23,14.3 23.6,14.3 23.9,17.1 23.9,17.1 25.4,14.3 26.1,14.3 24.1,17.9 23.4,17.9 "/>
<polygon class="st7" points="26.8,14.3 27.4,14.3 26.7,17.9 26,17.9 "/>
<path class="st7" d="M28.4,16.7c0,0.6,0.3,0.8,0.8,0.8c0.3,0,0.8-0.2,0.8-0.6c0-0.4-0.4-0.5-0.9-0.6c-0.3-0.1-1-0.2-1-0.9
	c0-0.6,0.5-1.1,1.3-1.1c0.7,0,1.3,0.3,1.3,1.1h-0.6c0-0.4-0.2-0.6-0.7-0.6c-0.2,0-0.7,0.1-0.7,0.5c0,0.3,0.3,0.4,0.7,0.5
	c0.5,0.1,1.1,0.3,1.1,1c0,0.6-0.4,1.2-1.5,1.2c-0.8,0-1.4-0.4-1.3-1.3H28.4z"/>
<polygon class="st7" points="31.9,14.3 32.5,14.3 31.8,17.9 31.2,17.9 "/>
<path class="st7" d="M34.8,14.2c0.9,0,1.6,0.6,1.6,1.6c0,1.5-0.9,2.2-1.9,2.2c-1,0-1.6-0.7-1.6-1.6C32.9,14.9,33.9,14.2,34.8,14.2
	 M34.5,17.5c0.8,0,1.2-0.9,1.2-1.6c0-0.7-0.3-1.1-1-1.1c-0.8,0-1.3,0.9-1.3,1.6C33.6,17.1,33.9,17.5,34.5,17.5"/>
<polygon class="st7" points="37.4,14.3 38,14.3 39.1,17 39.1,17 39.7,14.3 40.3,14.3 39.6,17.9 38.9,17.9 37.8,15.2 37.8,15.2 
	37.2,17.9 36.6,17.9 "/>
<path class="st7" d="M44.7,14.2c0.9,0,1.6,0.6,1.6,1.6c0,1.5-0.9,2.2-1.9,2.2c-1,0-1.6-0.7-1.6-1.6C42.8,14.9,43.8,14.2,44.7,14.2
	 M44.4,17.5c0.8,0,1.2-0.9,1.2-1.6c0-0.7-0.3-1.1-1-1.1c-0.8,0-1.3,0.9-1.3,1.6C43.4,17.1,43.8,17.5,44.4,17.5"/>
<polygon class="st7" points="47.2,14.3 49.7,14.3 49.5,14.9 47.7,14.9 47.5,15.8 49.1,15.8 49,16.3 47.4,16.3 47.1,17.9 46.5,17.9 
	"/>
<path class="st7" d="M54.8,14.6c0-0.7-0.4-1-1.1-1c-0.5,0-1.1,0.2-1.1,0.8c0,0.5,0.3,0.6,0.8,0.8l0.6,0.2c0.6,0.2,1.1,0.4,1.1,1.3
	c0,1-1,1.4-1.8,1.4c-1.1,0-1.9-0.5-1.8-1.6h0.6c0,0.8,0.5,1.1,1.2,1.1c0.6,0,1.2-0.3,1.2-0.9c0-0.5-0.4-0.7-0.8-0.8l-0.6-0.2
	c-0.6-0.2-1.1-0.5-1.1-1.2c0-0.9,0.9-1.4,1.7-1.4c0.9,0,1.7,0.5,1.7,1.5H54.8z"/>
<path class="st7" d="M56.4,14.3H57l-0.5,2.2c0,0.1,0,0.2,0,0.3c0,0.5,0.3,0.6,0.8,0.6c0.5,0,0.8-0.2,1-0.9l0.5-2.2h0.6l-0.5,2.2
	c-0.1,0.6-0.4,1.4-1.7,1.4c-0.7,0-1.3-0.3-1.3-1.1c0-0.2,0-0.3,0.1-0.5L56.4,14.3z"/>
<polygon class="st7" points="60.2,14.3 60.9,14.3 62,17 62,17 62.6,14.3 63.2,14.3 62.5,17.9 61.8,17.9 60.7,15.2 60.7,15.2 
	60.1,17.9 59.5,17.9 "/>
<polygon class="st7" points="67.1,13.7 65.5,13.7 64.6,17.9 64,17.9 64.9,13.7 63.3,13.7 63.4,13.2 67.2,13.2 "/>
<path class="st7" d="M67,14.3h1.5c0.3,0,1.1,0,1.1,0.9c0,0.6-0.3,0.9-0.8,1v0c0.3,0.1,0.4,0.3,0.4,0.6c0,0.2-0.1,0.5-0.1,0.7
	c0,0.1,0,0.2,0.1,0.3h-0.7c0-0.1,0-0.2,0-0.3c0-0.3,0.1-0.5,0.1-0.8c0-0.4-0.3-0.4-0.7-0.4h-0.7l-0.3,1.5h-0.6L67,14.3z M67.3,16
	h0.9c0.5,0,0.8-0.2,0.8-0.6c0-0.4-0.3-0.5-0.6-0.5h-0.9L67.3,16z"/>
<path class="st7" d="M70.5,14.3h0.6l-0.5,2.2c0,0.1,0,0.2,0,0.3c0,0.5,0.3,0.6,0.8,0.6c0.5,0,0.8-0.2,1-0.9l0.5-2.2h0.6L73,16.6
	c-0.1,0.6-0.4,1.4-1.7,1.4c-0.7,0-1.3-0.3-1.3-1.1c0-0.2,0-0.3,0.1-0.5L70.5,14.3z"/>
<path class="st7" d="M74.2,16.7c0,0.6,0.3,0.8,0.8,0.8c0.3,0,0.8-0.2,0.8-0.6c0-0.4-0.4-0.5-0.9-0.6c-0.3-0.1-1-0.2-1-0.9
	c0-0.6,0.5-1.1,1.3-1.1c0.7,0,1.3,0.3,1.3,1.1h-0.6c0-0.4-0.2-0.6-0.7-0.6c-0.2,0-0.7,0.1-0.7,0.5c0,0.3,0.3,0.4,0.7,0.5
	c0.5,0.1,1.1,0.3,1.1,1c0,0.6-0.4,1.2-1.5,1.2c-0.8,0-1.4-0.4-1.4-1.3H74.2z"/>
<polygon class="st7" points="77.2,14.3 80.2,14.3 80.1,14.9 78.9,14.9 78.3,17.9 77.7,17.9 78.3,14.9 77.1,14.9 "/>
<path class="st7" d="M82.8,13.2h1.9c0.9,0,1.3,0.4,1.3,1.1c0,0.5-0.3,1-0.9,1.1v0c0.4,0.1,0.7,0.5,0.7,1c0,0.9-0.7,1.5-1.7,1.5h-2.3
	L82.8,13.2z M82.5,17.4H84c0.3,0,1.1-0.1,1.1-0.9c0-0.6-0.5-0.7-1-0.7h-1.3L82.5,17.4z M83,15.2h1.4c0.7,0,1-0.3,1-0.9
	c0-0.6-0.5-0.6-0.9-0.6h-1.2L83,15.2z"/>
<path class="st7" d="M88,14.3h0.7l0.6,3.6h-0.6l-0.1-0.9h-1.4l-0.5,0.9h-0.7L88,14.3z M88.2,15L88.2,15l-0.9,1.5h1.1L88.2,15z"/>
<polygon class="st7" points="90.4,14.3 91.1,14.3 92.2,17 92.2,17 92.7,14.3 93.3,14.3 92.6,17.9 91.9,17.9 90.8,15.2 90.8,15.2 
	90.3,17.9 89.7,17.9 "/>
<polygon class="st7" points="94.4,14.3 95,14.3 94.7,15.9 94.7,16 96.5,14.3 97.4,14.3 95.7,15.8 96.8,17.9 96.1,17.9 95.2,16.2 
	94.5,16.7 94.3,17.9 93.7,17.9 "/>
<g>
	<path class="st6" d="M100.7,3c0.6,0,1.1,0.5,1.1,1.1c0,0.6-0.5,1.1-1.1,1.1s-1.1-0.5-1.1-1.1C99.5,3.5,100,3,100.7,3z M101.6,4.1
		c0-0.5-0.4-1-0.9-1c-0.5,0-0.9,0.4-0.9,1c0,0.5,0.4,1,0.9,1C101.2,5.1,101.6,4.7,101.6,4.1z M100.2,3.5h0.5c0.3,0,0.5,0.1,0.5,0.4
		c0,0.2-0.2,0.3-0.4,0.4l0.4,0.6H101l-0.4-0.6h-0.2v0.6h-0.2V3.5z M100.6,4.1c0.2,0,0.3,0,0.3-0.2c0-0.2-0.1-0.2-0.3-0.2h-0.3v0.4
		H100.6z"/>
</g>
</svg>
