<?xml version="1.0" encoding="utf-8"?>
<!-- Generator: Adobe Illustrator 20.1.0, SVG Export Plug-In . SVG Version: 6.00 Build 0)  -->
<svg version="1.1" id="Layer_1" xmlns="http://www.w3.org/2000/svg" xmlns:xlink="http://www.w3.org/1999/xlink" x="0px" y="0px"
	 viewBox="0 0 15 15" style="enable-background:new 0 0 15 15;" xml:space="preserve">
<style type="text/css">
	.st0{opacity:0.6;fill:#00467E;enable-background:new    ;}
	.st1{fill:#FFFFFF;}
</style>
<title>Asset 12</title>
<g id="Layer_2">
	<g id="content_header">
		<path class="st0" d="M1,0.2h13c0.6,0,1,0.5,1,1v12.6c0,0.6-0.5,1-1,1H1c-0.6,0-1-0.5-1-1V1.2C0,0.6,0.5,0.2,1,0.2z"/>
		<path class="st1" d="M12.1,6.3h-0.8V5c0-0.6-0.3-1.2-0.7-1.7c-0.4-0.4-0.8-0.6-1.4-0.7H9H5.5c-0.6,0-1.2,0.2-1.7,0.7
			C3.6,3.5,3.4,3.8,3.3,4.1c-0.1,0.3-0.2,0.7-0.2,1v4.9c0,1.3,1.1,2.4,2.4,2.4c0,0,0,0,0,0h5.1c1.3,0,2.4-1,2.4-2.4l0,0V7
			C13,6.5,12.7,6.3,12.1,6.3z M5.8,5.1h2.4c0.1,0,0.2,0.1,0.3,0.2c0.1,0.1,0.1,0.3,0.1,0.4s0,0.3-0.1,0.4c0,0.1-0.1,0.1-0.3,0.2H5.8
			c-0.1,0-0.2-0.1-0.3-0.2C5.4,6,5.4,5.8,5.4,5.7c0-0.1,0-0.3,0.1-0.4S5.7,5.1,5.8,5.1z M9.7,8.8c0.3,0,0.6,0.3,0.6,0.6l0,0
			c0,0.1-0.1,0.3-0.2,0.4C10,9.9,9.8,9.9,9.7,9.9H6c-0.1,0-0.3-0.1-0.4-0.2C5.5,9.6,5.4,9.5,5.4,9.3S5.5,9,5.6,8.9
			C5.7,8.8,5.9,8.7,6,8.7L9.7,8.8z"/>
	</g>
</g>
</svg>
