<?xml version="1.0" encoding="utf-8"?>
<!-- Generator: Adobe Illustrator 17.0.2, SVG Export Plug-In . SVG Version: 6.00 Build 0)  -->
<!DOCTYPE svg PUBLIC "-//W3C//DTD SVG 1.1//EN" "http://www.w3.org/Graphics/SVG/1.1/DTD/svg11.dtd">
<svg version="1.1" id="Layer_1" xmlns="http://www.w3.org/2000/svg" xmlns:xlink="http://www.w3.org/1999/xlink" x="0px" y="0px"
	 width="150px" height="150px" viewBox="0 0 150 150" enable-background="new 0 0 150 150" xml:space="preserve" preserveAspectRatio="xMinYMin none">
<g>
	<path fill="#00467E" d="M135,146c0,1.105-0.895,2-2,2H17c-1.105,0-2-0.895-2-2V3c0-1.105,0.895-2,2-2h116c1.105,0,2,0.895,2,2V146z
		"/>
</g>
<g>
	<line fill="none" stroke="#FFFFFF" stroke-width="2" stroke-miterlimit="10" x1="27.776" y1="44.993" x2="122.224" y2="44.993"/>
	<line fill="none" stroke="#FFFFFF" stroke-width="2" stroke-miterlimit="10" x1="27.776" y1="23.77" x2="122.224" y2="23.77"/>
	<line fill="none" stroke="#FFFFFF" stroke-width="2" stroke-miterlimit="10" x1="27.776" y1="66.356" x2="122.224" y2="66.356"/>
	<line fill="none" stroke="#FFFFFF" stroke-width="2" stroke-miterlimit="10" x1="27.776" y1="85.752" x2="122.224" y2="85.752"/>
	<line fill="none" stroke="#FFFFFF" stroke-width="2" stroke-miterlimit="10" x1="27.776" y1="106.272" x2="81.992" y2="106.272"/>
	<line fill="none" stroke="#FFFFFF" stroke-width="2" stroke-miterlimit="10" x1="27.776" y1="126.23" x2="81.992" y2="126.23"/>
</g>
<path fill="#FFFFFF" d="M122.369,110.707c0-7.918-6.674-14.337-14.906-14.337s-14.906,6.419-14.906,14.337
	c0,4.531,2.191,8.564,5.603,11.192l-3.199,13.436l12.502-4.823l12.502,4.823l-3.343-13.333
	C120.115,119.379,122.369,115.3,122.369,110.707z"/>
</svg>
