<?xml version="1.0" encoding="utf-8"?>
<!-- Generator: Adobe Illustrator 21.0.0, SVG Export Plug-In . SVG Version: 6.00 Build 0)  -->
<svg version="1.1" id="Layer_1" xmlns="http://www.w3.org/2000/svg" xmlns:xlink="http://www.w3.org/1999/xlink" x="0px" y="0px"
	 viewBox="0 0 200 200" style="enable-background:new 0 0 200 200;" xml:space="preserve">
<style type="text/css">
	.st0{fill:#4C98CB;}
</style>
<g id="XMLID_253_">
	<g id="XMLID_255_">
		<path id="XMLID_268_" class="st0" d="M186.7,38.2c-2.8-3.7-7.4-5.9-12.5-5.9c-2.9,0-5.7,0.7-8.1,2.1
			c-52.5,29.3-86,72.3-101.8,96.4l-26.6-30c-2.8-3.2-7.1-5-11.8-5c-3.3,0-6.4,0.9-9,2.6c-3.2,2.1-5.2,5.1-5.7,8.5
			c-0.5,3.4,0.5,6.8,2.9,9.5L55,162.6c2.8,3.2,7.2,5,11.8,5c0.6,0,1.2,0,1.8-0.1c5.2-0.5,9.7-3.5,11.8-7.6
			c0.3-0.7,33.9-66.1,101.8-103.9c3.3-1.9,5.6-4.7,6.5-8.1C189.5,44.6,188.8,41.1,186.7,38.2z"/>
	</g>
</g>
</svg>
