<?xml version="1.0" encoding="utf-8"?>
<!-- Generator: Adobe Illustrator 20.0.0, SVG Export Plug-In . SVG Version: 6.00 Build 0)  -->
<svg version="1.1" id="Layer_1" xmlns="http://www.w3.org/2000/svg" xmlns:xlink="http://www.w3.org/1999/xlink" x="0px" y="0px"
	 viewBox="0 0 575 324" style="enable-background:new 0 0 575 324;" xml:space="preserve">
<style type="text/css">
	.st0{fill:#A3C7E9;}
	.st1{fill:#048CBA;}
	.st2{opacity:0.2;}
	.st3{fill:url(#SVGID_1_);}
	.st4{opacity:0.12;}
	.st5{fill:url(#SVGID_2_);}
	.st6{opacity:0.2;clip-path:url(#XMLID_4_);}
	.st7{opacity:0.5;fill:url(#XMLID_5_);}
</style>
<g id="XMLID_4178_">
	<path id="XMLID_478_" class="st0" d="M497.3,147.6c0,12.9-4.5,25.4-11.6,36.1c-8,12.1-19.1,22.1-31.3,29.9
		c-13.9,9-29.5,15.3-45.5,19.2c-8.7,2.1-17.6,3.5-26.5,4.2c-2.3,0.2-4.7,0.3-7,0.4c-1.1,0-2.2,0.1-3.3,0.1c-0.6,0-1.1,0-1.7,0
		c-0.2,0-0.5,0-0.7,0c-0.5,0.1-0.6,0.3-1,0.7c-3.1,3.5-6.3,6.8-9.7,10c-13.4,12.5-30.1,23.4-48.6,25.6c-2.2,0.3-4.4,0.4-6.6,0.4
		c10.1-7.2,17.2-17.7,22.1-28.9c1.4-3.3,2.6-6.6,3.7-10.1c-19.5-3-38.8-9.1-56-18.8c-15.9-9-30.6-21.3-39.8-37.3
		c-5.5-9.6-8.8-20.4-8.8-31.6c0-12.5,3.6-20.5,4.5-22.8c5.4-13.1,14.6-24.2,25.5-33.1c11.4-9.4,24.6-16.6,38.4-22
		c13.1-5.1,26.9-8.5,40.8-10.4c14.1-1.9,28.4-2.3,42.6-1.2c12.4,1,24.8,3.1,36.8,6.5c11.1,3.1,21.8,7.3,32,12.7
		c9.2,4.9,17.9,10.8,25.7,17.9c6.9,6.3,13,13.5,17.6,21.7c4.2,7.5,7.1,15.9,8,24.5C497.2,143.4,497.3,145.5,497.3,147.6z"/>
	<path id="XMLID_477_" class="st1" d="M232.2,207.3c5.2-0.8,10.3-1.8,15.2-3c-17.5-16.1-27.7-35.8-27.7-56.7
		c0-13,3.9-25.6,11.6-37.5c7.3-11.3,17.6-21.5,30.7-30.3c12.1-8.1,26-14.6,41.1-19.2c-25-18.9-61.6-31.2-102.3-31.2
		c-75.2,0-136.1,41.5-136.1,90.1c0,46.8,56.5,87.2,127.9,89.9c16.6,19.2,40.9,36.8,65.6,36.8C245.2,237.1,237.1,222.8,232.2,207.3z"
		/>
	<g id="XMLID_475_" class="st2">
		<linearGradient id="SVGID_1_" gradientUnits="userSpaceOnUse" x1="118.9128" y1="38.5359" x2="292.1774" y2="211.8005">
			<stop  offset="0" style="stop-color:#FFFFFF"/>
			<stop  offset="0.1101" style="stop-color:#F2F1F0"/>
			<stop  offset="0.2416" style="stop-color:#DAD8D8"/>
			<stop  offset="0.3841" style="stop-color:#B8B6B6"/>
			<stop  offset="0.5346" style="stop-color:#8F8C8C"/>
			<stop  offset="0.6912" style="stop-color:#625F5E"/>
			<stop  offset="0.8504" style="stop-color:#363434"/>
			<stop  offset="1" style="stop-color:#010101"/>
		</linearGradient>
		<path class="st3" d="M200.7,30.4c38,0,74.4,10.8,100.2,29.8c-14.5,4.7-27.8,11-39.5,18.7c-13.2,8.8-23.7,19.1-31,30.6
			c-7.8,12.1-11.7,24.9-11.7,38.1c0,20.2,9.2,39.6,26.7,56.1c-4.4,1-8.9,1.9-13.3,2.6l-1.2,0.2l0.3,1.1
			c5.2,16.5,13.1,29.1,23.7,37.6c-10.4-0.6-21.2-4.3-32.2-11c-10.3-6.3-20.6-15-29.5-25.4l-0.3-0.3l-0.4,0
			c-34.2-1.3-66.2-11.4-90.2-28.3c-23.7-16.7-36.8-38.3-36.8-60.7c0-11.7,3.5-23.2,10.5-34.1c6.8-10.6,16.5-20.1,28.9-28.4
			C130.7,39.9,164.7,30.4,200.7,30.4 M200.7,29.4c-75.2,0-136.1,41.5-136.1,90.1c0,46.8,56.5,87,127.9,89.8
			c16.6,19.2,40.9,36.6,65.5,36.6c0,0,0.1,0,0.1,0c-12.8-9-20.9-23.3-25.8-38.9c5.2-0.8,10.3-1.7,15.2-2.9
			c-17.5-16.1-27.7-35.8-27.7-56.6c0-13,3.9-25.6,11.6-37.5c7.3-11.3,17.6-21.5,30.7-30.3c12.1-8.1,26-14.6,41.1-19.2
			C278.1,41.7,241.5,29.4,200.7,29.4L200.7,29.4z"/>
	</g>
	<g id="XMLID_473_" class="st4">
		<linearGradient id="SVGID_2_" gradientUnits="userSpaceOnUse" x1="274.5912" y1="71.4382" x2="437.5761" y2="234.4231">
			<stop  offset="0" style="stop-color:#FFFFFF"/>
			<stop  offset="0.1101" style="stop-color:#F2F1F0"/>
			<stop  offset="0.2416" style="stop-color:#DAD8D8"/>
			<stop  offset="0.3841" style="stop-color:#B8B6B6"/>
			<stop  offset="0.5346" style="stop-color:#8F8C8C"/>
			<stop  offset="0.6912" style="stop-color:#625F5E"/>
			<stop  offset="0.8504" style="stop-color:#363434"/>
			<stop  offset="1" style="stop-color:#010101"/>
		</linearGradient>
		<path class="st5" d="M361,57v1h0.1c5.2,0,10.5,0.4,15.7,0.8c12.6,1,25,3.3,36.7,6.6c11.4,3.2,22.1,7.5,31.8,12.7
			c9.6,5.1,18.2,11.1,25.5,17.7c7.3,6.6,13.1,13.9,17.4,21.5c4.4,7.8,7,15.9,7.9,24.1c0.2,2,0.3,4.1,0.3,6.2
			c0,11.9-4,24.2-11.5,35.6c-7.4,11.2-17.8,21.2-31,29.7c-13.4,8.6-28.6,15-45.2,19.1c-8.6,2.1-17.4,3.5-26.3,4.2
			c-2.3,0.2-4.7,0.3-7,0.4c-1.1,0-2.2,0.1-3.3,0.1c-0.5,0-1.1,0-1.6,0c0,0-0.1,0-0.1,0c-0.1,0-0.2,0-0.3,0c-0.2,0-0.3,0-0.4,0
			c-0.8,0.2-1.1,0.5-1.4,0.9l-0.1,0.2c-3.1,3.5-6.3,6.8-9.6,9.9c-16,14.9-32.1,23.4-48.1,25.4c-1.1,0.1-2.3,0.2-3.4,0.3
			c8.2-6.6,14.9-15.9,19.9-27.5c1.4-3.2,2.6-6.6,3.8-10.2l0.3-1.1l-1.2-0.2c-20.5-3.1-39.3-9.4-55.7-18.7
			c-17.6-9.9-31.2-22.7-39.4-36.9c-5.7-9.8-8.6-20.6-8.6-31.1c0-11.7,3.2-19.6,4.3-22.1l0.1-0.3c4.9-12,13.4-23,25.2-32.7
			c10.6-8.8,23.5-16.1,38.1-21.8c12.7-4.9,26.3-8.4,40.6-10.3c8.8-1.2,17.7-1.8,26.7-1.8l-0.1-1 M361.2,57.5c-9,0-18,0.6-26.9,1.8
			c-13.9,1.9-27.7,5.3-40.8,10.4c-13.8,5.3-27,12.5-38.4,22c-10.8,8.9-20.1,20-25.5,33.1c-0.9,2.3-4.5,10.4-4.5,22.8
			c0,11.1,3.2,22,8.8,31.6c9.2,16,23.9,28.3,39.8,37.3c17.3,9.7,36.5,15.8,56,18.8c-1.1,3.4-2.3,6.6-3.7,9.9
			c-4.9,11.3-12,21.8-22.1,28.8c0,0,0.1,0,0.1,0c2.2,0,4.3,0,6.5-0.3c18.5-2.3,35.2-13.1,48.6-25.6c3.4-3.2,6.6-6.5,9.7-10
			c0.4-0.4,0.5-0.6,1-0.7c0.1,0,0.1,0.2,0.2,0.2c0.2,0,0.3,0.3,0.4,0.3c0,0,0,0,0,0c0.6,0,1.1-0.3,1.7-0.3c1.1,0,2.2-0.2,3.3-0.2
			c2.3-0.1,4.7-0.3,7-0.5c8.9-0.7,17.8-2.1,26.5-4.2c16.1-3.9,31.6-10.2,45.5-19.2c12.2-7.8,23.3-17.8,31.3-30
			c7.1-10.7,11.6-23.2,11.6-36.1c0-2.1-0.1-4.2-0.3-6.3c-0.9-8.6-3.8-16.9-8-24.5c-4.6-8.2-10.7-15.4-17.6-21.7
			c-7.7-7.1-16.4-13-25.7-17.9c-10.2-5.4-20.9-9.6-32-12.7c-12-3.4-24.4-5.5-36.8-6.5C371.7,57.7,366.4,57.5,361.2,57.5L361.2,57.5z
			"/>
	</g>
	<g id="XMLID_1192_">
		<defs>
			<rect id="XMLID_454_" x="2.4" y="29.5" width="575" height="294.5"/>
		</defs>
		<clipPath id="XMLID_4_">
			<use xlink:href="#XMLID_454_"  style="overflow:visible;"/>
		</clipPath>
		<g id="XMLID_456_" class="st6">
			<linearGradient id="XMLID_5_" gradientUnits="userSpaceOnUse" x1="291.8868" y1="144.4955" x2="496.9478" y2="349.5565">
				<stop  offset="0" style="stop-color:#BABCBE"/>
				<stop  offset="0.1143" style="stop-color:#CBCBCD"/>
				<stop  offset="0.293" style="stop-color:#DFDFE0"/>
				<stop  offset="0.4869" style="stop-color:#EFEFEE"/>
				<stop  offset="0.7054" style="stop-color:#FAFAFA"/>
				<stop  offset="1" style="stop-color:#FFFFFF"/>
			</linearGradient>
			<path id="XMLID_457_" class="st7" d="M857,480.6c-8.5-8.5-17.1-17.1-25.6-25.6c-8.5-8.5-17-17-25.5-25.5
				c-8.5-8.5-17.1-17.1-25.6-25.6c-8.5-8.5-17-17-25.5-25.5c-8.5-8.5-17.1-17.1-25.6-25.6c-8.5-8.5-17-17-25.5-25.5
				c-8.5-8.5-17.1-17.1-25.6-25.6c-8.5-8.5-17-17-25.5-25.5c-8.5-8.5-17.1-17.1-25.6-25.6c-8.5-8.5-17-17-25.5-25.5
				c-8.5-8.5-17.1-17.1-25.6-25.6c-8.5-8.5-17-17-25.5-25.5c-8.5-8.5-17.1-17.1-25.6-25.6c-8.5-8.5-17.1-17.1-25.6-25.6
				c-8.4-8.4-16.7-16.9-25.2-25.2c-6.5-6.4-13.9-11.9-21.7-16.6c-8.5-5.1-17.6-9.3-27-12.7c-10.2-3.7-20.7-6.4-31.4-8.1
				c-11.4-1.9-23-2.8-34.6-2.7c-12.5,0.1-25,1.4-37.2,3.9c-2.8,0.6-5.6,1.2-8.3,1.9c-1.4,0.3-2.7,0.7-4.1,1.1
				c-0.5,0.1-1,0.3-1.5,0.4c-0.2,0.1-0.5,0.2-0.7,0.2c-0.3,0-0.5-0.3-0.8-0.5c0.3-0.1-0.5-0.6-0.8-0.8c0.3-0.1-0.5-0.6-0.8-0.8
				c0.3-0.1-0.5-0.6-0.8-0.8c0.3-0.1-0.5-0.6-0.8-0.8c0.3-0.1-0.5-0.6-0.8-0.8c0.4-0.1-0.5-0.6-0.7-0.7c-0.4-0.3-0.7-0.6-1.1-0.8
				c-0.8-0.6-1.5-1.1-2.3-1.6c-1.6-1.1-3.2-2.2-4.9-3.2c-3.3-2.1-6.7-4-10.2-5.8c-7.4-3.8-15.1-7-23-9.6
				c-17.3-5.7-35.4-8.7-53.6-9.3c-17.4-0.5-35,1.1-51.9,5.2c-15.1,3.6-29.8,9.2-43.2,16.9c-11.7,6.8-22.6,15.3-31.1,25.8
				c-7.5,9.3-13.2,20.2-15.3,32c-2.6,15.1,1.1,30.5,9,43.5c4.9,7.9,11.2,14.4,17.7,20.9c6.8,6.8,13.7,13.7,20.5,20.5
				c13.6,13.6,27.2,27.2,40.8,40.8c13.7,13.7,27.3,27.4,41,41c13.6,13.6,27.3,27.3,40.9,40.9c13.6,13.6,27.3,27.3,40.9,40.9
				c13.6,13.6,27.3,27.3,40.9,40.9c13.6,13.6,27.3,27.3,40.9,40.9c13.7,13.7,27.4,27.3,41,41c13.6,13.6,27.2,27.2,40.8,40.8
				c6.8,6.8,13.7,13.7,20.5,20.5c5.9,5.9,11.7,12,18.2,17.3c12.2,9.9,26.4,17.3,41.1,22.5c16.9,6.1,34.8,9.4,52.7,10.4
				c0.6,0,1.2,0.1,1.8,0.1c0.7,0,0.8,0.2,1.3,0.6c0.9,0.9,1.8,1.8,2.7,2.7c1.7,1.7,3.3,3.3,5,5c3.3,3.2,6.7,6.2,10.2,9.1
				c7.1,5.7,14.9,10.6,23.3,14.2c7.7,3.2,15.9,5.3,24.3,5.3c-0.2-0.2-0.5-0.3-0.6-0.5c-0.2-0.2-0.6-0.3-0.1-0.3
				c-0.2-0.2-0.5-0.3-0.6-0.5c-0.2-0.2-0.6-0.3-0.1-0.3c-0.2-0.2-0.5-0.3-0.6-0.5c-0.2-0.2-0.6-0.3-0.1-0.3
				c-0.2-0.2-0.5-0.3-0.6-0.5c-0.2-0.2-0.6-0.3-0.1-0.3c-0.2-0.2-0.5-0.3-0.6-0.5c-0.2-0.2-0.6-0.3-0.1-0.3
				c-0.2-0.2-0.5-0.3-0.6-0.5c-0.2-0.2-0.6-0.3-0.1-0.3c-0.2-0.2-0.5-0.3-0.6-0.5c-0.2-0.2-0.6-0.3-0.1-0.3
				c-0.2-0.2-0.5-0.3-0.6-0.5c-0.2-0.2-0.6-0.3-0.1-0.3c-0.2-0.2-0.5-0.3-0.6-0.5c-0.2-0.2-0.6-0.3-0.1-0.3
				c-0.2-0.2-0.5-0.3-0.6-0.5c-0.2-0.2-0.6-0.3-0.1-0.3c-0.2-0.2-0.5-0.3-0.6-0.5c-0.2-0.2-0.6-0.3-0.1-0.3
				c-0.2-0.2-0.5-0.3-0.6-0.5c-0.2-0.2-0.6-0.3-0.1-0.3c-0.2-0.2-0.5-0.3-0.6-0.5c-0.2-0.2-0.6-0.3-0.1-0.3
				c-0.2-0.2-0.5-0.3-0.6-0.5c-0.2-0.2-0.6-0.3-0.1-0.3c-0.2-0.2-0.5-0.3-0.6-0.5c-0.2-0.2-0.6-0.3-0.1-0.3
				c-0.2-0.2-1.3-0.8-0.8-0.8c-0.1-0.1-0.8-1-0.8-1c0.1,0-0.1,0.1,0,0.1c-5.8-7.8-9.9-16.7-12.7-25.9c1.8-0.3,3.6-0.5,5.3-0.9
				c-0.3,0.2-0.6,0.5-0.9,0.7c0.6,0,1.2,0,1.8,0c-0.4,0.3-0.7,0.5-1.1,0.8c0.6,0,1.2,0,1.8,0c-0.4,0.3-0.7,0.5-1.1,0.8
				c0.6,0,1.2,0,1.8,0c-0.4,0.3-0.7,0.5-1.1,0.8c0.6,0,1.2,0,1.8,0c-0.4,0.3-0.7,0.5-1.1,0.8c0.6,0,1.2,0,1.8,0
				c-0.4,0.3-0.7,0.5-1.1,0.8c0.6,0,1.2,0,1.8,0c-0.4,0.3-0.7,0.5-1.1,0.8c0.6,0,1.2,0,1.8,0c-0.4,0.3-0.7,0.5-1.1,0.8
				c0.6,0,1.2,0,1.8,0c-0.4,0.3-0.7,0.5-1.1,0.8c0.6,0,1.2,0,1.8,0c-0.4,0.3-0.7,0.5-1.1,0.8c0.6,0,1.2,0,1.8,0
				c-0.4,0.3-0.7,0.5-1.1,0.8c0.6,0,1.2,0,1.8,0c-0.4,0.3-0.7,0.5-1.1,0.8c0.6,0,1.2,0,1.8,0c-0.4,0.3-0.7,0.5-1.1,0.8
				c0.6,0,1.2,0,1.8,0c-0.4,0.3-0.7,0.5-1.1,0.8c0.6,0,1.2,0,1.8,0c-0.4,0.3-0.7,0.5-1.1,0.8c0.6,0,1.2,0,1.8,0
				c-0.4,0.3-0.7,0.5-1.1,0.8c0.6,0,1.2,0,1.8,0c-0.4,0.3-0.7,0.5-1.1,0.8c0.6,0,1.2,0,1.8,0c-0.4,0.3-0.7,0.5-1.1,0.8
				c0.6,0,1.2,0,1.8,0c-0.4,0.3-0.7,0.5-1.1,0.8c0.6,0,1.2,0,1.8,0c-0.4,0.3-0.7,0.5-1.1,0.8c0.6,0,1.2,0,1.8,0
				c-0.4,0.3-0.7,0.5-1.1,0.8c0.6,0,1.2,0,1.8,0c-0.4,0.3-0.7,0.5-1.1,0.8c0.6,0,1.2,0,1.8,0c-0.4,0.3-0.7,0.5-1.1,0.8
				c0.6,0,1.2,0,1.8,0c-0.4,0.3-0.7,0.5-1.1,0.8c0.6,0,1.2,0,1.8,0c-0.4,0.3-0.7,0.5-1.1,0.8c0.6,0,1.2,0,1.8,0
				c-0.4,0.3-0.7,0.5-1.1,0.8c0.6,0,1.2,0,1.8,0c-0.4,0.3-0.7,0.5-1.1,0.8c0.6,0,1.2,0,1.8,0c-0.4,0.3-0.7,0.5-1.1,0.8
				c0.6,0,1.2,0,1.8,0c-0.4,0.3-0.7,0.5-1.1,0.8c0.6,0,1.2,0,1.8,0c-0.4,0.3-0.7,0.5-1.1,0.8c0.6,0,1.2,0,1.8,0
				c-0.4,0.3-0.7,0.5-1.1,0.8c0.6,0,1.2,0,1.8,0c-0.4,0.3-0.7,0.5-1.1,0.8c0.6,0,1.2,0,1.8,0c-0.4,0.3-0.7,0.5-1.1,0.8
				c0.6,0,1.2,0,1.8,0c-0.4,0.3-0.7,0.5-1.1,0.8c0.6,0,1.2,0,1.8,0c-0.4,0.3-0.7,0.5-1.1,0.8c0.6,0,1.2,0,1.8,0
				c-0.4,0.3-0.7,0.5-1.1,0.8c0.6,0,1.2,0,1.8,0c-0.4,0.3-0.7,0.5-1.1,0.8c0.6,0,1.2,0,1.8,0c-0.4,0.3-0.7,0.5-1.1,0.8
				c0.6,0,1.2,0,1.8,0c-0.4,0.3-0.7,0.5-1.1,0.8c0.6,0,1.2,0,1.8,0c-0.4,0.3-0.7,0.5-1.1,0.8c0.6,0,1.2,0,1.8,0
				c-0.4,0.3-0.7,0.5-1.1,0.8c0.6,0,1.2,0,1.8,0c-0.4,0.3-0.7,0.5-1.1,0.8c0.6,0,1.2,0,1.8,0c-0.4,0.3-0.7,0.5-1.1,0.8
				c0.6,0,1.2,0,1.8,0c-0.4,0.3-0.7,0.5-1.1,0.8c0.6,0,1.2,0,1.8,0c-0.4,0.3-0.7,0.5-1.1,0.8c0.6,0,1.2,0,1.8,0
				c-0.4,0.3-0.7,0.5-1.1,0.8c0.6,0,1.2,0,1.8,0c-0.4,0.3-0.7,0.5-1.1,0.8c0.6,0,1.2,0,1.8,0c-0.4,0.3-0.7,0.5-1.1,0.8
				c0.6,0,1.2,0,1.8,0c-0.4,0.3-0.7,0.5-1.1,0.8c0.6,0,1.2,0,1.8,0c-0.4,0.3-0.7,0.5-1.1,0.8c0.6,0,1.2,0,1.8,0
				c-0.4,0.3-0.7,0.5-1.1,0.8c0.6,0,1.2,0,1.8,0c-0.4,0.3-0.7,0.5-1.1,0.8c0.6,0,1.2,0,1.8,0c-0.4,0.3-0.7,0.5-1.1,0.8
				c0.6,0,1.2,0,1.8,0c-0.4,0.3-0.7,0.5-1.1,0.8c0.6,0,1.2,0,1.8,0c-0.4,0.3-0.7,0.5-1.1,0.8c0.6,0,1.2,0,1.8,0
				c-0.4,0.3-0.7,0.5-1.1,0.8c0.6,0,1.2,0,1.8,0c-0.4,0.3-0.7,0.5-1.1,0.8c0.6,0,1.2,0,1.8,0c-0.4,0.3-0.7,0.5-1.1,0.8
				c0.6,0,1.2,0,1.8,0c-0.4,0.3-0.7,0.5-1.1,0.8c0.6,0,1.2,0,1.8,0c-0.4,0.3-0.7,0.5-1.1,0.8c0.6,0,1.2,0,1.8,0
				c-0.4,0.3-0.7,0.5-1.1,0.8c0.6,0,1.2,0,1.8,0c-0.4,0.3-0.7,0.5-1.1,0.8c0.6,0,1.2,0,1.8,0c-0.4,0.3-0.7,0.5-1.1,0.8
				c0.6,0,1.2,0,1.8,0c-0.4,0.3-0.7,0.5-1.1,0.8c0.6,0,1.2,0,1.8,0c-0.4,0.3-0.7,0.5-1.1,0.8c0.6,0,1.2,0,1.8,0
				c-0.4,0.3-0.7,0.5-1.1,0.8c0.6,0,1.2,0,1.8,0c-0.4,0.3-0.7,0.5-1.1,0.8c0.6,0,1.2,0,1.8,0c-0.4,0.3-0.7,0.5-1.1,0.8
				c0.6,0,1.2,0,1.8,0c-0.4,0.3-0.7,0.5-1.1,0.8c0.6,0,1.2,0,1.8,0c-0.4,0.3-0.7,0.5-1.1,0.8c0.6,0,1.2,0,1.8,0
				c-0.4,0.3-0.7,0.5-1.1,0.8c0.6,0,1.2,0,1.8,0c-0.4,0.3-0.7,0.5-1.1,0.8c0.6,0,1.2,0,1.8,0c-0.4,0.3-0.7,0.5-1.1,0.8
				c0.6,0,1.2,0,1.8,0c-0.4,0.3-0.7,0.5-1.1,0.8c0.6,0,1.2,0,1.8,0c-0.4,0.3-0.7,0.5-1.1,0.8c0.6,0,1.2,0,1.8,0
				c-0.4,0.3-0.7,0.5-1.1,0.8c0.6,0,1.2,0,1.8,0c-0.4,0.3-0.7,0.5-1.1,0.8c0.6,0,1.2,0,1.8,0c-0.4,0.3-0.7,0.5-1.1,0.8
				c0.6,0,1.2,0,1.8,0c-0.4,0.3-0.7,0.5-1.1,0.8c0.6,0,1.2,0,1.8,0c-0.4,0.3-0.7,0.5-1.1,0.8c0.6,0,1.2,0,1.8,0
				c-0.4,0.3-0.7,0.5-1.1,0.8c0.6,0,1.2,0,1.8,0c-0.4,0.3-0.7,0.5-1.1,0.8c0.6,0,1.2,0,1.8,0c-0.4,0.3-0.7,0.5-1.1,0.8
				c0.6,0,1.2,0,1.8,0c-0.4,0.3-0.7,0.5-1.1,0.8c0.6,0,1.2,0,1.8,0c-0.4,0.3-0.7,0.5-1.1,0.8c0.6,0,1.2,0,1.8,0
				c-0.4,0.3-0.7,0.5-1.1,0.8c0.6,0,1.2,0,1.8,0c-0.4,0.3-0.7,0.5-1.1,0.8c0.6,0,1.2,0,1.8,0c-0.4,0.3-0.7,0.5-1.1,0.8
				c0.6,0,1.2,0,1.8,0c-0.4,0.3-0.7,0.5-1.1,0.8c11.1,0,21.9-3.6,31.6-8.8c10.1-5.5,19.3-12.7,27.4-20.9c2-2,4-4.1,5.9-6.3
				c0.2-0.2,0.4-0.6,0.6-0.7c0.3-0.2,0.6-0.1,0.9-0.2c0.7,0,1.4-0.1,2.2-0.1c1.4-0.1,2.9-0.2,4.3-0.3c5.6-0.4,11.1-1.1,16.6-2
				c10.4-1.7,20.7-4.3,30.7-7.7c9.3-3.2,18.3-7.3,26.7-12.3c7.7-4.5,15-9.8,21.6-15.9c6-5.6,11.3-11.9,15.5-18.9
				c3.9-6.5,6.8-13.7,8.3-21.1c1.8-8.8,1.5-17.8-0.8-26.5c-2.8-10.7-8.4-20.4-15.6-28.8C861,484.7,859,482.6,857,480.6
				C856.7,480.3,871.7,495,857,480.6z"/>
		</g>
	</g>
</g>
</svg>
