<?xml version="1.0" encoding="utf-8"?>
<!-- Generator: Adobe Illustrator 17.0.2, SVG Export Plug-In . SVG Version: 6.00 Build 0)  -->
<!DOCTYPE svg PUBLIC "-//W3C//DTD SVG 1.1//EN" "http://www.w3.org/Graphics/SVG/1.1/DTD/svg11.dtd">
<svg version="1.1" id="Layer_1" xmlns="http://www.w3.org/2000/svg" xmlns:xlink="http://www.w3.org/1999/xlink" x="0px" y="0px"
	 width="150px" height="81px" viewBox="0 30.5 150 81" enable-background="new 0 30.5 150 81" xml:space="preserve">
<g>
	<path fill="#00467E" d="M148,102c0,1.105-0.895,2-2,2H3c-1.105,0-2-0.895-2-2V49c0-1.105,0.895-2,2-2h143c1.105,0,2,0.895,2,2V102z
		"/>
</g>
<g>
	<path fill="#FFFFFF" d="M66.116,59.632c1.742-1.907,4.185-2.876,7.326-2.907v-3.118h2.227v3.071
		c3.11,0.218,5.498,1.134,7.162,2.748c1.664,1.614,2.536,3.745,2.614,6.396h-4.103c-0.109-1.188-0.43-2.211-0.961-3.071
		c-0.985-1.578-2.555-2.407-4.712-2.485v11.417c3.626,1.016,6.088,1.969,7.385,2.86c2.11,1.469,3.165,3.642,3.165,6.518
		c0,4.157-1.352,7.111-4.056,8.862c-1.5,0.969-3.665,1.61-6.494,1.922v4.548h-2.227v-4.548c-4.548-0.297-7.635-1.907-9.26-4.829
		c-0.891-1.579-1.336-3.712-1.336-6.4h4.15c0.126,2.141,0.465,3.704,1.015,4.689c0.976,1.766,2.787,2.759,5.432,2.977V75.504
		c-3.392-0.641-5.897-1.711-7.514-3.212s-2.426-3.579-2.426-6.236C63.502,63.681,64.373,61.539,66.116,59.632z M69.27,69.408
		c1.032,0.876,2.423,1.485,4.172,1.829V60.219c-2.064,0.078-3.534,0.703-4.408,1.876c-0.875,1.172-1.312,2.399-1.312,3.681
		C67.722,67.322,68.238,68.534,69.27,69.408z M81.202,85.468c0.531-0.938,0.797-2.024,0.797-3.259c0-1.954-0.719-3.438-2.157-4.455
		c-0.829-0.594-2.219-1.156-4.173-1.688v12.332C78.342,88.273,80.186,87.296,81.202,85.468z"/>
</g>
</svg>
