<?xml version="1.0" encoding="utf-8"?>
<!-- Generator: Adobe Illustrator 17.0.2, SVG Export Plug-In . SVG Version: 6.00 Build 0)  -->
<!DOCTYPE svg PUBLIC "-//W3C//DTD SVG 1.1//EN" "http://www.w3.org/Graphics/SVG/1.1/DTD/svg11.dtd">
<svg version="1.1" id="Layer_1" xmlns="http://www.w3.org/2000/svg" xmlns:xlink="http://www.w3.org/1999/xlink" x="0px" y="0px"
	 width="150px" height="93.079px" viewBox="0 0 150 93.079" enable-background="new 0 0 150 93.079" xml:space="preserve">
<g>
	<path fill="#00467E" d="M43,80.799c0,1.105-0.895,2-2,2H5c-1.105,0-2-0.895-2-2v-36c0-1.105,0.895-2,2-2h36c1.105,0,2,0.895,2,2
		V80.799z"/>
</g>
<g>
	<path fill="#00467E" d="M95,80.799c0,1.105-0.895,2-2,2H57c-1.105,0-2-0.895-2-2v-36c0-1.105,0.895-2,2-2h36c1.105,0,2,0.895,2,2
		V80.799z"/>
</g>
<g>
	<path fill="#00467E" d="M147,80.799c0,1.105-0.895,2-2,2h-36c-1.105,0-2-0.895-2-2v-36c0-1.105,0.895-2,2-2h36c1.105,0,2,0.895,2,2
		V80.799z"/>
</g>
<g>
	<path fill="#00467E" d="M23.617,31.312V13.639h12.507v3.312h-8.744v3.71h8.559v3.312h-8.559V28h8.744v3.312H23.617z"/>
	<path fill="#00467E" d="M51.282,31.312l-1.112-2.994h-7.579l-1.112,2.994h-4.267l6.81-17.673h4.715l6.81,17.673H51.282z
		 M46.381,17.401l-2.756,7.605h5.511L46.381,17.401z"/>
	<path fill="#00467E" d="M55.79,28.821l2.067-2.941c1.246,1.298,3.18,2.411,5.617,2.411c2.094,0,3.074-0.927,3.074-1.961
		c0-3.074-10.175-0.927-10.175-7.578c0-2.941,2.544-5.379,6.703-5.379c2.81,0,5.142,0.848,6.889,2.464l-2.093,2.809
		c-1.431-1.325-3.339-1.934-5.14-1.934c-1.59,0-2.491,0.689-2.491,1.749c0,2.782,10.148,0.901,10.148,7.499
		c0,3.233-2.332,5.67-7.074,5.67C59.897,31.63,57.459,30.491,55.79,28.821z"/>
	<path fill="#00467E" d="M77.043,31.312v-7.234l-6.783-10.44h4.292l4.373,7.075l4.371-7.075h4.265l-6.756,10.44v7.234H77.043z"/>
	<path fill="#00467E" d="M108.234,31.312l-1.114-2.994h-7.577l-1.114,2.994h-4.265l6.809-17.673h4.718l6.809,17.673H108.234z
		 M103.332,17.401l-2.756,7.605h5.511L103.332,17.401z"/>
	<path fill="#00467E" d="M112.741,28.821l2.067-2.941c1.245,1.298,3.18,2.411,5.617,2.411c2.093,0,3.074-0.927,3.074-1.961
		c0-3.074-10.175-0.927-10.175-7.578c0-2.941,2.544-5.379,6.704-5.379c2.807,0,5.139,0.848,6.889,2.464l-2.094,2.809
		c-1.431-1.325-3.339-1.934-5.14-1.934c-1.59,0-2.491,0.689-2.491,1.749c0,2.782,10.149,0.901,10.149,7.499
		c0,3.233-2.332,5.67-7.075,5.67C116.849,31.63,114.411,30.491,112.741,28.821z"/>
</g>
<g>
	<path fill="#FFFFFF" d="M117.821,71.352l2.651-3.356c1.59,1.696,4.169,2.685,6.466,2.685c2.862,0,4.451-1.237,4.451-3.003
		c0-1.873-1.448-2.721-4.735-2.721c-0.988,0-2.579,0.035-2.932,0.071v-4.523c0.424,0.035,2.049,0.035,2.932,0.035
		c2.615,0,4.382-0.777,4.382-2.509c0-1.873-1.944-2.791-4.382-2.791c-2.296,0-4.345,0.848-6.007,2.438l-2.509-3.145
		c1.909-2.155,4.877-3.746,9.011-3.746c5.513,0,8.904,2.473,8.904,6.396c0,2.968-2.544,4.911-5.159,5.371
		c2.403,0.247,5.513,2.12,5.513,5.654c0,4.063-3.639,6.926-9.294,6.926C122.804,75.133,119.553,73.472,117.821,71.352z"/>
</g>
<g>
	<path fill="#FFFFFF" d="M66.388,74.921v-3.957c9.646-7.138,12.473-9.541,12.473-12.439c0-2.085-1.873-3.074-3.817-3.074
		c-2.685,0-4.735,1.06-6.325,2.721l-2.862-3.321c2.296-2.65,5.795-3.852,9.08-3.852c5.053,0,9.011,2.827,9.011,7.526
		c0,4.029-3.323,7.527-9.435,11.979h9.612v4.417H66.388z"/>
</g>
<g>
	<path fill="#FFFFFF" d="M21.431,74.504V57.402l-3.922,3.992l-2.863-3.003l7.42-7.455h4.382v23.569H21.431z"/>
</g>
</svg>
