<?xml version="1.0" encoding="utf-8"?>
<!-- Generator: Adobe Illustrator 21.0.2, SVG Export Plug-In . SVG Version: 6.00 Build 0)  -->
<svg version="1.1" id="Layer_1" xmlns="http://www.w3.org/2000/svg" xmlns:xlink="http://www.w3.org/1999/xlink" x="0px" y="0px"
	 viewBox="0 0 40 40" style="enable-background:new 0 0 40 40;" xml:space="preserve">
<style type="text/css">
	.st0{opacity:0.69;fill:#9DDAF7;enable-background:new    ;}
	.st1{fill:#231F20;}
	.st2{clip-path:url(#SVGID_3_);fill:#231F20;}
	.st3{fill:#FFFFFF;}
</style>
<g>
	<path id="XMLID_7830_" class="st0" d="M20,1.3C9.7,1.3,1.3,9.7,1.3,20S9.7,38.7,20,38.7S38.7,30.3,38.7,20S30.3,1.3,20,1.3"/>
	<g>
		<g>
			<polygon id="SVGID_1_" class="st1" points="35.5,24.6 35.6,24.6 35.5,24.6 			"/>
		</g>
		<g>
			<g>
				<defs>
					<polygon id="SVGID_2_" points="35.5,24.6 35.6,24.6 35.5,24.6 					"/>
				</defs>
				<clipPath id="SVGID_3_">
					<use xlink:href="#SVGID_2_"  style="overflow:visible;"/>
				</clipPath>
				<rect x="35.5" y="24.6" class="st2" width="0.1" height="0"/>
			</g>
		</g>
	</g>
	<path class="st3" d="M20,39C9.5,39,1,30.5,1,20S9.5,1,20,1s19,8.5,19,19S30.5,39,20,39z M20,1.7C9.9,1.7,1.7,9.9,1.7,20
		S9.9,38.3,20,38.3c10.1,0,18.3-8.2,18.3-18.3S30.1,1.7,20,1.7z"/>
	<path id="XMLID_7836_" class="st3" d="M19,31.2c-3.3-0.3-5.8-1.6-7.5-3.4l2.5-3.6c1.2,1.3,2.9,2.4,5,2.8v-5
		c-3.3-0.8-6.8-2.1-6.8-6.5c0-3.3,2.5-6.1,6.8-6.5v-3h3V9c2.6,0.3,4.8,1.3,6.5,2.9l-2.5,3.4c-1.1-1.1-2.5-1.7-4-2.1v4.5
		c3.3,0.9,7,2.1,7,6.6c0,3.6-2.3,6.4-7,6.9V34h-3L19,31.2L19,31.2z M19,16.9V13c-1.4,0.2-2.2,1-2.2,2.1C16.8,16,17.7,16.5,19,16.9
		 M21.9,22.7V27c1.6-0.3,2.4-1.3,2.4-2.3C24.3,23.7,23.3,23.2,21.9,22.7"/>
</g>
</svg>
