<?xml version="1.0" encoding="UTF-8"?>
<svg width="200px" height="200px" viewBox="0 0 200 200" version="1.1" xmlns="http://www.w3.org/2000/svg" xmlns:xlink="http://www.w3.org/1999/xlink">
    <!-- Generator: Sketch 46.2 (44496) - http://www.bohemiancoding.com/sketch -->
    <title>Fill 1</title>
    <desc>Created with Sketch.</desc>
    <defs></defs>
    <g id="Symbols" stroke="none" stroke-width="1" fill="none" fill-rule="evenodd">
        <g id="Icons/whitetree" fill="#FFFFFF">
            <path d="M99.0359759,0 C44.2535545,0.516592734 0,45.112022 0,100.039306 L0,100.039306 C0,153.472963 41.8785006,197.119434 94.5928479,199.932618 L94.5928479,199.932618 L94.5928479,135.566287 C93.1925894,132.511651 92.0346833,127.020046 86.2559242,122.219103 L86.2559242,122.219103 C77.676648,115.076647 67.438604,109.444663 62.9577768,102.678421 L62.9577768,102.678421 C56.7481689,93.3123701 59.037053,89.2301645 58.9993537,81.3408951 L58.9993537,81.3408951 C59.5002154,89.0336347 58.568505,94.2837891 64.5573029,100 L64.5573029,100 C71.7201637,106.828008 89.48729,115.750463 96.8601896,124.094559 L96.8601896,124.094559 L98.89595,55.9380089 L102.008832,132.657645 C111.078199,121.769892 125.35545,115.306867 131.516588,107.411983 L131.516588,107.411983 C136.600603,100.881577 138.377854,92.9473862 139.309565,88.3317424 L139.309565,88.3317424 C139.277251,94.890224 139.228781,101.61716 134.155536,109.276209 L134.155536,109.276209 C129.680095,116.036835 119.953684,124.886293 111.374408,132.023134 L111.374408,132.023134 C106.128824,136.386097 104.755493,141.327419 103.199052,144.483127 L103.199052,144.483127 L103.199052,200 C156.942051,198.309843 200,154.219777 200,100.039306 L200,100.039306 C200,45.112022 155.751831,0.516592734 100.958639,0 L100.958639,0 L99.0359759,0 Z M73.2173632,16.3007468 C73.2173632,11.2695828 77.2942697,7.19299231 82.3244291,7.19299231 L82.3244291,7.19299231 C87.3492029,7.19299231 91.4261094,11.2695828 91.4261094,16.3007468 L91.4261094,16.3007468 C91.4261094,21.3262957 87.3492029,25.397271 82.3244291,25.397271 L82.3244291,25.397271 C77.2942697,25.397271 73.2173632,21.3262957 73.2173632,16.3007468 L73.2173632,16.3007468 Z M100.522404,16.6488854 C100.522404,13.5549441 103.032098,11.0449773 106.128824,11.0449773 L106.128824,11.0449773 C109.225549,11.0449773 111.729858,13.5549441 111.729858,16.6488854 L111.729858,16.6488854 C111.729858,19.7372115 109.225549,22.2527935 106.128824,22.2527935 L106.128824,22.2527935 C103.032098,22.2527935 100.522404,19.7372115 100.522404,16.6488854 L100.522404,16.6488854 Z M126.082508,25.7510248 C126.082508,20.1471166 130.627962,15.5932394 136.234382,15.5932394 L136.234382,15.5932394 C141.840801,15.5932394 146.386256,20.1471166 146.386256,25.7510248 L146.386256,25.7510248 C146.386256,31.3661632 141.840801,35.9088102 136.234382,35.9088102 L136.234382,35.9088102 C130.627962,35.9088102 126.082508,31.3661632 126.082508,25.7510248 L126.082508,25.7510248 Z M111.729858,22.9490707 C111.729858,19.8551294 114.234166,17.3451626 117.325506,17.3451626 L117.325506,17.3451626 C120.422232,17.3451626 122.931926,19.8551294 122.931926,22.9490707 L122.931926,22.9490707 C122.931926,26.0486271 120.422232,28.5529788 117.325506,28.5529788 L117.325506,28.5529788 C114.234166,28.5529788 111.729858,26.0486271 111.729858,22.9490707 L111.729858,22.9490707 Z M86.17514,35.2069179 C86.17514,28.0532315 91.970056,22.2527935 99.1275312,22.2527935 L99.1275312,22.2527935 C106.279621,22.2527935 112.079922,28.0532315 112.079922,35.2069179 L112.079922,35.2069179 C112.079922,42.3662193 106.279621,48.1666573 99.1275312,48.1666573 L99.1275312,48.1666573 C91.970056,48.1666573 86.17514,42.3662193 86.17514,35.2069179 L86.17514,35.2069179 Z M56.0695821,32.4049638 C56.0695821,29.3110225 58.5738906,26.8066708 61.6706161,26.8066708 L61.6706161,26.8066708 C64.7619561,26.8066708 67.2716502,29.3110225 67.2716502,32.4049638 L67.2716502,32.4049638 C67.2716502,35.5045202 64.7619561,38.0088719 61.6706161,38.0088719 L61.6706161,38.0088719 C58.5738906,38.0088719 56.0695821,35.5045202 56.0695821,32.4049638 L56.0695821,32.4049638 Z M68.6719087,35.2069179 C68.6719087,31.725532 71.4939681,28.9011174 74.973072,28.9011174 L74.973072,28.9011174 C78.4467902,28.9011174 81.2742352,31.725532 81.2742352,35.2069179 L81.2742352,35.2069179 C81.2742352,38.6883037 78.4467902,41.5127183 74.973072,41.5127183 L74.973072,41.5127183 C71.4939681,41.5127183 68.6719087,38.6883037 68.6719087,35.2069179 L68.6719087,35.2069179 Z M115.575183,38.0088719 C115.575183,34.9149307 118.090263,32.4049638 121.181603,32.4049638 L121.181603,32.4049638 C124.272943,32.4049638 126.777251,34.9149307 126.777251,38.0088719 L126.777251,38.0088719 C126.777251,41.1028132 124.272943,43.6127801 121.181603,43.6127801 L121.181603,43.6127801 C118.090263,43.6127801 115.575183,41.1028132 115.575183,38.0088719 L115.575183,38.0088719 Z M138.684834,43.6127801 C138.684834,38.7781459 142.600172,34.8531641 147.431064,34.8531641 L147.431064,34.8531641 C152.267342,34.8531641 156.188065,38.7781459 156.188065,43.6127801 L156.188065,43.6127801 C156.188065,48.4474142 152.267342,52.3667808 147.431064,52.3667808 L147.431064,52.3667808 C142.600172,52.3667808 138.684834,48.4474142 138.684834,43.6127801 L138.684834,43.6127801 Z M36.1158983,40.1089337 C36.1158983,37.7842664 37.9954761,35.9088102 40.3166738,35.9088102 L40.3166738,35.9088102 C42.6378716,35.9088102 44.5174494,37.7842664 44.5174494,40.1089337 L44.5174494,40.1089337 C44.5174494,42.4279858 42.6378716,44.3090572 40.3166738,44.3090572 L40.3166738,44.3090572 C37.9954761,44.3090572 36.1158983,42.4279858 36.1158983,40.1089337 L36.1158983,40.1089337 Z M46.9679018,43.2590263 C46.9679018,39.7776405 49.7899612,36.958841 53.2690651,36.958841 L53.2690651,36.958841 C56.7481689,36.958841 59.5702283,39.7776405 59.5702283,43.2590263 L59.5702283,43.2590263 C59.5702283,46.7404122 56.7481689,49.5648268 53.2690651,49.5648268 L53.2690651,49.5648268 C49.7899612,49.5648268 46.9679018,46.7404122 46.9679018,43.2590263 L46.9679018,43.2590263 Z M159.338647,46.7684878 C159.338647,44.4438205 161.218225,42.5627492 163.539423,42.5627492 L163.539423,42.5627492 C165.855235,42.5627492 167.734813,44.4438205 167.734813,46.7684878 L167.734813,46.7684878 C167.734813,49.08754 165.855235,50.9686114 163.539423,50.9686114 L163.539423,50.9686114 C161.218225,50.9686114 159.338647,49.08754 159.338647,46.7684878 L159.338647,46.7684878 Z M73.9228781,52.7205346 C73.9228781,48.0768151 77.6820336,44.3090572 82.3244291,44.3090572 L82.3244291,44.3090572 C86.9668246,44.3090572 90.7205946,48.0768151 90.7205946,52.7205346 L90.7205946,52.7205346 C90.7205946,57.3586389 86.9668246,61.1207816 82.3244291,61.1207816 L82.3244291,61.1207816 C77.6820336,61.1207816 73.9228781,57.3586389 73.9228781,52.7205346 L73.9228781,52.7205346 Z M123.976734,53.4168117 C123.976734,49.3570667 127.272727,46.0665955 131.328091,46.0665955 L131.328091,46.0665955 C135.394227,46.0665955 138.684834,49.3570667 138.684834,53.4168117 L138.684834,53.4168117 C138.684834,57.4821719 135.394227,60.772643 131.328091,60.772643 L131.328091,60.772643 C127.272727,60.772643 123.976734,57.4821719 123.976734,53.4168117 L123.976734,53.4168117 Z M101.928048,56.9206581 C101.928048,51.5020495 106.31732,47.1166264 111.729858,47.1166264 L111.729858,47.1166264 C117.142396,47.1166264 121.531667,51.5020495 121.531667,56.9206581 L121.531667,56.9206581 C121.531667,62.3392667 117.142396,66.7246898 111.729858,66.7246898 L111.729858,66.7246898 C106.31732,66.7246898 101.928048,62.3392667 101.928048,56.9206581 L101.928048,56.9206581 Z M39.26648,52.3667808 C39.26648,50.0477287 41.1460577,48.1666573 43.4672555,48.1666573 L43.4672555,48.1666573 C45.7884533,48.1666573 47.6734166,50.0477287 47.6734166,52.3667808 L47.6734166,52.3667808 C47.6734166,54.685833 45.7884533,56.5725195 43.4672555,56.5725195 L43.4672555,56.5725195 C41.1460577,56.5725195 39.26648,54.685833 39.26648,52.3667808 L39.26648,52.3667808 Z M149.886902,59.0207199 C149.886902,55.9211635 152.391211,53.4168117 155.482551,53.4168117 L155.482551,53.4168117 C158.573891,53.4168117 161.08897,55.9211635 161.08897,59.0207199 L161.08897,59.0207199 C161.08897,62.1146611 158.573891,64.624628 155.482551,64.624628 L155.482551,64.624628 C152.391211,64.624628 149.886902,62.1146611 149.886902,59.0207199 L149.886902,59.0207199 Z M47.8996122,60.772643 C47.8996122,57.6787018 50.4093063,55.1687349 53.5006463,55.1687349 L53.5006463,55.1687349 C56.5919862,55.1687349 59.1016803,57.6787018 59.1016803,60.772643 L59.1016803,60.772643 C59.1016803,63.8665843 56.5919862,66.3765512 53.5006463,66.3765512 L53.5006463,66.3765512 C50.4093063,66.3765512 47.8996122,63.8665843 47.8996122,60.772643 L47.8996122,60.772643 Z M59.920293,67.7747206 C59.920293,62.9400865 63.8356312,59.0207199 68.6719087,59.0207199 L68.6719087,59.0207199 C73.5028005,59.0207199 77.4235243,62.9400865 77.4235243,67.7747206 L77.4235243,67.7747206 C77.4235243,72.6093548 73.5028005,76.5343366 68.6719087,76.5343366 L68.6719087,76.5343366 C63.8356312,76.5343366 59.920293,72.6093548 59.920293,67.7747206 L59.920293,67.7747206 Z M32.2221025,65.0513785 C32.2221025,61.9574373 34.7317966,59.4530855 37.8285222,59.4530855 L37.8285222,59.4530855 C40.9198621,59.4530855 43.4241706,61.9574373 43.4241706,65.0513785 L43.4241706,65.0513785 C43.4241706,68.1509349 40.9198621,70.6552867 37.8285222,70.6552867 L37.8285222,70.6552867 C34.7317966,70.6552867 32.2221025,68.1509349 32.2221025,65.0513785 L32.2221025,65.0513785 Z M161.433649,67.0784435 C161.433649,64.7537762 163.318613,62.8727048 165.63981,62.8727048 L165.63981,62.8727048 C167.961008,62.8727048 169.840586,64.7537762 169.840586,67.0784435 L169.840586,67.0784435 C169.840586,69.3974956 167.961008,71.278567 165.63981,71.278567 L165.63981,71.278567 C163.318613,71.278567 161.433649,69.3974956 161.433649,67.0784435 L161.433649,67.0784435 Z M82.3244291,70.222921 C82.3244291,66.5506205 85.3026713,63.5745971 88.9702714,63.5745971 L88.9702714,63.5745971 C92.6486428,63.5745971 95.626885,66.5506205 95.626885,70.222921 L95.626885,70.222921 C95.626885,73.9064518 92.6486428,76.8824752 88.9702714,76.8824752 L88.9702714,76.8824752 C85.3026713,76.8824752 82.3244291,73.9064518 82.3244291,70.222921 L82.3244291,70.222921 Z M116.932357,75.1249368 C116.932357,70.0769274 121.02542,65.9778764 126.082508,65.9778764 L126.082508,65.9778764 C131.139595,65.9778764 135.227273,70.0769274 135.227273,75.1249368 L135.227273,75.1249368 C135.227273,80.1841765 131.139595,84.2832276 126.082508,84.2832276 L126.082508,84.2832276 C121.02542,84.2832276 116.932357,80.1841765 116.932357,75.1249368 L116.932357,75.1249368 Z M148.486644,73.3786288 C148.486644,70.0881577 151.147135,67.4265821 154.437742,67.4265821 L154.437742,67.4265821 C157.722964,67.4265821 160.388841,70.0881577 160.388841,73.3786288 L160.388841,73.3786288 C160.388841,76.6690999 157.722964,79.3306755 154.437742,79.3306755 L154.437742,79.3306755 C151.147135,79.3306755 148.486644,76.6690999 148.486644,73.3786288 L148.486644,73.3786288 Z M101.227919,75.4843057 C101.227919,71.8007749 104.200776,68.8247515 107.873761,68.8247515 L107.873761,68.8247515 C111.552133,68.8247515 114.524989,71.8007749 114.524989,75.4843057 L114.524989,75.4843057 C114.524989,79.1566062 111.552133,82.1326296 107.873761,82.1326296 L107.873761,82.1326296 C104.200776,82.1326296 101.227919,79.1566062 101.227919,75.4843057 L101.227919,75.4843057 Z M40.8229212,78.1290359 C40.8229212,74.0692908 44.108143,70.7732046 48.1688927,70.7732046 L48.1688927,70.7732046 C52.2296424,70.7732046 55.5202499,74.0692908 55.5202499,78.1290359 L55.5202499,78.1290359 C55.5202499,82.188781 52.2296424,85.4848672 48.1688927,85.4848672 L48.1688927,85.4848672 C44.108143,85.4848672 40.8229212,82.188781 40.8229212,78.1290359 L40.8229212,78.1290359 Z M30.1647997,78.6343983 C30.1647997,76.309731 32.0443774,74.4286597 34.3655752,74.4286597 L34.3655752,74.4286597 C36.6867729,74.4286597 38.5663507,76.309731 38.5663507,78.6343983 L38.5663507,78.6343983 C38.5663507,80.9534505 36.6867729,82.8345219 34.3655752,82.8345219 L34.3655752,82.8345219 C32.0443774,82.8345219 30.1647997,80.9534505 30.1647997,78.6343983 L30.1647997,78.6343983 Z M136.465963,82.3684654 C136.465963,78.8870796 139.282637,76.0626649 142.767126,76.0626649 L142.767126,76.0626649 C146.24623,76.0626649 149.06829,78.8870796 149.06829,82.3684654 L149.06829,82.3684654 C149.06829,85.8498512 146.24623,88.6742658 142.767126,88.6742658 L142.767126,88.6742658 C139.282637,88.6742658 136.465963,85.8498512 136.465963,82.3684654 L136.465963,82.3684654 Z M71.8224903,85.6364759 C71.8224903,80.9927565 75.5870315,77.2306137 80.2240414,77.2306137 L80.2240414,77.2306137 C84.8610513,77.2306137 88.6255924,80.9927565 88.6255924,85.6364759 L88.6255924,85.6364759 C88.6255924,90.2801954 84.8610513,94.036723 80.2240414,94.036723 L80.2240414,94.036723 C75.5870315,94.036723 71.8224903,90.2801954 71.8224903,85.6364759 L71.8224903,85.6364759 Z M60.9704869,83.8845528 C60.9704869,81.5598855 62.8500646,79.6788141 65.1712624,79.6788141 L65.1712624,79.6788141 C67.4924601,79.6788141 69.3720379,81.5598855 69.3720379,83.8845528 L69.3720379,83.8845528 C69.3720379,86.2036049 67.4924601,88.0902914 65.1712624,88.0902914 L65.1712624,88.0902914 C62.8500646,88.0902914 60.9704869,86.2036049 60.9704869,83.8845528 L60.9704869,83.8845528 Z M153.037484,85.6364759 C153.037484,83.3174238 154.917062,81.4363524 157.238259,81.4363524 L157.238259,81.4363524 C159.554072,81.4363524 161.433649,83.3174238 161.433649,85.6364759 L161.433649,85.6364759 C161.433649,87.9611432 159.554072,89.8365995 157.238259,89.8365995 L157.238259,89.8365995 C154.917062,89.8365995 153.037484,87.9611432 153.037484,85.6364759 L153.037484,85.6364759 Z M119.894442,94.3118648 C119.894442,90.4430344 123.028867,87.3097872 126.895735,87.3097872 L126.895735,87.3097872 C130.762602,87.3097872 133.902413,90.4430344 133.902413,94.3118648 L133.902413,94.3118648 C133.902413,98.1806952 130.762602,101.319558 126.895735,101.319558 L126.895735,101.319558 C123.028867,101.319558 119.894442,98.1806952 119.894442,94.3118648 L119.894442,94.3118648 Z M103.769927,93.6941996 C103.769927,90.2128137 106.591986,87.3940143 110.07109,87.3940143 L110.07109,87.3940143 C113.550194,87.3940143 116.372253,90.2128137 116.372253,93.6941996 L116.372253,93.6941996 C116.372253,97.1755854 113.550194,100 110.07109,100 L110.07109,100 C106.591986,100 103.769927,97.1755854 103.769927,93.6941996 L103.769927,93.6941996 Z M41.5607497,96.2996238 C41.5607497,92.818238 44.3774235,89.9938233 47.861913,89.9938233 L47.861913,89.9938233 C51.3410168,89.9938233 54.1630763,92.818238 54.1630763,96.2996238 L54.1630763,96.2996238 C54.1630763,99.7810096 51.3410168,102.605424 47.861913,102.605424 L47.861913,102.605424 C44.3774235,102.605424 41.5607497,99.7810096 41.5607497,96.2996238 L41.5607497,96.2996238 Z M140.085093,97.8943231 C140.085093,95.1878264 142.277036,92.9923073 144.985997,92.9923073 L144.985997,92.9923073 C147.689573,92.9923073 149.886902,95.1878264 149.886902,97.8943231 L149.886902,97.8943231 C149.886902,100.595205 147.689573,102.796339 144.985997,102.796339 L144.985997,102.796339 C142.277036,102.796339 140.085093,100.595205 140.085093,97.8943231 L140.085093,97.8943231 Z M81.9905213,100.348139 C81.9905213,96.5691504 85.0549332,93.5032849 88.8356312,93.5032849 L88.8356312,93.5032849 C92.6163292,93.5032849 95.6861267,96.5691504 95.6861267,100.348139 L95.6861267,100.348139 C95.6861267,104.132742 92.6163292,107.204223 88.8356312,107.204223 L88.8356312,107.204223 C85.0549332,107.204223 81.9905213,104.132742 81.9905213,100.348139 L81.9905213,100.348139 Z M68.887333,97.7932506 C68.887333,95.4685833 70.7669108,93.5875119 73.0881086,93.5875119 L73.0881086,93.5875119 C75.4093063,93.5875119 77.2888841,95.4685833 77.2888841,97.7932506 L77.2888841,97.7932506 C77.2888841,100.112303 75.4093063,101.993374 73.0881086,101.993374 L73.0881086,101.993374 C70.7669108,101.993374 68.887333,100.112303 68.887333,97.7932506 L68.887333,97.7932506 Z" id="Fill-1"></path>
        </g>
    </g>
</svg>