<?xml version="1.0" encoding="utf-8"?>
<!-- Generator: Adobe Illustrator 21.1.0, SVG Export Plug-In . SVG Version: 6.00 Build 0)  -->
<svg version="1.1" id="Layer_1" xmlns="http://www.w3.org/2000/svg" xmlns:xlink="http://www.w3.org/1999/xlink" x="0px" y="0px"
	 viewBox="0 0 200 200" style="enable-background:new 0 0 200 200;" xml:space="preserve">
<style type="text/css">
	.st0{fill:#FFFFFF;}
</style> 
<title>Fill 1</title>
<desc>Created with Sketch.</desc>
<g id="Symbols">
	<g id="Icons_x2F_whitetree">
		<path id="Fill-1" class="st0" d="M99,0C44.3,0.5,0,45.1,0,100l0,0c0,53.4,41.9,97.1,94.6,99.9l0,0v-64.4
			c-1.4-3.1-2.6-8.5-8.3-13.3l0,0c-8.6-7.1-18.8-12.8-23.3-19.5l0,0c-6.2-9.4-3.9-13.4-4-21.3l0,0c0.5,7.7-0.4,12.9,5.6,18.7l0,0
			c7.2,6.8,24.9,15.8,32.3,24.1l0,0l2-68.2l3.1,76.7c9.1-10.9,23.3-17.4,29.5-25.2l0,0c5.1-6.5,6.9-14.5,7.8-19.1l0,0
			c0,6.6-0.1,13.3-5.2,20.9l0,0c-4.5,6.8-14.2,15.6-22.8,22.7l0,0c-5.2,4.4-6.6,9.3-8.2,12.5l0,0V200c53.7-1.7,96.8-45.8,96.8-100
			l0,0c0-54.9-44.2-99.5-99-100l0,0H99z M73.2,16.3c0-5,4.1-9.1,9.1-9.1l0,0c5,0,9.1,4.1,9.1,9.1l0,0c0,5-4.1,9.1-9.1,9.1l0,0
			C77.3,25.4,73.2,21.3,73.2,16.3L73.2,16.3z M100.5,16.6c0-3.1,2.5-5.6,5.6-5.6l0,0c3.1,0,5.6,2.5,5.6,5.6l0,0
			c0,3.1-2.5,5.6-5.6,5.6l0,0C103,22.3,100.5,19.7,100.5,16.6L100.5,16.6z M126.1,25.8c0-5.6,4.5-10.2,10.2-10.2l0,0
			c5.6,0,10.2,4.6,10.2,10.2l0,0c0,5.6-4.5,10.2-10.2,10.2l0,0C130.6,35.9,126.1,31.4,126.1,25.8L126.1,25.8z M111.7,22.9
			c0-3.1,2.5-5.6,5.6-5.6l0,0c3.1,0,5.6,2.5,5.6,5.6l0,0c0,3.1-2.5,5.6-5.6,5.6l0,0C114.2,28.6,111.7,26,111.7,22.9L111.7,22.9z
			 M86.2,35.2c0-7.2,5.8-13,13-13l0,0c7.2,0,13,5.8,13,13l0,0c0,7.2-5.8,13-13,13l0,0C92,48.2,86.2,42.4,86.2,35.2L86.2,35.2z
			 M56.1,32.4c0-3.1,2.5-5.6,5.6-5.6l0,0c3.1,0,5.6,2.5,5.6,5.6l0,0c0,3.1-2.5,5.6-5.6,5.6l0,0C58.6,38,56.1,35.5,56.1,32.4
			L56.1,32.4z M68.7,35.2c0-3.5,2.8-6.3,6.3-6.3l0,0c3.5,0,6.3,2.8,6.3,6.3l0,0c0,3.5-2.8,6.3-6.3,6.3l0,0
			C71.5,41.5,68.7,38.7,68.7,35.2L68.7,35.2z M115.6,38c0-3.1,2.5-5.6,5.6-5.6l0,0c3.1,0,5.6,2.5,5.6,5.6l0,0c0,3.1-2.5,5.6-5.6,5.6
			l0,0C118.1,43.6,115.6,41.1,115.6,38L115.6,38z M138.7,43.6c0-4.8,3.9-8.8,8.7-8.8l0,0c4.8,0,8.8,3.9,8.8,8.8l0,0
			c0,4.8-3.9,8.8-8.8,8.8l0,0C142.6,52.4,138.7,48.4,138.7,43.6L138.7,43.6z M36.1,40.1c0-2.3,1.9-4.2,4.2-4.2l0,0
			c2.3,0,4.2,1.9,4.2,4.2l0,0c0,2.3-1.9,4.2-4.2,4.2l0,0C38,44.3,36.1,42.4,36.1,40.1L36.1,40.1z M47,43.3c0-3.5,2.8-6.3,6.3-6.3
			l0,0c3.5,0,6.3,2.8,6.3,6.3l0,0c0,3.5-2.8,6.3-6.3,6.3l0,0C49.8,49.6,47,46.7,47,43.3L47,43.3z M159.3,46.8c0-2.3,1.9-4.2,4.2-4.2
			l0,0c2.3,0,4.2,1.9,4.2,4.2l0,0c0,2.3-1.9,4.2-4.2,4.2l0,0C161.2,51,159.3,49.1,159.3,46.8L159.3,46.8z M73.9,52.7
			c0-4.6,3.8-8.4,8.4-8.4l0,0c4.6,0,8.4,3.8,8.4,8.4l0,0c0,4.6-3.8,8.4-8.4,8.4l0,0C77.7,61.1,73.9,57.4,73.9,52.7L73.9,52.7z
			 M124,53.4c0-4.1,3.3-7.4,7.4-7.4l0,0c4.1,0,7.4,3.3,7.4,7.4l0,0c0,4.1-3.3,7.4-7.4,7.4l0,0C127.3,60.8,124,57.5,124,53.4
			L124,53.4z M101.9,56.9c0-5.4,4.4-9.8,9.8-9.8l0,0c5.4,0,9.8,4.4,9.8,9.8l0,0c0,5.4-4.4,9.8-9.8,9.8l0,0
			C106.3,66.7,101.9,62.3,101.9,56.9L101.9,56.9z M39.3,52.4c0-2.3,1.9-4.2,4.2-4.2l0,0c2.3,0,4.2,1.9,4.2,4.2l0,0
			c0,2.3-1.9,4.2-4.2,4.2l0,0C41.1,56.6,39.3,54.7,39.3,52.4L39.3,52.4z M149.9,59c0-3.1,2.5-5.6,5.6-5.6l0,0c3.1,0,5.6,2.5,5.6,5.6
			l0,0c0,3.1-2.5,5.6-5.6,5.6l0,0C152.4,64.6,149.9,62.1,149.9,59L149.9,59z M47.9,60.8c0-3.1,2.5-5.6,5.6-5.6l0,0
			c3.1,0,5.6,2.5,5.6,5.6l0,0c0,3.1-2.5,5.6-5.6,5.6l0,0C50.4,66.4,47.9,63.9,47.9,60.8L47.9,60.8z M59.9,67.8
			c0-4.8,3.9-8.8,8.8-8.8l0,0c4.8,0,8.8,3.9,8.8,8.8l0,0c0,4.8-3.9,8.8-8.8,8.8l0,0C63.8,76.5,59.9,72.6,59.9,67.8L59.9,67.8z
			 M32.2,65.1c0-3.1,2.5-5.6,5.6-5.6l0,0c3.1,0,5.6,2.5,5.6,5.6l0,0c0,3.1-2.5,5.6-5.6,5.6l0,0C34.7,70.7,32.2,68.2,32.2,65.1
			L32.2,65.1z M161.4,67.1c0-2.3,1.9-4.2,4.2-4.2l0,0c2.3,0,4.2,1.9,4.2,4.2l0,0c0,2.3-1.9,4.2-4.2,4.2l0,0
			C163.3,71.3,161.4,69.4,161.4,67.1L161.4,67.1z M82.3,70.2c0-3.7,3-6.6,6.6-6.6l0,0c3.7,0,6.7,3,6.7,6.6l0,0c0,3.7-3,6.7-6.7,6.7
			l0,0C85.3,76.9,82.3,73.9,82.3,70.2L82.3,70.2z M116.9,75.1c0-5,4.1-9.1,9.2-9.1l0,0c5.1,0,9.1,4.1,9.1,9.1l0,0
			c0,5.1-4.1,9.2-9.1,9.2l0,0C121,84.3,116.9,80.2,116.9,75.1L116.9,75.1z M148.5,73.4c0-3.3,2.7-6,6-6l0,0c3.3,0,6,2.7,6,6l0,0
			c0,3.3-2.7,6-6,6l0,0C151.1,79.3,148.5,76.7,148.5,73.4L148.5,73.4z M101.2,75.5c0-3.7,3-6.7,6.6-6.7l0,0c3.7,0,6.7,3,6.7,6.7l0,0
			c0,3.7-3,6.6-6.7,6.6l0,0C104.2,82.1,101.2,79.2,101.2,75.5L101.2,75.5z M40.8,78.1c0-4.1,3.3-7.4,7.3-7.4l0,0
			c4.1,0,7.4,3.3,7.4,7.4l0,0c0,4.1-3.3,7.4-7.4,7.4l0,0C44.1,85.5,40.8,82.2,40.8,78.1L40.8,78.1z M30.2,78.6
			c0-2.3,1.9-4.2,4.2-4.2l0,0c2.3,0,4.2,1.9,4.2,4.2l0,0c0,2.3-1.9,4.2-4.2,4.2l0,0C32,82.8,30.2,81,30.2,78.6L30.2,78.6z
			 M136.5,82.4c0-3.5,2.8-6.3,6.3-6.3l0,0c3.5,0,6.3,2.8,6.3,6.3l0,0c0,3.5-2.8,6.3-6.3,6.3l0,0C139.3,88.7,136.5,85.8,136.5,82.4
			L136.5,82.4z M71.8,85.6c0-4.6,3.8-8.4,8.4-8.4l0,0c4.6,0,8.4,3.8,8.4,8.4l0,0c0,4.6-3.8,8.4-8.4,8.4l0,0
			C75.6,94,71.8,90.3,71.8,85.6L71.8,85.6z M61,83.9c0-2.3,1.9-4.2,4.2-4.2l0,0c2.3,0,4.2,1.9,4.2,4.2l0,0c0,2.3-1.9,4.2-4.2,4.2
			l0,0C62.9,88.1,61,86.2,61,83.9L61,83.9z M153,85.6c0-2.3,1.9-4.2,4.2-4.2l0,0c2.3,0,4.2,1.9,4.2,4.2l0,0c0,2.3-1.9,4.2-4.2,4.2
			l0,0C154.9,89.8,153,88,153,85.6L153,85.6z M119.9,94.3c0-3.9,3.1-7,7-7l0,0c3.9,0,7,3.1,7,7l0,0c0,3.9-3.1,7-7,7l0,0
			C123,101.3,119.9,98.2,119.9,94.3L119.9,94.3z M103.8,93.7c0-3.5,2.8-6.3,6.3-6.3l0,0c3.5,0,6.3,2.8,6.3,6.3l0,0
			c0,3.5-2.8,6.3-6.3,6.3l0,0C106.6,100,103.8,97.2,103.8,93.7L103.8,93.7z M41.6,96.3c0-3.5,2.8-6.3,6.3-6.3l0,0
			c3.5,0,6.3,2.8,6.3,6.3l0,0c0,3.5-2.8,6.3-6.3,6.3l0,0C44.4,102.6,41.6,99.8,41.6,96.3L41.6,96.3z M140.1,97.9
			c0-2.7,2.2-4.9,4.9-4.9l0,0c2.7,0,4.9,2.2,4.9,4.9l0,0c0,2.7-2.2,4.9-4.9,4.9l0,0C142.3,102.8,140.1,100.6,140.1,97.9L140.1,97.9z
			 M82,100.3c0-3.8,3.1-6.8,6.8-6.8l0,0c3.8,0,6.9,3.1,6.9,6.8l0,0c0,3.8-3.1,6.9-6.9,6.9l0,0C85.1,107.2,82,104.1,82,100.3
			L82,100.3z M68.9,97.8c0-2.3,1.9-4.2,4.2-4.2l0,0c2.3,0,4.2,1.9,4.2,4.2l0,0c0,2.3-1.9,4.2-4.2,4.2l0,0
			C70.8,102,68.9,100.1,68.9,97.8L68.9,97.8z"/>
	</g>
</g>
</svg>
