<?xml version="1.0" encoding="utf-8"?>
<!-- Generator: Adobe Illustrator 20.1.0, SVG Export Plug-In . SVG Version: 6.00 Build 0)  -->
<svg version="1.1" id="Layer_1" xmlns="http://www.w3.org/2000/svg" xmlns:xlink="http://www.w3.org/1999/xlink" x="0px" y="0px"
	 viewBox="0 0 40 40" style="enable-background:new 0 0 40 40;" xml:space="preserve">
<style type="text/css">
	.st0{opacity:0.47;}
	.st1{fill:#2C2D2C;}
	.st2{fill:#010101;}
	.st3{fill:#727577;}
	.st4{fill:#AFB1B4;}
	.st5{clip-path:url(#SVGID_2_);}
	.st6{fill:#D0D1D2;}
	.st7{fill:#5D5D5D;}
	.st8{fill:#6D6E71;stroke:#000000;stroke-width:0.25;stroke-miterlimit:10;}
	.st9{fill:#6D6E71;stroke:#000000;stroke-miterlimit:10;}
	.st10{fill:#6D6E71;stroke:#000000;stroke-width:7.000000e-02;stroke-linejoin:round;}
	.st11{fill:none;stroke:#000000;stroke-miterlimit:10;}
	.st12{fill:none;stroke:#000000;stroke-width:7.000000e-02;stroke-linejoin:round;}
	.st13{fill:#EFEFF0;}
	.st14{opacity:0.4;}
	.st15{clip-path:url(#SVGID_4_);}
	.st16{fill:#CEDEEF;}
	.st17{fill:#FFFFFF;}
	.st18{fill:none;stroke:#E3F2FA;stroke-width:0.76;stroke-miterlimit:10;}
	.st19{fill:none;stroke:#E3F2FA;stroke-width:0.2;stroke-miterlimit:10;stroke-dasharray:1.51,1.51;}
	.st20{fill:none;stroke:#E3F2FA;stroke-width:0.13;stroke-miterlimit:10;stroke-dasharray:1.5,1.5;}
</style>
<title>Asset 7</title>
<g>
	<g id="Layer_2">
		<g id="content_header">
			<g class="st0">
				<path class="st1" d="M34.8,17.7H11.1c-0.1,0-0.2-0.1-0.3-0.1v-0.1l-2.4,0.2l-2.7,0.6l0.3,2h0.9c-0.2,0.4,0,0.9,0,1.4v12.9
					c-0.1,2.4,1.7,4.5,4.2,4.8h23.8c2.6-0.2,4.5-2.3,4.5-4.8V21.8c0-2.3-1.9-4.1-4.3-4.1C34.9,17.7,34.9,17.7,34.8,17.7"/>
				<path class="st2" d="M34.4,39.1H11.5c-2.6,0-4.8-2.1-4.8-4.6V22.6c0-2.5,2.1-4.6,4.8-4.6h22.8c2.6,0,4.8,2.1,4.8,4.6v11.9
					C39.2,37.1,37,39.2,34.4,39.1"/>
				<path class="st3" d="M22,21.1l6.1-14c0.1-0.3,0.5-0.4,0.7-0.3L39,11c0.3,0.1,0.4,0.4,0.3,0.7l-6.1,14C33,26,32.7,26.1,32.4,26
					l-10.2-4.2C22,21.7,21.8,21.4,22,21.1"/>
				<polygon points="29.3,24.7 35.9,9.7 37.2,10.2 30.6,25.3 				"/>
				<path class="st4" d="M14.1,21l1.2-15.2c0-0.3,0.3-0.5,0.6-0.5c0,0,0,0,0,0l10.9,0.8c0.3,0,0.5,0.3,0.5,0.6c0,0,0,0,0,0
					l-1.2,15.2c0,0.3-0.3,0.5-0.6,0.5c0,0,0,0,0,0l-11-0.8C14.3,21.5,14.1,21.3,14.1,21C14.1,21,14.1,21,14.1,21"/>
				<g>
					<g>
						<defs>
							<rect id="SVGID_1_" x="14.2" y="9.8" width="8.3" height="12.3"/>
						</defs>
						<clipPath id="SVGID_2_">
							<use xlink:href="#SVGID_1_"  style="overflow:visible;"/>
						</clipPath>
						<g class="st5">
							<path class="st6" d="M22.5,19.9c0.4-5.3-2.5-9.8-6.4-10.1c-0.3,0-0.7,0-1,0l-0.8,10.7c0,0.5,0.4,1,0.9,1l7,0.5
								C22.4,21.4,22.5,20.7,22.5,19.9"/>
						</g>
					</g>
				</g>
				<polygon points="22.4,22.1 23.7,5.8 25.2,5.9 23.8,22.2 				"/>
				<polygon class="st7" points="16.7,10.6 21,23.6 21.6,13.3 17.3,0.3 				"/>
				<polygon class="st8" points="16.7,10.6 21,23.6 21.6,13.3 17.3,0.3 				"/>
				<path class="st9" d="M15.7,6.2L15.7,6.2c0,0.1,0.1,0.1,0.2,0c0,0,0,0,0,0c0.3-0.2,0.7-0.3,1-0.2c0.3,0,0.4,0.4,0.4,0.4L19,12
					c0,0.1,0.1,0.1,0.1,0.1c0,0,0,0,0,0c0.1,0,0.1-0.1,0.1-0.2l-1.7-5.5c0,0-0.1-0.5-0.6-0.6c-0.4,0-0.8,0.1-1.2,0.3
					C15.8,6.1,15.8,6.2,15.7,6.2"/>
				<path class="st10" d="M15.7,6.2L15.7,6.2c0,0.1,0.1,0.1,0.2,0c0,0,0,0,0,0c0.3-0.2,0.7-0.3,1-0.2c0.3,0,0.4,0.4,0.4,0.4L19,12
					c0,0.1,0.1,0.1,0.1,0.1c0,0,0,0,0,0c0.1,0,0.1-0.1,0.1-0.2l-1.7-5.5c0,0-0.1-0.5-0.6-0.6c-0.4,0-0.8,0.1-1.2,0.3
					C15.7,6.1,15.7,6.2,15.7,6.2z"/>
				<path class="st9" d="M15.5,6.5l-0.1-0.4c0,0-0.1,0-0.1,0l-2,0.6c0,0,0,0.1,0,0.1l0.1,0.4c0,0,0.1,0,0.1,0l2-0.6
					C15.6,6.6,15.6,6.5,15.5,6.5"/>
				<path class="st10" d="M15.5,6.5l-0.1-0.4c0,0-0.1,0-0.1,0l-2,0.6c0,0,0,0.1,0,0.1l0.1,0.4c0,0,0.1,0,0.1,0l2-0.6
					C15.6,6.6,15.6,6.5,15.5,6.5z"/>
				<path class="st9" d="M15.5,6.5l-0.1-0.4c0,0-0.1,0-0.1,0l-2,0.6c0,0,0,0.1,0,0.1l0.1,0.4c0,0,0.1,0,0.1,0l2-0.6
					C15.6,6.6,15.6,6.5,15.5,6.5"/>
				<path class="st10" d="M15.5,6.5l-0.1-0.4c0,0-0.1,0-0.1,0l-2,0.6c0,0,0,0.1,0,0.1l0.1,0.4c0,0,0.1,0,0.1,0l2-0.6
					C15.6,6.6,15.6,6.5,15.5,6.5z"/>
				<path class="st9" d="M15.6,5.9c-0.2,0.1-0.3,0.3-0.2,0.5c0.1,0.2,0.3,0.3,0.5,0.2s0.3-0.3,0.2-0.5c0,0,0,0,0,0
					C16,5.9,15.8,5.8,15.6,5.9"/>
				<path class="st10" d="M15.6,5.9c0.2-0.1,0.4,0,0.5,0.2c0.1,0.2,0,0.4-0.2,0.5c-0.2,0.1-0.4,0-0.5-0.2S15.4,5.9,15.6,5.9z"/>
				<line class="st11" x1="15" y1="6.3" x2="13.2" y2="6.8"/>
				<line class="st12" x1="15" y1="6.3" x2="13.2" y2="6.8"/>
				<line class="st11" x1="13.2" y1="7" x2="14.9" y2="6.5"/>
				<line class="st12" x1="13.2" y1="7" x2="14.9" y2="6.5"/>
				<line class="st11" x1="15" y1="6.6" x2="13.3" y2="7.1"/>
				<line class="st12" x1="15" y1="6.6" x2="13.3" y2="7.1"/>
				<path class="st9" d="M16.7,10.7l2.3,7.1l-2.8,0.8c0.9-1.8,0.2-3.9-1.7-4.8c-0.2-0.1-0.4-0.2-0.6-0.2c1.3-1.5,1-3.8-0.6-5
					c-0.2-0.1-0.4-0.3-0.6-0.4L16.9,7L16.7,10.7L16.7,10.7"/>
				<path class="st8" d="M16.7,10.7l2.3,7.1l-2.8,0.8c0.9-1.8,0.2-3.9-1.7-4.8c-0.2-0.1-0.4-0.2-0.6-0.2c1.3-1.5,1-3.8-0.6-5
					c-0.2-0.1-0.4-0.3-0.6-0.4L16.9,7L16.7,10.7L16.7,10.7z"/>
				<path class="st9" d="M16.7,10.7l0.3,0.9l-2.3,0.7c0.5-1.6-0.3-3.3-1.8-4.1L16.9,7L16.7,10.7L16.7,10.7"/>
				<path class="st8" d="M16.7,10.7l0.3,0.9l-2.3,0.7c0.5-1.6-0.3-3.3-1.8-4.1L16.9,7L16.7,10.7L16.7,10.7z"/>
				<path class="st7" d="M4.7,9l1.5,1.3l1.2-1.4c1.1-1.2,3-1.4,4.3-0.4l4.8,4.1c1.2,1.2,1.2,3,0.1,4.2l-1.2,1.4l1.6,1.4
					c0.6,0.6,0.6,1.6,0,2.2c0,0,0,0,0,0l-1.3,1.5c-0.5,0.7-1.5,0.8-2.2,0.3c0,0,0,0,0,0L1.2,12.9c-0.6-0.6-0.6-1.6,0-2.2
					c0,0,0,0,0,0l1.3-1.5C3.1,8.5,4.1,8.4,4.7,9C4.7,9,4.7,9,4.7,9"/>
				<path class="st13" d="M7.4,8.8C7.8,8.5,8.2,8.2,8.7,8l0,0l2.4,2c0.2,0.2,0.2,0.5,0,0.7c0,0,0,0,0,0l-1.3,1.4
					c-0.2,0.2-0.5,0.3-0.8,0.1c0,0,0,0,0,0L6.3,10L7.4,8.8z"/>
				<g class="st14">
					<g>
						<defs>
							<rect id="SVGID_3_" x="5.4" y="10.9" width="9.4" height="8.6"/>
						</defs>
						<clipPath id="SVGID_4_">
							<use xlink:href="#SVGID_3_"  style="overflow:visible;"/>
						</clipPath>
						<g class="st15">
							<path class="st16" d="M10.6,14.3l-2.9,3.3l-1.6-1.4c-1.1-1.5-1-3.5,0.2-4.9l0.3-0.3L10.6,14.3z"/>
							<path class="st13" d="M7.6,13.5L9.4,15c0,0,0.1,0,0.2,0c0,0,0,0,0,0l0.4-0.4c0,0,0-0.1,0-0.2c0,0,0,0,0,0l-1.7-1.5
								c0,0-0.1,0-0.2,0c0,0,0,0,0,0l-0.4,0.4C7.6,13.3,7.6,13.4,7.6,13.5C7.6,13.5,7.6,13.5,7.6,13.5"/>
							<path class="st16" d="M10.9,14.5l-2.9,3.2l1.6,1.4c1.7,0.8,3.7,0.4,5-1l0.3-0.3L10.9,14.5z"/>
							<path class="st13" d="M10.4,15.8l1.7,1.5c0,0,0.1,0,0.2,0c0,0,0,0,0,0l0.4-0.5c0,0,0-0.1,0-0.2c0,0,0,0,0,0l-1.7-1.5
								c0,0-0.1,0-0.2,0c0,0,0,0,0,0l-0.4,0.4C10.4,15.6,10.3,15.6,10.4,15.8C10.4,15.7,10.4,15.7,10.4,15.8"/>
						</g>
					</g>
				</g>
				<path d="M4.2,16.4c0.9-1,0.8-2.5-0.2-3.3c-1-0.9-2.5-0.8-3.4,0.2s-0.8,2.5,0.2,3.3c0,0,0,0,0,0C1.8,17.4,3.4,17.4,4.2,16.4"/>
				<path class="st17" d="M3.2,15.5c0.4-0.4,0.3-1.1-0.1-1.5c-0.4-0.4-1.1-0.3-1.5,0.1c-0.4,0.4-0.3,1.1,0.1,1.4
					C2.1,16,2.8,15.9,3.2,15.5C3.2,15.5,3.2,15.5,3.2,15.5"/>
				<path class="st2" d="M13.2,24c0.9-1,0.8-2.5-0.2-3.3c-1-0.9-2.5-0.8-3.4,0.2c-0.9,1-0.8,2.5,0.2,3.3c0,0,0,0,0,0
					C10.8,25.1,12.3,25,13.2,24"/>
				<path class="st17" d="M12.2,23.1c0.4-0.4,0.3-1.1-0.1-1.5s-1.1-0.3-1.5,0.1c-0.4,0.4-0.3,1.1,0.1,1.4
					C11.1,23.6,11.8,23.6,12.2,23.1C12.2,23.2,12.2,23.2,12.2,23.1"/>
				<path class="st1" d="M34.2,18.2H6v21.7h28.2c2.5,0,4.5-2,4.5-4.4V22.6C38.7,20.2,36.7,18.3,34.2,18.2"/>
				<line class="st18" x1="6.3" y1="19.2" x2="6.6" y2="19.2"/>
				<path class="st19" d="M7.2,19.3h26.7c2.1,0,3.8,1.7,3.8,3.7v12.3c0,2-1.7,3.7-3.8,3.7H6.9"/>
				<line class="st18" x1="6.6" y1="38.9" x2="6.3" y2="38.9"/>
				<polygon class="st1" points="39.5,31.3 38.7,31.8 38.7,26.4 39.5,25.9 				"/>
				<path class="st1" d="M38.7,26.4h-8.2c-0.4,0-0.8,0.4-0.8,0.8l0,0V31c0,0.4,0.4,0.8,0.8,0.8l0,0h8.2V26.4z"/>
				<path class="st20" d="M39.6,26.4l-0.8,0.6H31c-0.4,0-0.7,0.3-0.7,0.7v0v2.8c0,0.4,0.3,0.7,0.7,0.7h0h7.7l0.8-0.5"/>
				<path class="st13" d="M34.2,29.1c0,1.4-1.2,2.5-2.6,2.5s-2.6-1.1-2.6-2.5c0-1.4,1.2-2.5,2.6-2.5c0,0,0,0,0,0
					C33.1,26.6,34.2,27.7,34.2,29.1"/>
			</g>
		</g>
	</g>
</g>
</svg>
