<?xml version="1.0" encoding="utf-8"?>
<!-- Generator: Adobe Illustrator 20.1.0, SVG Export Plug-In . SVG Version: 6.00 Build 0)  -->
<svg version="1.1" id="Layer_1" xmlns="http://www.w3.org/2000/svg" xmlns:xlink="http://www.w3.org/1999/xlink" x="0px" y="0px"
	 viewBox="0 0 27 27" style="enable-background:new 0 0 27 27;" xml:space="preserve">
<style type="text/css">
	.st0{opacity:0.6;fill:#00467E;}
	.st1{fill:#FFFFFF;}
</style>
<g>
	<path class="st0" d="M25.2,26H1.8C1.4,26,1,25.6,1,25.2V1.8C1,1.4,1.4,1,1.8,1h23.3C25.6,1,26,1.4,26,1.8v23.3
		C26,25.6,25.6,26,25.2,26z"/>
	<g>
		<g>
			<path class="st1" d="M21.8,22c0.2-0.9,0.3-2.2,0.3-4.1c0-1.9-0.1-3.2-0.3-4.1c-0.1-0.5-0.3-0.8-0.7-1.2c-0.3-0.3-0.7-0.5-1.2-0.5
				c-1.4-0.2-3.6-0.2-6.5-0.2c-2.9,0-5,0.1-6.5,0.2c-0.5,0.1-0.9,0.2-1.2,0.5c-0.3,0.3-0.6,0.7-0.7,1.2c-0.2,0.9-0.3,2.3-0.3,4.1
				c0,1.8,0.1,3.2,0.3,4.1c0.1,0.5,0.3,0.8,0.7,1.2c0.3,0.3,0.7,0.5,1.2,0.6c1.4,0.2,3.6,0.2,6.5,0.2c2.9,0,5.1-0.1,6.5-0.2
				c0.5-0.1,0.8-0.2,1.2-0.6C21.5,22.9,21.7,22.5,21.8,22L21.8,22z M9.8,13.9V15H8.5v6.7H7.4V15H6.1v-1.1H9.8z M10.3,7.7L11.7,3
				h-1.2L9.7,6.1L8.9,3H7.6C7.7,3.3,7.8,3.6,8,4.1C8.2,4.6,8.3,5,8.4,5.2C8.7,6.3,9,7.1,9.1,7.7v3.2h1.2V7.7z M12.9,15.9v5.8h-1.1
				v-0.6c-0.4,0.5-0.8,0.7-1.2,0.7c-0.3,0-0.6-0.1-0.7-0.4c-0.1-0.2-0.1-0.5-0.1-0.9v-4.6h1v4.3c0,0.3,0,0.4,0,0.4
				c0,0.2,0.1,0.2,0.2,0.2c0.2,0,0.4-0.2,0.7-0.5v-4.4H12.9z M14.5,10.3c0.2-0.3,0.3-0.7,0.3-1.4v-2c0-0.6-0.1-1.1-0.3-1.4
				c-0.3-0.4-0.7-0.6-1.2-0.6c-0.5,0-0.9,0.2-1.2,0.6c-0.2,0.3-0.3,0.8-0.3,1.4v2c0,0.6,0.1,1.1,0.3,1.4c0.3,0.4,0.7,0.6,1.2,0.6
				C13.8,10.9,14.2,10.7,14.5,10.3L14.5,10.3z M13.8,6.7v2.5c0,0.5-0.2,0.8-0.5,0.8c-0.3,0-0.5-0.3-0.5-0.8V6.7
				c0-0.5,0.2-0.8,0.5-0.8C13.6,5.9,13.8,6.2,13.8,6.7z M16.8,16.5c0.1,0.2,0.1,0.6,0.1,1.2V20c0,0.5,0,0.9-0.1,1.2
				c-0.1,0.4-0.4,0.7-0.8,0.7c-0.4,0-0.7-0.2-1.1-0.6v0.6h-1.1v-7.8h1.1v2.5c0.3-0.4,0.7-0.6,1.1-0.6C16.4,15.8,16.7,16.1,16.8,16.5
				L16.8,16.5z M15.4,20.8c0.3,0,0.5-0.3,0.5-0.8v-2.5c0-0.5-0.2-0.8-0.5-0.8c-0.2,0-0.4,0.1-0.5,0.3v3.5
				C15.1,20.7,15.2,20.8,15.4,20.8L15.4,20.8z M17.7,10.9h1.1V5h-1.1v4.5C17.4,9.8,17.2,10,17,10c-0.2,0-0.2-0.1-0.3-0.3
				c0,0,0-0.2,0-0.4V5h-1.1v4.6c0,0.4,0,0.7,0.1,0.9c0.1,0.3,0.3,0.4,0.7,0.4c0.4,0,0.8-0.2,1.2-0.7V10.9z M20.9,19.7v0.1
				c0,0.3,0,0.5,0,0.7c0,0.2-0.1,0.4-0.2,0.6c-0.3,0.4-0.7,0.6-1.3,0.6c-0.5,0-1-0.2-1.3-0.6c-0.2-0.3-0.3-0.7-0.3-1.4v-2
				c0-0.6,0.1-1.1,0.3-1.4c0.3-0.4,0.7-0.6,1.3-0.6c0.5,0,0.9,0.2,1.2,0.6c0.2,0.3,0.3,0.7,0.3,1.4V19h-2.1v1c0,0.5,0.2,0.8,0.5,0.8
				c0.3,0,0.4-0.1,0.5-0.4c0,0,0,0,0-0.1c0-0.1,0-0.1,0-0.3c0-0.1,0-0.2,0-0.3H20.9z M18.8,18.1h1v-0.5c0-0.5-0.2-0.8-0.5-0.8
				c-0.3,0-0.5,0.3-0.5,0.8V18.1z"/>
		</g>
	</g>
</g>
<g>
</g>
<g>
</g>
<g>
</g>
<g>
</g>
<g>
</g>
<g>
</g>
<g>
</g>
<g>
</g>
<g>
</g>
<g>
</g>
<g>
</g>
<g>
</g>
<g>
</g>
<g>
</g>
<g>
</g>
</svg>
