<?xml version="1.0" encoding="utf-8"?>
<!-- Generator: Adobe Illustrator 20.1.0, SVG Export Plug-In . SVG Version: 6.00 Build 0)  -->
<svg version="1.1" id="Layer_1" xmlns="http://www.w3.org/2000/svg" xmlns:xlink="http://www.w3.org/1999/xlink" x="0px" y="0px"
	 viewBox="0 0 27 27" style="enable-background:new 0 0 27 27;" xml:space="preserve">
<style type="text/css">
	.st0{opacity:0.6;fill:#00467E;}
	.st1{fill:#FFFFFF;}
</style>
<g>
	<path class="st0" d="M25.2,26H1.8C1.4,26,1,25.6,1,25.2V1.8C1,1.4,1.4,1,1.8,1h23.4C25.6,1,26,1.4,26,1.8v23.4
		C26,25.6,25.6,26,25.2,26z"/>
	<path id="XMLID_70_" class="st1" d="M20.5,9.6c0,0.1,0,0.3,0,0.4c0,4.5-3.6,9.8-10.2,9.8c-2,0-3.9-0.6-5.5-1.5c0.3,0,0.6,0,0.9,0
		c1.7,0,3.2-0.5,4.4-1.5c-1.6,0-2.9-1-3.3-2.4c0.2,0,0.4,0.1,0.7,0.1c0.3,0-0.1,0,0.2-0.1C6,14.1,4,12.7,4,11c0,0,0,0,0,0
		c0,0.3,1.8,0.4,2.4,0.4c-1-0.6-1.2-1.7-1.2-2.9c0-0.6,0.4-1.2,0.7-1.7c1.8,2.1,4.5,3.4,7.5,3.6c-0.1-0.3,0-0.5,0-0.8
		c0-1.9,1.6-3.4,3.6-3.4c1,0,2,0.4,2.6,1.1c0.8-0.2,1.6-0.4,2.3-0.8c-0.3,0.8-0.8,1.5-1.6,1.9c0.7-0.1,1.4-0.3,2.1-0.5
		C21.8,8.5,21.2,9.1,20.5,9.6z"/>
</g>
<g>
</g>
<g>
</g>
<g>
</g>
<g>
</g>
<g>
</g>
<g>
</g>
<g>
</g>
<g>
</g>
<g>
</g>
<g>
</g>
<g>
</g>
<g>
</g>
<g>
</g>
<g>
</g>
<g>
</g>
</svg>
