<?xml version="1.0" encoding="utf-8"?>
<!-- Generator: Adobe Illustrator 20.1.0, SVG Export Plug-In . SVG Version: 6.00 Build 0)  -->
<svg version="1.1" id="Layer_1" xmlns="http://www.w3.org/2000/svg" xmlns:xlink="http://www.w3.org/1999/xlink" x="0px" y="0px"
	 viewBox="0 0 42 40" style="enable-background:new 0 0 42 40;" xml:space="preserve">
<style type="text/css">
	.st0{opacity:0.39;}
	.st1{fill:#2C2D2C;}
</style>
<title>Asset 4</title>
<g id="Layer_2">
	<g id="content_header">
		<g class="st0">
			<path class="st1" d="M19.6,28.2c-0.3,0-0.6,1-0.6,2.2v5.9c0,0.8,0,1.5,0,2.3l0.1,0.1l0.1,0.2c0.5,0.1,1.1,0.1,1.7,0.1
				c0.6,0,1.1,0,1.7-0.1l0.1-0.2l0.1-0.1c0-0.8,0-1.5,0-2.3v-5.9c0-1.2-0.3-2.2-0.6-2.2c-0.3,0-0.6-0.5-0.6-1.2
				c0-0.6-1.8-1.4-4.1-1.7s-4.1-1.3-4.1-2.2c0-0.9,0.1-1.7,0.3-1.7s0.3-0.3,0.3-0.8s-0.5-0.8-1-0.8s-1,1.1-1,2.5
				c0,1.1,0,2.1,0.2,3.1c1.4,0.7,3,1.2,4.6,1.3c1.2,0,2.4,0.3,3.5,0.9C20.1,28,19.9,28.2,19.6,28.2z"/>
			<path class="st1" d="M21.9,23.1h6.6h0.3c0.1-0.8,0.2-1.6,0.1-2.4c0-1.2,0-2.3,0-2.4s-0.3-0.1-0.3-0.1h-6.6c-3.5,0-6.5,0-6.6,0
				c-0.1,0.3-0.1,0.6-0.1,0.9v3c0,0.3,0,0.6,0,0.9C15.2,23,18.4,23.1,21.9,23.1z"/>
			<path class="st1" d="M36.2,4.4c-1.1-0.1-2.2-0.2-3.3-0.1c-1.1,0-2.2,0-3.3,0.1c-0.2,0.6-0.3,1.2-0.3,1.9c0,0.8-1.7,0-3.9-1.8
				s-4.1-3.4-4.2-3.4c-0.2,0-5,3.7-10.3,8.1S1,17.4,1,17.5c0.4,0.8,0.9,1.5,1.6,2c0.5,0.6,1.1,1.1,1.7,1.6c0.2,0,0.7-0.2,0.9-0.4
				c0.4,2.8,0.5,5.7,0.4,8.5c0,4.8,0,8.9,0.1,9.1c1.8,0.3,3.6,0.4,5.4,0.3c2.7,0,5-1,5-2.2c-0.2-1.4-1.4-2.3-2.8-2.2c-1,0-2,0-3-0.2
				c-0.3-2.9-0.4-5.9-0.3-8.9c0-4.6,2.3-10.4,5.2-12.7s5.4-4.4,5.6-4.4c1.9,1.2,3.8,2.6,5.5,4.2c2.7,2.3,4.9,8,4.9,12.8s0,8.8-0.1,9
				c-1,0.3-2,0.4-2.9,0.3c-1.3-0.1-2.4,0.9-2.5,2.2c0,1.2,2.1,2.2,4.7,2.2s4.8,0,5-0.1c0.3-3.2,0.4-6.3,0.3-9.5c0-5,0.3-8.8,0.7-8.5
				c0.3,0.3,0.6,0.5,1,0.7c0.8-0.4,1.5-1,2.1-1.7c0.6-0.5,1.1-1.1,1.6-1.7c-0.7-0.9-1.4-1.7-2.3-2.3c-1.5-1.7-2.3-4-2.2-6.2
				C36.5,7.6,36.4,6,36.2,4.4z"/>
		</g>
	</g>
</g>
</svg>
