<?xml version="1.0" encoding="utf-8"?>
<!-- Generator: Adobe Illustrator 20.1.0, SVG Export Plug-In . SVG Version: 6.00 Build 0)  -->
<svg version="1.1" id="Layer_1" xmlns="http://www.w3.org/2000/svg" xmlns:xlink="http://www.w3.org/1999/xlink" x="0px" y="0px"
	 viewBox="0 0 42 40" style="enable-background:new 0 0 42 40;" xml:space="preserve">
<style type="text/css">
	.st0{opacity:0.39;}
	.st1{fill:#2C2D2C;}
</style>
<title>Asset 5</title>
<g id="Layer_2">
	<g id="content_header">
		<g class="st0">
			<path class="st1" d="M41,16.8c-0.1-0.1-2.6-0.1-5.5-0.1c-2.8,0-5.6-0.7-8.1-2.1c-1.1-0.8-2.2-1.5-3.3-2.2
				c-1.8,0.5-3.5,1.3-5.2,2.2c-1.8,0.9-3.7,1.6-5.6,2.1c-0.7,0-0.9-0.5-0.5-1.1c0.8-1,1.8-1.7,2.9-2.1c0.5,0,0.9,0,1.4,0
				c0.1-0.3,0.2-0.6,0.1-1c0-0.3,0-0.6,0-0.9c-1.5-0.2-2.9-0.2-4.4-0.2H8.5c-0.1,0-1,0.4-2,0.7c-0.6,0.2-1.3,0.5-1.9,0.8v0.3
				c0.8,0.1,1.5,0.2,2.3,0.1c1.1,0,1.7,0.4,1.2,1c-0.4,0.5-1.7,2.2-2,2.2c-0.3,0-0.6,0-0.8,0.1c-0.5,0.7-0.9,1.5-1.1,2.4
				c-0.3,0.7-0.5,1.5-0.7,2.2c0.4,0.4,0.9,0.8,1.4,1c0.6,0.3,1.2,0.6,1.3,0.6c0,0.1,0.1,0.2,0.1,0.4c0,0.1,0,0.2,0,0.4H6.2H5.8
				c-0.9,0.5-1.2,0.9-0.7,0.9h0.4c0.8-0.1,1.6-0.2,2.4-0.5c0.4-0.1,0.7-0.3,1.1-0.5l0.3-0.2l0.8-0.6c0.2-0.1,0.4-0.1,0.6,0l0.9,0.6
				l0.3,0.1c0.4,0.1,0.7,0.2,1.1,0.3c0.8,0.2,1.5,0.2,2.3,0.2c0.8,0,1.5-0.1,2.3-0.3c0.4-0.1,0.7-0.2,1-0.4l0.4-0.2
				c0.3-0.2,0.7-0.5,0.9-0.7c0.2-0.2,0.5-0.2,0.7,0c0.2,0.2,0.6,0.5,0.9,0.7l0.3,0.2c0.3,0.2,0.7,0.3,1,0.4c0.7,0.2,1.5,0.3,2.3,0.3
				c0.8,0,1.6,0,2.3-0.2c0.4-0.1,0.7-0.2,1.1-0.3l0.3-0.1l0.9-0.6c0.2-0.1,0.4-0.1,0.6,0l0.8,0.7l0.3,0.2c0.3,0.2,0.7,0.4,1.1,0.5
				c0.4,0.1,0.8,0.2,1.2,0.3h0.1c2-1.7,3.9-3.6,5.7-5.5c0.6-0.7,1.1-1.4,1.4-2.2L41,16.8z M25.7,21.8c-0.1,0-2.2,0-4.8,0h-8.8H7.8
				c-0.3-0.1-0.6-0.2-0.8-0.3c-0.2-0.1-0.4-0.2-0.6-0.3c0-0.4,0.2-0.9,0.3-1.3l0.4-1l0.1-0.1c0,0,0.4,0,0.5,0l3.4,1.3
				c2.3,0.7,4.6,1.1,7,1.1c2.1,0,4.7,0.1,5.7,0.2s1.8,0.3,1.9,0.3V21.8L25.7,21.8z M23.1,16.6c-1.6,0-2.1-0.4-1.1-0.8
				c0.9-0.5,2-0.5,2.9,0C25.4,16.2,24.6,16.6,23.1,16.6L23.1,16.6z"/>
			<path class="st1" d="M36.2,27c-0.4,0-0.9,0-1.3,0c-0.4,0-0.8-0.1-1.2-0.2c-0.4-0.1-0.8-0.2-1.2-0.3c-0.4-0.1-0.7-0.3-1.1-0.5
				l-0.3-0.2l-0.7-0.6l-0.2-0.2l-0.1-0.1c0,0-0.1,0-0.1,0l-0.3,0.2l-0.4,0.3l0,0c-0.2,0.2-0.5,0.3-0.8,0.4c-0.3,0.1-0.7,0.2-1.1,0.3
				c-0.5,0.1-1,0.2-1.5,0.2h-0.8c-0.8,0-1.5-0.1-2.3-0.3c-0.4-0.1-0.7-0.2-1-0.4l-0.3-0.2L20.8,25l-0.4-0.3c-0.1-0.1-0.4-0.1-0.5,0
				L19.6,25L19,25.5l-0.3,0.2c-0.3,0.2-0.7,0.3-1,0.4c-0.7,0.2-1.5,0.3-2.3,0.3h-0.6c-0.6,0-1.1-0.1-1.7-0.2
				c-0.4-0.1-0.7-0.2-1.1-0.3c-0.3-0.1-0.6-0.3-0.9-0.5l0,0l-0.3-0.2l-0.3-0.2c0,0-0.1,0-0.1,0L10.2,25L10,25.2l-0.7,0.6L9,26
				c-0.3,0.2-0.7,0.3-1.1,0.5c-0.8,0.3-1.6,0.4-2.4,0.5C4.7,27,3.9,27,3,26.9c-0.4-0.1-0.9-0.1-1.3-0.3l-0.4-0.1
				c-0.4-0.2-0.5-0.1-0.1,0.2L1.6,27c0.4,0.2,0.8,0.4,1.2,0.6c0.9,0.3,1.7,0.5,2.6,0.6c0.9,0.1,1.8,0,2.7-0.1
				c0.5-0.1,0.9-0.2,1.4-0.4l0.2-0.1c0.7,0,1.4,0.2,1.9,0.5l0.7,0.2c1.8,0.5,3.8,0.6,5.6,0.1c0.5-0.1,1-0.3,1.4-0.5l0.2-0.1
				c0.3-0.1,0.6-0.1,0.9,0l0.2,0.1c0.5,0.2,0.9,0.4,1.4,0.5c1.9,0.4,3.8,0.4,5.7-0.1c0.5-0.1,0.9-0.3,1.3-0.6l0.3-0.1
				c0.3-0.2,0.7-0.2,1-0.1l0.2,0.1c0.4,0.2,0.9,0.3,1.4,0.4c0.5,0.1,0.9,0.2,1.4,0.2c0.5,0,0.9,0,1.4,0c0.9-0.1,1.8-0.3,2.7-0.6
				c0.4-0.2,0.8-0.4,1.2-0.6l0.4-0.2c0.4-0.3,0-0.3-0.9,0.1L37.4,27C37,27,36.6,27,36.2,27z"/>
		</g>
	</g>
</g>
</svg>
