<?xml version="1.0" encoding="utf-8"?>
<!-- Generator: Adobe Illustrator 21.1.0, SVG Export Plug-In . SVG Version: 6.00 Build 0)  -->
<svg version="1.1" id="Layer_1" xmlns="http://www.w3.org/2000/svg" xmlns:xlink="http://www.w3.org/1999/xlink" x="0px" y="0px"
	 viewBox="0 0 430 78" style="enable-background:new 0 0 430 78;" xml:space="preserve">
<style type="text/css">
	.st0{clip-path:url(#SVGID_2_);fill:url(#SVGID_3_);}
	.st1{clip-path:url(#SVGID_5_);fill:url(#SVGID_6_);}
	.st2{clip-path:url(#SVGID_8_);fill:url(#SVGID_9_);}
	.st3{clip-path:url(#SVGID_11_);fill:url(#SVGID_12_);}
	.st4{clip-path:url(#SVGID_14_);fill:url(#SVGID_15_);}
	.st5{clip-path:url(#SVGID_17_);fill:url(#SVGID_18_);}
	.st6{fill:#003B71;}
	.st7{fill:#6D6E70;}
</style>
<g>
	<g>
		<defs>
			<path id="SVGID_1_" d="M29.2,26.2c0.2,1,2.3,1.7,2.3,1.7L82,43.6c0,0-29.9-19.1-39.2-26.4c-0.5-0.4-1.3-0.6-2.1-0.6
				C36.2,16.6,28.5,21.8,29.2,26.2"/>
		</defs>
		<clipPath id="SVGID_2_">
			<use xlink:href="#SVGID_1_"  style="overflow:visible;"/>
		</clipPath>
		
			<linearGradient id="SVGID_3_" gradientUnits="userSpaceOnUse" x1="94.378" y1="105.2112" x2="96.2003" y2="105.2112" gradientTransform="matrix(29.251 0.752 0.752 -29.251 -2810.7014 3035.9648)">
			<stop  offset="0" style="stop-color:#FAAF3C"/>
			<stop  offset="1" style="stop-color:#EA2429"/>
		</linearGradient>
		<polygon class="st0" points="28.5,15.2 82.7,16.6 82,45 27.8,43.6 		"/>
	</g>
	<g>
		<defs>
			<polygon id="SVGID_4_" points="77.6,45.3 77.8,45.3 77.5,45.3 			"/>
		</defs>
		<clipPath id="SVGID_5_">
			<use xlink:href="#SVGID_4_"  style="overflow:visible;"/>
		</clipPath>
		
			<linearGradient id="SVGID_6_" gradientUnits="userSpaceOnUse" x1="-358.4201" y1="253.1728" x2="-356.5927" y2="253.1728" gradientTransform="matrix(0.1389 0 0 -0.1389 127.3093 80.4776)">
			<stop  offset="0" style="stop-color:#FAAF3C"/>
			<stop  offset="1" style="stop-color:#EA2429"/>
		</linearGradient>
		<rect x="77.5" y="45.3" class="st1" width="0.3" height="0.1"/>
	</g>
	<g>
		<defs>
			<path id="SVGID_7_" d="M82,6.3l3.6,34.8c0,0,3.8-25.9,5.3-34.2c0.3-1.6-2.6-2.5-5.2-2.5C83.7,4.4,81.8,5,82,6.3"/>
		</defs>
		<clipPath id="SVGID_8_">
			<use xlink:href="#SVGID_7_"  style="overflow:visible;"/>
		</clipPath>
		
			<linearGradient id="SVGID_9_" gradientUnits="userSpaceOnUse" x1="92.8508" y1="103.4817" x2="94.6728" y2="103.4817" gradientTransform="matrix(12.4158 9.9602 9.9602 -12.4158 -2106.4077 375.2094)">
			<stop  offset="0" style="stop-color:#FAAF3C"/>
			<stop  offset="1" style="stop-color:#EA2429"/>
		</linearGradient>
		<polygon class="st2" points="85.5,-0.1 109.1,18.8 87.6,45.7 63.9,26.8 		"/>
	</g>
	<g>
		<defs>
			<path id="SVGID_10_" d="M66,6.8c-0.2,1,1.4,4,2.1,5.2c6.8,12.2,16,29,16,29s-6.3-27.5-8.3-34.9c-0.3-1.2-2.1-1.8-4.1-1.8
				C69.2,4.4,66.3,5.4,66,6.8"/>
		</defs>
		<clipPath id="SVGID_11_">
			<use xlink:href="#SVGID_10_"  style="overflow:visible;"/>
		</clipPath>
		
			<linearGradient id="SVGID_12_" gradientUnits="userSpaceOnUse" x1="91.391" y1="106.169" x2="93.2123" y2="106.169" gradientTransform="matrix(12.0862 1.4806 1.4806 -12.0862 -1197.5586 1169.3258)">
			<stop  offset="0" style="stop-color:#FAAF3C"/>
			<stop  offset="1" style="stop-color:#EA2429"/>
		</linearGradient>
		<polygon class="st3" points="66.1,2.2 88.6,5 83.9,43.3 61.4,40.6 		"/>
	</g>
	<g>
		<defs>
			<path id="SVGID_13_" d="M14.8,44.3c0.3,1,1.5,1,1.5,1L81,45.3c0,0-41.4-10.1-55.3-13.2c-0.3-0.1-0.7-0.1-1.1-0.1
				C20,32,12.9,37.8,14.8,44.3"/>
		</defs>
		<clipPath id="SVGID_14_">
			<use xlink:href="#SVGID_13_"  style="overflow:visible;"/>
		</clipPath>
		
			<linearGradient id="SVGID_15_" gradientUnits="userSpaceOnUse" x1="94.8051" y1="104.9755" x2="96.627" y2="104.9755" gradientTransform="matrix(36.5359 0 0 -36.5359 -3449.2585 3874.0618)">
			<stop  offset="0" style="stop-color:#FAAF3C"/>
			<stop  offset="1" style="stop-color:#EA2429"/>
		</linearGradient>
		<rect x="12.9" y="32" class="st4" width="68.2" height="13.3"/>
	</g>
	<g>
		<defs>
			<path id="SVGID_16_" d="M47.8,14.4c1.6,2.3,35,27.8,35,27.8s-17.4-24.9-24-32.7c-0.8-0.9-1.9-1.3-3.2-1.3
				C51.4,8.2,46,11.9,47.8,14.4"/>
		</defs>
		<clipPath id="SVGID_17_">
			<use xlink:href="#SVGID_16_"  style="overflow:visible;"/>
		</clipPath>
		
			<linearGradient id="SVGID_18_" gradientUnits="userSpaceOnUse" x1="93.4084" y1="105.7084" x2="95.2298" y2="105.7084" gradientTransform="matrix(19.8556 0.578 0.578 -19.8556 -1868.7264 2069.6484)">
			<stop  offset="0" style="stop-color:#FAAF3C"/>
			<stop  offset="1" style="stop-color:#EA2429"/>
		</linearGradient>
		<polygon class="st5" points="46,7.2 83.8,8.3 82.7,43.3 45,42.2 		"/>
	</g>
	<polygon class="st6" points="102.4,6.1 95.3,6.1 87,46.4 114.3,46.4 115.6,40.3 95.3,40.3 	"/>
	<polygon class="st6" points="123.5,14.3 116.8,46.4 123.6,46.4 130.3,14.3 	"/>
	<path class="st6" d="M145.2,28.9l-1.2,5.5h8.4c-1,3.4-3.3,7.1-8.4,7.1c-4.9,0-7.8-3.1-7.8-8.5c0-6.7,3.5-13.5,10.2-13.5
		c3,0,6.7,1,6.9,5.5l0,0.7h6.7l0-0.7c0-7-5.1-11.2-13.5-11.2c-8.3,0-17.2,6.1-17.2,19.5c0,8.6,5.6,14.1,14.3,14.1
		c2.1,0,5.2-0.8,7.6-3v2.3h4.7l3.7-17.6H145.2z"/>
	<polygon class="st6" points="183,26.5 170,26.5 172.6,14.3 165.8,14.3 159.1,46.4 165.9,46.4 168.8,32.6 181.7,32.6 178.9,46.4 
		185.7,46.4 192.3,14.3 185.5,14.3 	"/>
	<polygon class="st6" points="220.9,14.3 194.1,14.3 192.9,20.3 203,20.3 197.6,46.4 204.4,46.4 209.8,20.3 219.6,20.3 	"/>
	<path class="st6" d="M237.2,5.2c-9.5,0-15,5.3-15,12.5c0,7.7,7.5,9.5,11,10.4c5,1.4,9.7,2.5,9.7,7.1c0,4.7-5.1,6.4-9,6.4
		c-5.9,0-9.5-2.3-9.3-8.5h-6.8c-0.3,10.1,5.8,14.3,15.3,14.3c12.2,0,16.8-6.8,16.8-13c0-8.5-6.6-10-12.3-11.5
		c-4.5-1.1-8.4-2.1-8.4-6c0-5.4,5.9-5.9,7.9-5.9c5.5,0,8.2,2.1,8.2,7.1h6.8C252.5,8.5,245.6,5.2,237.2,5.2"/>
	<polygon class="st6" points="281,14.3 254.3,14.3 253.1,20.3 263.2,20.3 257.8,46.4 264.6,46.4 270,20.3 279.8,20.3 	"/>
	<path class="st6" d="M307.1,22.8c0-5.5-3.7-8.5-10.4-8.5h-13.9l-6.7,32.1h6.9l2.6-12.7h5.9c3.2,0,5.1,0.1,5.1,2.9
		c0,1.1-0.1,2.1-0.3,3.2c-0.1,1.1-0.3,2.3-0.3,3.5c0,1,0.1,1.8,0.4,2.6l0.2,0.5h7.4l-0.6-1.1c-0.4-0.7-0.5-1.5-0.5-2.2
		c0-1,0.1-2.1,0.2-3.2c0.1-1,0.2-2.1,0.2-3.1c0-1.7-0.3-3.9-2.2-5.4C305,30.2,307.1,27.2,307.1,22.8 M288.5,20.1h7
		c3.4,0,4.8,1,4.8,3.3c0,4.3-4,4.9-6.5,4.9h-7L288.5,20.1z"/>
	<polygon class="st6" points="315.4,32.8 331.3,32.8 332.5,27 316.6,27 318,20.3 335.1,20.3 336.4,14.3 312.5,14.3 305.9,46.4 
		329.8,46.4 331.1,40.4 313.8,40.4 	"/>
	<path class="st6" d="M350.4,14.3l-19.3,32.2h7.4l4.7-8.1h11.2l1.2,8.1h6.9L357,14.3H350.4z M353.7,32.8h-7.4l5.9-10.4L353.7,32.8z"
		/>
	<polygon class="st6" points="394.8,14.3 382.1,36.4 379,14.3 370.4,14.3 363.7,46.4 370.3,46.4 374.4,24.9 377.8,46.4 383,46.4 
		395,25.2 390.4,46.4 397,46.4 403.6,14.3 	"/>
	<path class="st7" d="M116.4,58.2h2.2l2.7,15h-2.1l-0.7-4.5h-6.3l-2.6,4.5h-2.2L116.4,58.2z M113.2,67h5.2l-1.1-7h0L113.2,67z"/>
	<path class="st7" d="M131.9,58.2h5.2c3.7,0,5.7,2.2,5.7,5.7c0,5.6-3.4,9.2-8.3,9.2h-5.7L131.9,58.2z M131.1,71.5h3.5
		c4.2,0,6.3-3.7,6.3-7.4c0-2.2-0.8-4.3-4.1-4.3h-3.2L131.1,71.5z"/>
	<polygon class="st7" points="146.1,61.4 148.2,61.4 145.7,73.2 143.7,73.2 	"/>
	<polygon class="st7" points="150.5,61.4 152.6,61.4 153.7,70.7 153.7,70.7 158.7,61.4 160.9,61.4 154.4,73.2 152,73.2 	"/>
	<polygon class="st7" points="163.2,61.4 165.3,61.4 162.8,73.2 160.7,73.2 	"/>
	<path class="st7" d="M168.7,69.3c-0.1,1.8,1,2.5,2.7,2.5c1.1,0,2.6-0.5,2.6-1.9c0-1.3-1.4-1.7-2.8-2.1c-1-0.3-3.2-0.8-3.2-3.1
		c0-2.1,1.6-3.7,4.4-3.7c2.5,0,4.5,1,4.4,3.8h-2c0-1.5-0.8-2.1-2.4-2.1c-0.6,0-2.3,0.2-2.3,1.7c0,1.2,1.2,1.4,2.5,1.8
		c1.7,0.4,3.6,0.9,3.6,3.4c0,1.8-1.3,3.8-4.9,3.8c-2.8,0-4.6-1.2-4.5-4.2H168.7z"/>
	<polygon class="st7" points="180.2,61.4 182.3,61.4 179.8,73.2 177.8,73.2 	"/>
	<path class="st7" d="M190,61.1c3.1,0,5.2,2.1,5.2,5.2c0,5-3.1,7.2-6.3,7.2c-3.4,0-5.3-2.2-5.3-5.2C183.7,63.3,187,61.1,190,61.1
		 M189,71.8c2.7,0,4.1-2.8,4.1-5.5c0-2.2-1.1-3.5-3.2-3.5c-2.8,0-4.2,2.8-4.2,5.5C185.8,70.4,186.9,71.8,189,71.8"/>
	<polygon class="st7" points="198.4,61.4 200.7,61.4 204.3,70.2 204.3,70.2 206.1,61.4 208.2,61.4 205.8,73.2 203.5,73.2 
		199.8,64.4 199.8,64.4 198,73.2 195.9,73.2 	"/>
	<path class="st7" d="M222.8,61.1c3.1,0,5.2,2.1,5.2,5.2c0,5-3.1,7.2-6.3,7.2c-3.4,0-5.3-2.2-5.3-5.2
		C216.5,63.3,219.7,61.1,222.8,61.1 M221.8,71.8c2.7,0,4.1-2.8,4.1-5.5c0-2.2-1.1-3.5-3.2-3.5c-2.8,0-4.2,2.8-4.2,5.5
		C218.6,70.4,219.7,71.8,221.8,71.8"/>
	<polygon class="st7" points="231.2,61.4 239.3,61.4 238.9,63.1 232.9,63.1 232.2,66.2 237.5,66.2 237.1,67.9 231.9,67.9 
		230.8,73.2 228.7,73.2 	"/>
	<path class="st7" d="M256.5,62.2c0.1-2.5-1.4-3.2-3.6-3.2c-1.5,0-3.6,0.7-3.6,2.6c0,1.5,1.1,2.1,2.5,2.5l2.1,0.6
		c1.9,0.5,3.8,1.4,3.8,4.2c0,3.2-3.3,4.7-6.1,4.7c-3.8,0-6.4-1.7-6.1-5.5h2.1c-0.1,2.8,1.6,3.7,4.2,3.7c1.9,0,3.9-0.9,3.9-3
		c0-1.6-1.2-2.2-2.8-2.6l-2.1-0.6c-1.9-0.5-3.5-1.6-3.5-3.9c0-3,2.9-4.5,5.7-4.5c3.1,0,5.8,1.5,5.7,5H256.5z"/>
	<path class="st7" d="M261.7,61.4h2.1l-1.5,7.2c-0.1,0.3-0.1,0.6-0.1,1c0,1.6,1.1,2.1,2.5,2.1c1.6,0,2.7-0.6,3.2-3l1.6-7.3h2.1
		l-1.6,7.4c-0.4,2-1.3,4.7-5.5,4.7c-2.3,0-4.4-1.2-4.4-3.6c0-0.5,0.1-1.1,0.2-1.6L261.7,61.4z"/>
	<polygon class="st7" points="274.5,61.4 276.7,61.4 280.4,70.2 280.4,70.2 282.2,61.4 284.3,61.4 281.8,73.2 279.6,73.2 
		275.9,64.4 275.9,64.4 274.1,73.2 272,73.2 	"/>
	<polygon class="st7" points="297.3,59.3 292.1,59.3 289.1,73.2 287.1,73.2 290,59.3 284.7,59.3 285.1,57.6 297.7,57.6 	"/>
	<path class="st7" d="M296.9,61.4h5.1c1,0,3.7,0.1,3.7,3c0,1.9-1,2.9-2.7,3.2v0c1,0.4,1.3,1.2,1.3,2.1c0,0.8-0.2,1.6-0.2,2.5
		c0,0.3,0,0.7,0.2,1h-2.2c-0.1-0.3-0.1-0.6-0.1-0.9c0-0.9,0.2-1.7,0.2-2.6c0-1.4-1.1-1.4-2.2-1.4h-2.5l-1,4.9h-2.1L296.9,61.4z
		 M297.9,66.7h3c1.8,0,2.8-0.8,2.8-2.2c0-1.3-1-1.5-2.1-1.5h-2.9L297.9,66.7z"/>
	<path class="st7" d="M308.5,61.4h2.1l-1.5,7.2c-0.1,0.3-0.1,0.6-0.1,1c0,1.6,1.1,2.1,2.5,2.1c1.6,0,2.7-0.6,3.2-3l1.6-7.3h2.1
		l-1.6,7.4c-0.4,2-1.3,4.7-5.6,4.7c-2.3,0-4.4-1.2-4.4-3.6c0-0.5,0.1-1.1,0.2-1.6L308.5,61.4z"/>
	<path class="st7" d="M321,69.3c-0.1,1.8,1,2.5,2.7,2.5c1.1,0,2.6-0.5,2.6-1.9c0-1.3-1.4-1.7-2.8-2.1c-1-0.3-3.2-0.8-3.2-3.1
		c0-2.1,1.6-3.7,4.4-3.7c2.5,0,4.5,1,4.4,3.8h-2c0-1.5-0.8-2.1-2.4-2.1c-0.6,0-2.3,0.2-2.3,1.7c0,1.2,1.2,1.4,2.5,1.8
		c1.7,0.4,3.6,0.9,3.6,3.4c0,1.8-1.3,3.8-4.9,3.8c-2.8,0-4.6-1.2-4.5-4.2H321z"/>
	<polygon class="st7" points="331,61.4 340.8,61.4 340.4,63.1 336.6,63.1 334.5,73.2 332.5,73.2 334.5,63.1 330.7,63.1 	"/>
	<path class="st7" d="M349.5,57.6h6.3c3.1,0,4.3,1.4,4.3,3.7c0,1.7-1.1,3.5-3,3.8v0c1.4,0.4,2.3,1.6,2.3,3.2c0,3-2.4,4.8-5.5,4.8
		h-7.7L349.5,57.6z M348.6,71.4h5c1,0,3.8-0.2,3.8-3.1c0-2-1.5-2.3-3.2-2.3h-4.5L348.6,71.4z M350.1,64.3h4.6c2.2,0,3.3-1,3.3-3
		c0-1.8-1.8-2-3.1-2h-3.8L350.1,64.3z"/>
	<path class="st7" d="M366.8,61.4h2.2l2.1,11.8h-2.1l-0.5-3.1h-4.7l-1.8,3.1h-2.2L366.8,61.4z M367.5,63.4L367.5,63.4l-2.9,5h3.6
		L367.5,63.4z"/>
	<polygon class="st7" points="374.7,61.4 377,61.4 380.6,70.2 380.7,70.2 382.5,61.4 384.5,61.4 382.1,73.2 379.8,73.2 376.2,64.4 
		376.1,64.4 374.4,73.2 372.3,73.2 	"/>
	<polygon class="st7" points="388.2,61.4 390.2,61.4 389.1,66.7 389.1,66.8 395.2,61.4 397.9,61.4 392.3,66.2 396,73.2 393.6,73.2 
		390.7,67.5 388.6,69.3 387.8,73.2 385.7,73.2 	"/>
	<g>
		<path class="st6" d="M411,14.3c2.5,0,4.5,2,4.5,4.5c0,2.5-2,4.5-4.5,4.5s-4.5-2-4.5-4.5C406.5,16.3,408.5,14.3,411,14.3z
			 M414.7,18.8c0-2.1-1.7-3.8-3.7-3.8c-2.1,0-3.7,1.7-3.7,3.8c0,2.1,1.7,3.8,3.7,3.8C413.1,22.6,414.7,20.9,414.7,18.8z M409.2,16.2
			h2c1.2,0,1.8,0.5,1.8,1.5c0,0.9-0.6,1.4-1.4,1.5l1.5,2.3h-0.8l-1.5-2.2H410v2.2h-0.8V16.2z M410.9,18.5c0.7,0,1.4,0,1.4-0.8
			c0-0.7-0.6-0.8-1.1-0.8H410v1.6H410.9z"/>
	</g>
</g>
</svg>
