<?xml version="1.0" encoding="utf-8"?>
<!-- Generator: Adobe Illustrator 18.1.1, SVG Export Plug-In . SVG Version: 6.00 Build 0)  -->
<svg version="1.1" id="Layer_1" xmlns="http://www.w3.org/2000/svg" xmlns:xlink="http://www.w3.org/1999/xlink" x="0px" y="0px"
	 viewBox="0 0 20 20" enable-background="new 0 0 20 20" xml:space="preserve" width="20px" height="20px">
<path fill="#13487D" d="M10,1.4c-4.7,0-8.6,3.8-8.6,8.6c0,2.3,0.9,4.4,2.5,6.1c1.6,1.6,3.8,2.5,6.1,2.5c4.7,0,8.6-3.8,8.6-8.6
	C18.6,5.3,14.7,1.4,10,1.4z M15,8.5l-4.9,4.9l0,0c-0.1,0.1-0.3,0.2-0.4,0.3c0,0,0,0,0,0c0,0,0,0,0,0c-0.1,0-0.1,0-0.2,0.1
	c0,0,0,0,0,0c-0.1,0-0.2,0-0.2,0c0,0-0.1,0-0.1,0c0,0,0,0,0,0c-0.3,0-0.6-0.2-0.8-0.4L5,10.2C4.5,9.7,4.5,8.9,5,8.3v0
	c0.5-0.5,1.4-0.5,1.9,0l2.2,2.2l3.9-3.9c0.5-0.5,1.4-0.5,1.9,0C15.5,7.1,15.5,8,15,8.5z"/>
</svg>
