<?xml version="1.0" encoding="utf-8"?>
<!-- Generator: Adobe Illustrator 18.1.1, SVG Export Plug-In . SVG Version: 6.00 Build 0)  -->
<svg version="1.1" id="Layer_1" xmlns="http://www.w3.org/2000/svg" xmlns:xlink="http://www.w3.org/1999/xlink" x="0px" y="0px"
	 viewBox="0 0 20 20" enable-background="new 0 0 20 20" xml:space="preserve" width="20px" height="20px">
<path fill="#13487D" d="M16.2,1.2H2.3c-0.1,0-0.2,0.1-0.2,0.2v17.1c0,0.1,0.1,0.2,0.2,0.2h13.9c0.1,0,0.2-0.1,0.2-0.2V1.4
	C16.5,1.3,16.4,1.2,16.2,1.2z M3.6,3.8h11.3v0.2H3.6V3.8z M3.6,6.4h11.3v0.2H3.6V6.4z M3.6,8.9h11.3v0.2H3.6V8.9z M3.6,11.2h11.3
	v0.2H3.6V11.2z M10.1,16.3H3.6v-0.2h6.5V16.3z M10.1,13.9H3.6v-0.2h6.5V13.9z M14.7,17.3l-1.5-0.6l-1.5,0.6l0.4-1.6
	c-0.4-0.3-0.7-0.8-0.7-1.3c0-0.9,0.8-1.7,1.8-1.7s1.8,0.8,1.8,1.7c0,0.5-0.3,1-0.7,1.4L14.7,17.3z"/>
</svg>
