<?xml version="1.0" encoding="utf-8"?>
<!-- Generator: Adobe Illustrator 18.1.1, SVG Export Plug-In . SVG Version: 6.00 Build 0)  -->
<svg version="1.1" id="Layer_1" xmlns="http://www.w3.org/2000/svg" xmlns:xlink="http://www.w3.org/1999/xlink" x="0px" y="0px"
	 viewBox="0 0 20 20" enable-background="new 0 0 20 20" xml:space="preserve" width="20px" height="20px">
<path fill-rule="evenodd" clip-rule="evenodd" fill="#FFFFFF" d="M3.6,8.7c4.3-0.9,8.6-0.9,12.9,0c0,2.8,0,5.6,0,8.4
	c-4.3,0.9-8.6,0.9-12.9,0C3.6,14.3,3.6,11.5,3.6,8.7L3.6,8.7z M8.9,11.2h2.1v1.9h-0.5v1.6H9.5v-1.6H8.9V11.2L8.9,11.2z M16.2,7v1
	c-0.7-0.1-1.4-0.2-2.1-0.3V7c0-5-8.1-5-8.1,0v0.7C5.3,7.7,4.5,7.8,3.8,8V7C3.8-0.9,16.2-0.9,16.2,7L16.2,7z"/>
</svg>
