<?xml version="1.0" encoding="utf-8"?>
<!-- Generator: Adobe Illustrator 18.1.1, SVG Export Plug-In . SVG Version: 6.00 Build 0)  -->
<svg version="1.1" id="Layer_1" xmlns="http://www.w3.org/2000/svg" xmlns:xlink="http://www.w3.org/1999/xlink" x="0px" y="0px"
	 viewBox="0 0 20 20" enable-background="new 0 0 20 20" xml:space="preserve" width="20px" height="20px">
<path fill="#FFFFFF" d="M14.2,8.3c0.4-0.5,0.5-1.1,0.5-1.7c0-0.9-0.4-1.8-1.2-2.3c-0.5-0.4-1.1-0.5-1.7-0.5c-0.9,0-1.8,0.4-2.3,1.2
	C9.1,5.5,9,6,9,6.6C9,7.5,9.4,8.4,10.2,9c0.5,0.4,1.1,0.5,1.7,0.5C12.7,9.5,13.6,9.1,14.2,8.3z M9,11.5c2.5,1.4,5.7,0.8,7.4-1.6
	c1.8-2.5,1.2-6-1.3-7.8c-2.5-1.8-6-1.2-7.8,1.3C5.5,5.8,6,9,8.2,10.9c-0.6-0.2-1.4,0-1.8,0.6l2.7,1.9C9.5,12.8,9.5,12,9,11.5z
	 M9.6,9.7C7.9,8.5,7.5,6.1,8.7,4.4C10,2.7,12.3,2.3,14,3.5c1.7,1.2,2.1,3.6,0.9,5.3C13.7,10.5,11.3,10.9,9.6,9.7z M5.5,18.4
	l-2.7-1.9c-0.4,0.7-0.3,1.6,0.4,2.1l0.2,0.1C4.1,19.2,5,19.1,5.5,18.4z M8.8,13.8L6,11.9L3.1,16L5.8,18L8.8,13.8z"/>
</svg>
