<?xml version="1.0" encoding="utf-8"?>
<!-- Generator: Adobe Illustrator 18.1.1, SVG Export Plug-In . SVG Version: 6.00 Build 0)  -->
<svg version="1.1" id="Layer_1" xmlns="http://www.w3.org/2000/svg" xmlns:xlink="http://www.w3.org/1999/xlink" x="0px" y="0px"
	 viewBox="0 0 20 20" enable-background="new 0 0 20 20" xml:space="preserve" width="20px" height="20px">
<g>
	<path fill="#FFFFFF" d="M2.9,17.4c0.1,0.1,0.3,0.1,0.3,0.1c1.1-0.7,2-0.3,2.6-0.8c0.3-0.3,0.5-0.7,0.7-1.1l-1.3-1.1l-2.4,2.8
		C2.8,17.3,2.8,17.4,2.9,17.4z"/>
	<path fill="#FFFFFF" d="M16.8,4.9C17.6,4,17,2.5,15.7,2.5c-0.4,0-0.8,0.3-1,0.5L9.5,8.9c1,0.9,0.9,0.8,2.2,1.9
		C11.9,10.6,16.7,5.1,16.8,4.9z"/>
	<path fill="#FFFFFF" d="M10.6,6c0.7-0.8,1.7-1.3,2.5-2.2l0.8-0.9c0.2-0.2-0.2-0.5-0.4-0.4l-0.8,0.9c-0.7,0.8-1.7,1.3-2.5,2.2
		C9.5,6.5,8.9,7.4,8.3,8.3C8.2,8.6,8.7,8.8,8.8,8.6C9.3,7.7,9.9,6.8,10.6,6z"/>
	<path fill="#FFFFFF" d="M11.2,11.3c-0.7-0.6-1.5-1.3-2.2-1.9l-3.8,4.3l2.2,1.9L11.2,11.3z"/>
</g>
</svg>
