<?xml version="1.0" encoding="utf-8"?>
<!-- Generator: Adobe Illustrator 18.1.1, SVG Export Plug-In . SVG Version: 6.00 Build 0)  -->
<svg version="1.1" id="Layer_1" xmlns="http://www.w3.org/2000/svg" xmlns:xlink="http://www.w3.org/1999/xlink" x="0px" y="0px"
	 viewBox="0 0 20 20" enable-background="new 0 0 20 20" xml:space="preserve" width="20px" height="20px">
<g>
	<path fill="#FFFFFF" d="M13,10.9c0,0-0.1,0-0.3-0.1c-0.2,0.7-1.4,1.2-2.9,1.2c-1.4,0-2.6-0.5-2.9-1.1c-5.5,1.4-5.1,6.5-5.1,6.5
		c8,2.5,16.3,0,16.3,0S18.5,12.3,13,10.9z"/>
	<path fill="#FFFFFF" d="M13.7,6.3c0-3.2-1.7-4.4-3.7-4.4c-2.1,0-3.7,1.2-3.7,4.4c0,2.4,1.7,4.4,3.7,4.4
		C12.1,10.7,13.7,8.7,13.7,6.3z"/>
</g>
</svg>
