<?xml version="1.0" encoding="utf-8"?>
<!-- Generator: Adobe Illustrator 18.1.1, SVG Export Plug-In . SVG Version: 6.00 Build 0)  -->
<svg version="1.1" id="Layer_1" xmlns="http://www.w3.org/2000/svg" xmlns:xlink="http://www.w3.org/1999/xlink" x="0px" y="0px"
	 viewBox="0 0 20 20" enable-background="new 0 0 20 20" xml:space="preserve" width="20px" height="20px">
<g>
	<path fill="#13487D" d="M10,6.5c-1.9,0-3.5,1.6-3.5,3.5c0,1.9,1.6,3.5,3.5,3.5c1.9,0,3.5-1.6,3.5-3.5C13.5,8.1,11.9,6.5,10,6.5z
		 M11.5,10.8c-0.3,0.6-0.9,0.9-1.5,0.9c-0.3,0-0.5-0.1-0.8-0.2c-0.8-0.4-1.2-1.4-0.8-2.3C8.8,8.7,9.3,8.3,10,8.3
		c0.3,0,0.5,0.1,0.8,0.2c0.4,0.2,0.7,0.6,0.9,1C11.8,9.9,11.7,10.3,11.5,10.8z"/>
	<path fill="#13487D" d="M17.9,8.3c-0.1-0.6-0.3-1.1-0.6-1.6c-0.1-0.2-0.3-0.3-0.4-0.3l-2,0.1c-0.2-0.3-0.5-0.6-0.8-0.9l0.4-1.9
		c0-0.2,0-0.4-0.2-0.5c-0.2-0.1-0.5-0.3-0.8-0.4c-0.3-0.1-0.5-0.2-0.8-0.3c-0.2-0.1-0.4,0-0.5,0.1L11,4c-0.4-0.1-0.8-0.1-1.2-0.1
		L8.7,2.3C8.6,2.1,8.4,2.1,8.3,2.1C7.7,2.2,7.1,2.4,6.6,2.7C6.4,2.7,6.3,2.9,6.4,3.1l0.1,2C6.1,5.3,5.8,5.5,5.6,5.8L3.7,5.4
		c-0.2,0-0.4,0-0.5,0.2C3,5.9,2.9,6.2,2.8,6.4C2.6,6.6,2.5,6.9,2.4,7.2c-0.1,0.2,0,0.4,0.1,0.5L4,9c-0.1,0.4-0.1,0.8-0.1,1.2
		l-1.6,1.1c-0.2,0.1-0.2,0.3-0.2,0.5c0.1,0.6,0.3,1.1,0.5,1.6c0.1,0.2,0.2,0.3,0.4,0.3l2-0.1c0.2,0.3,0.5,0.6,0.8,0.9l-0.4,1.9
		c0,0.2,0,0.4,0.2,0.5c0.2,0.1,0.5,0.3,0.8,0.4c0.3,0.1,0.5,0.3,0.8,0.3c0.2,0.1,0.4,0,0.5-0.1L9,16c0.4,0.1,0.8,0.1,1.2,0.1
		l1.1,1.6c0.1,0.1,0.2,0.2,0.4,0.2c0,0,0.1,0,0.1,0c0.6-0.1,1.1-0.3,1.6-0.6c0.2-0.1,0.3-0.3,0.3-0.4l-0.1-2
		c0.3-0.2,0.6-0.5,0.9-0.8l1.9,0.4c0.2,0,0.4,0,0.5-0.2c0.2-0.2,0.3-0.5,0.4-0.8c0.1-0.3,0.2-0.5,0.3-0.8c0.1-0.2,0-0.4-0.1-0.5
		L16,11c0.1-0.4,0.1-0.8,0.1-1.2l1.6-1.1C17.9,8.6,17.9,8.4,17.9,8.3z M10,14c-2.2,0-4-1.8-4-4s1.8-4,4-4c2.2,0,4,1.8,4,4
		S12.2,14,10,14z"/>
</g>
</svg>
