<?xml version="1.0" encoding="utf-8"?>
<!-- Generator: Adobe Illustrator 21.0.2, SVG Export Plug-In . SVG Version: 6.00 Build 0)  -->
<svg version="1.1" id="Layer_1" xmlns="http://www.w3.org/2000/svg" xmlns:xlink="http://www.w3.org/1999/xlink" x="0px" y="0px"
	 viewBox="0 0 40 40" style="enable-background:new 0 0 40 40;" xml:space="preserve">
<style type="text/css">
	.st0{opacity:0.69;fill:#9DDAF7;enable-background:new    ;}
	.st1{fill:#231F20;}
	.st2{clip-path:url(#SVGID_4_);fill:#231F20;}
	.st3{fill:#FFFFFF;}
</style>
<g>
	<path id="XMLID_7830_" class="st0" d="M20,1.3C9.7,1.3,1.3,9.7,1.3,20S9.7,38.7,20,38.7S38.7,30.3,38.7,20S30.3,1.3,20,1.3"/>
	<g>
		<g>
			<polygon id="SVGID_1_" class="st1" points="35.5,24.6 35.6,24.6 35.5,24.6 			"/>
		</g>
		<g>
			<g>
				<defs>
					<polygon id="SVGID_2_" points="35.5,24.6 35.6,24.6 35.5,24.6 					"/>
				</defs>
				<clipPath id="SVGID_4_">
					<use xlink:href="#SVGID_2_"  style="overflow:visible;"/>
				</clipPath>
				<rect x="35.5" y="24.6" class="st2" width="0.1" height="0"/>
			</g>
		</g>
	</g>
	<g>
		<g>
			<g>
				<path id="SVGID_3_" class="st3" d="M9.9,19c0.1,0.4,0.9,0.6,0.9,0.6l19.6,6.1c0,0-11.6-7.4-15.2-10.3c-0.2-0.2-0.5-0.2-0.8-0.2
					C12.7,15.3,9.7,17.3,9.9,19"/>
			</g>
		</g>
		<g>
			<g>
				<path id="SVGID_5_" class="st3" d="M30.4,11.3l1.4,13.6c0,0,1.5-10.1,2.1-13.3c0.1-0.6-1-0.9-2-0.9
					C31.1,10.6,30.4,10.8,30.4,11.3"/>
			</g>
		</g>
		<g>
			<g>
				<path id="SVGID_7_" class="st3" d="M24.2,11.5c-0.1,0.4,0.5,1.6,0.8,2.1c2.7,4.8,6.2,11.3,6.2,11.3s-2.4-10.7-3.2-13.6
					c-0.1-0.5-0.8-0.7-1.6-0.7C25.5,10.6,24.4,10.9,24.2,11.5"/>
			</g>
		</g>
		<g>
			<g>
				<path id="SVGID_9_" class="st3" d="M4.4,26.1c0.1,0.4,0.6,0.4,0.6,0.4l25.1,0c0,0-16-3.9-21.4-5.1c-0.1,0-0.3,0-0.4,0
					C6.4,21.3,3.6,23.6,4.4,26.1"/>
			</g>
		</g>
		<g>
			<g>
				<path id="SVGID_11_" class="st3" d="M17.1,14.5c0.6,0.9,13.6,10.8,13.6,10.8s-6.8-9.7-9.3-12.8c-0.3-0.3-0.8-0.5-1.3-0.5
					C18.6,12,16.5,13.5,17.1,14.5"/>
			</g>
		</g>
	</g>
	<path class="st3" d="M20,39C9.5,39,1,30.5,1,20S9.5,1,20,1s19,8.5,19,19S30.5,39,20,39z M20,1.7C9.9,1.7,1.7,9.9,1.7,20
		S9.9,38.3,20,38.3c10.1,0,18.3-8.2,18.3-18.3S30.1,1.7,20,1.7z"/>
</g>
</svg>
