<?xml version="1.0" encoding="utf-8"?>
<!-- Generator: Adobe Illustrator 21.0.2, SVG Export Plug-In . SVG Version: 6.00 Build 0)  -->
<svg version="1.1" id="Layer_1" xmlns="http://www.w3.org/2000/svg" xmlns:xlink="http://www.w3.org/1999/xlink" x="0px" y="0px"
	 viewBox="0 0 40 40" style="enable-background:new 0 0 40 40;" xml:space="preserve">
<style type="text/css">
	.st0{opacity:0.69;fill:#9DDAF7;enable-background:new    ;}
	.st1{fill:#231F20;}
	.st2{clip-path:url(#SVGID_3_);fill:#231F20;}
	.st3{fill:#FFFFFF;}
</style>
<path id="XMLID_7830_" class="st0" d="M20,1.3C9.7,1.3,1.3,9.7,1.3,20S9.7,38.7,20,38.7S38.7,30.3,38.7,20S30.3,1.3,20,1.3"/>
<g>
	<g>
		<polygon id="SVGID_1_" class="st1" points="20,20 20,20 20,20 		"/>
	</g>
	<g>
		<defs>
			<polygon id="SVGID_2_" points="20,20 20,20 20,20 			"/>
		</defs>
		<clipPath id="SVGID_3_">
			<use xlink:href="#SVGID_2_"  style="overflow:visible;"/>
		</clipPath>
		<rect x="20" y="20" class="st2" width="0.1" height="0"/>
	</g>
</g>
<path class="st3" d="M20,39C9.5,39,1,30.5,1,20S9.5,1,20,1s19,8.5,19,19S30.5,39,20,39z M20,1.7C9.9,1.7,1.7,9.9,1.7,20
	S9.9,38.3,20,38.3c10.1,0,18.3-8.2,18.3-18.3S30.1,1.7,20,1.7z"/>
<path id="XMLID_7832_" class="st3" d="M31.8,13.7l-9.9,16.2c0,0-1,1.8-2.5,0.7L8.9,24c0,0-1.5-0.8-0.9-2.1l2.2-3.5c0,0,0.7-0.9,2,0
	l4.8,2.9c0,0,2,1.5,3-0.7l6.2-10.8c0,0,0.7-1.1,2-0.4l3.5,2.1C31.6,11.6,32.8,12.2,31.8,13.7"/>
</svg>
