<?xml version="1.0" encoding="utf-8"?>
<!-- Generator: Adobe Illustrator 19.0.0, SVG Export Plug-In . SVG Version: 6.00 Build 0)  -->
<svg version="1.1" id="Layer_1" xmlns="http://www.w3.org/2000/svg" xmlns:xlink="http://www.w3.org/1999/xlink" x="0px" y="0px"
	 viewBox="-666 1027 107 107" style="enable-background:new -666 1027 107 107;" xml:space="preserve" preserveAspectRatio="xMinYMin none">
<style type="text/css">
	.st0{clip-path:url(#SVGID_2_);fill:#0E416B;}
	.st1{fill:#FFFFFF;}
	.st2{clip-path:url(#SVGID_4_);fill:#0E416C;}
	.st3{clip-path:url(#SVGID_6_);fill:#0E416C;}
	.st4{clip-path:url(#SVGID_8_);fill:#0E416C;}
	.st5{clip-path:url(#SVGID_10_);fill:#0E416C;}
</style>
<g>
	<g>
		<g>
			<g>
				<g>
					<defs>
						<rect id="SVGID_1_" x="-3331.1" y="5134" width="108.1" height="108.1"/>
					</defs>
					<clipPath id="SVGID_2_">
						<use xlink:href="#SVGID_1_"  style="overflow:visible;"/>
					</clipPath>
					<path class="st0" d="M-3223,5188.1c0,29.9-24.2,54.1-54.1,54.1c-29.9,0-54.1-24.2-54.1-54.1s24.2-54.1,54.1-54.1
						S-3223,5158.2-3223,5188.1"/>
				</g>
			</g>
		</g>
	</g>
</g>
<path class="st1" d="M-3250.5,5189.1h2.5v-5.1h-15.2v5.1h2.5v17.8h-11.3v-17.8h2.5v-5.1h-15.2v5.1h2.5v17.8h-11.4v-17.8h2.5v-5.1
	h-15.2v5.1h2.5v17.8h-6.3v7.6h65.8v-7.6h-6.3L-3250.5,5189.1L-3250.5,5189.1z M-3277.1,5156.2l-35.5,17.8v5.1h70.9v-5.1
	L-3277.1,5156.2z"/>
<g>
	<g>
		<g>
			<g>
				<defs>
					<rect id="SVGID_3_" x="-2659.1" y="4113" width="96.1" height="96.1"/>
				</defs>
				<clipPath id="SVGID_4_">
					<use xlink:href="#SVGID_3_"  style="overflow:visible;"/>
				</clipPath>
				<path class="st2" d="M-2563,4161.1c0,26.5-21.5,48.1-48.1,48.1c-26.5,0-48.1-21.5-48.1-48.1c0-26.5,21.5-48.1,48.1-48.1
					C-2584.5,4113-2563,4134.5-2563,4161.1"/>
			</g>
		</g>
	</g>
</g>
<path class="st1" d="M-2587.4,4162h2.3v-4.5h-13.5v4.5h2.3v15.8h-10.1V4162h2.3v-4.5h-13.5v4.5h2.3v15.8h-10.1V4162h2.3v-4.5h-13.5
	v4.5h2.3v15.8h-5.6v6.8h58.5v-6.8h-5.6V4162H-2587.4z M-2611.1,4132.7l-31.5,15.8v4.5h63v-4.5L-2611.1,4132.7z"/>
<g>
	<g>
		<g>
			<defs>
				<rect id="SVGID_5_" x="-1993.1" y="3086" width="96.1" height="96.1"/>
			</defs>
			<clipPath id="SVGID_6_">
				<use xlink:href="#SVGID_5_"  style="overflow:visible;"/>
			</clipPath>
			<path class="st3" d="M-1897,3134.1c0,26.5-21.5,48.1-48.1,48.1c-26.5,0-48.1-21.5-48.1-48.1c0-26.5,21.5-48.1,48.1-48.1
				S-1897,3107.5-1897,3134.1"/>
		</g>
	</g>
</g>
<path class="st1" d="M-1921.4,3135h2.3v-4.5h-13.5v4.5h2.3v15.8h-10.1V3135h2.3v-4.5h-13.5v4.5h2.3v15.8h-10.1V3135h2.3v-4.5h-13.5
	v4.5h2.3v15.8h-5.6v6.8h58.5v-6.8h-5.6V3135H-1921.4z M-1945.1,3105.7l-31.5,15.8v4.5h63v-4.5L-1945.1,3105.7z"/>
<g>
	<g>
		<defs>
			<rect id="SVGID_7_" x="-1327.1" y="2059" width="96.1" height="96.1"/>
		</defs>
		<clipPath id="SVGID_8_">
			<use xlink:href="#SVGID_7_"  style="overflow:visible;"/>
		</clipPath>
		<path class="st4" d="M-1231,2107.1c0,26.5-21.5,48.1-48.1,48.1c-26.5,0-48.1-21.5-48.1-48.1c0-26.5,21.5-48.1,48.1-48.1
			S-1231,2080.5-1231,2107.1"/>
	</g>
</g>
<path class="st1" d="M-1255.4,2108h2.3v-4.5h-13.5v4.5h2.3v15.8h-10.1V2108h2.3v-4.5h-13.5v4.5h2.3v15.8h-10.1V2108h2.3v-4.5h-13.5
	v4.5h2.3v15.8h-5.6v6.8h58.5v-6.8h-5.6V2108H-1255.4z M-1279.1,2078.7l-31.5,15.8v4.5h63v-4.5L-1279.1,2078.7z"/>
<g>
	<defs>
		<rect id="SVGID_9_" x="-663.1" y="1030" width="100.1" height="100.1"/>
	</defs>
	<clipPath id="SVGID_10_">
		<use xlink:href="#SVGID_9_"  style="overflow:visible;"/>
	</clipPath>
	<path class="st5" d="M-563,1080.1c0,27.6-22.4,50.1-50.1,50.1c-27.6,0-50.1-22.4-50.1-50.1c0-27.6,22.4-50.1,50.1-50.1
		C-585.4,1030-563,1052.4-563,1080.1"/>
</g>
<path class="st1" d="M-588.4,1081h2.3v-4.7h-14.1v4.7h2.3v16.5h-10.6V1081h2.3v-4.7h-14.1v4.7h2.3v16.5h-10.6V1081h2.3v-4.7H-640
	v4.7h2.3v16.5h-5.9v7h61v-7h-5.9V1081z M-613.1,1050.5l-32.8,16.5v4.7h65.7v-4.7L-613.1,1050.5z"/>
</svg>
