<?xml version="1.0" encoding="utf-8"?>
<!-- Generator: Adobe Illustrator 21.0.0, SVG Export Plug-In . SVG Version: 6.00 Build 0)  -->
<svg version="1.1" id="Layer_1" xmlns="http://www.w3.org/2000/svg" xmlns:xlink="http://www.w3.org/1999/xlink" x="0px" y="0px"
	 viewBox="0 0 45 45" style="enable-background:new 0 0 45 45;" xml:space="preserve">
<style type="text/css">
	.st0{fill:#00467E;}
</style>
<g>
	<path class="st0" d="M22.5,0.5c-12.2,0-22,9.8-22,22s9.8,22,22,22s22-9.8,22-22S34.7,0.5,22.5,0.5z M33.3,11
		c0.5-0.1,0.9,0.2,1.1,0.6c0.1,0.3,0.1,0.7-0.1,1c-0.1,0.3-0.4,0.6-0.7,0.7c-0.6,0.3-1.2-0.1-1.3-0.8C32.1,11.9,32.6,11.2,33.3,11z
		 M29.3,10.7c0.2-0.9,1.1-1.3,1.8-1.1c0.1,0,0.5,0.1,0.7,0.7c0.2,0.4,0,0.8-0.2,1.2c-0.4,0.7-1.3,0.9-2,0.4
		C29.2,11.6,29.1,11.2,29.3,10.7z M26,9.9c0.1-0.5,0.5-0.8,1-0.9c0.5-0.1,0.9,0,1.2,0.4c0.4,0.5,0.5,1.3,0.2,1.9
		c-0.3,0.6-1,0.9-1.7,0.6c-0.3-0.1-0.5-0.4-0.6-0.7C26,10.7,25.9,10.3,26,9.9z M22.6,10.5c0.3-0.7,1.2-1,1.8-0.7
		c0.8,0.4,1.2,1.4,0.9,2.1c-0.3,0.7-1.2,1-1.8,0.7C22.7,12.2,22.3,11.2,22.6,10.5z M20,12.1c0.8-0.3,1.8-0.1,2.4,0.6
		c0.6,0.6,0.7,1.4,0.4,2.1c-0.1,0.3-0.4,0.6-0.7,0.8c-0.9,0.5-2.1,0.3-2.8-0.6C18.5,13.9,18.9,12.6,20,12.1z M14.5,15.7
		c0.9-0.8,2.3-0.6,2.9,0.5c0.5,0.9,0.3,2.1-0.6,2.8c-0.3,0.2-0.6,0.3-1,0.3c-0.8,0-1.4-0.4-1.8-1.2C13.6,17.3,13.8,16.3,14.5,15.7z
		 M12,17.4c0.8,0,1.5,0.8,1.5,1.6c0,0.7-0.6,1.4-1.4,1.4c-0.8,0-1.5-0.8-1.5-1.6C10.6,18.1,11.2,17.5,12,17.4z M8.8,20.8
		c0.3-0.4,0.7-0.6,1.2-0.5c0.4,0.1,0.8,0.2,1,0.5c0.3,0.3,0.4,0.5,0.4,0.9c0,0.7-0.5,1.3-1.2,1.3c-0.6,0-1.3-0.4-1.6-1
		C8.5,21.6,8.5,21.2,8.8,20.8z M10,28.6c-0.3,0.2-0.6,0.4-0.9,0.4c-0.4,0-0.7-0.1-0.9-0.3c-0.4-0.3-0.4-0.8-0.1-1.2
		c0.4-0.6,1.2-0.7,1.8-0.4C10.5,27.4,10.5,28.1,10,28.6z M9.2,26c-0.4,0-0.8,0-1.2-0.3c-0.4-0.4-0.3-0.8-0.3-0.9
		c0.1-0.8,0.8-1.4,1.7-1.2c0.5,0.1,0.9,0.3,1,0.8C10.6,25.2,10,25.9,9.2,26z M26.3,32.7c-0.6,1.2-1.5,2.1-2.8,2.3
		c-0.2,0-0.5,0-0.6,0.1c-1.6,0-3-0.4-4.3-0.9c-1.7-0.7-3.4-1.5-4.8-2.7c-1.1-0.9-2-1.8-2.6-3.1c-0.4-1-0.4-2-0.3-3
		c0.2-1.4,0.7-2.6,1.7-3.6c0.6-0.7,1.2-1.2,2.1-1.5c0.8-0.3,1.7-0.3,2.5-0.1c0.9,0.2,1.6,0.6,2.2,1.3c0.8,0.8,1,1.8,0.4,2.9
		c-0.4,0.7-0.6,1.4-0.7,2.2c0,1.3,0.8,2.4,2,2.7c0.8,0.2,1.6,0.3,2.4,0.4c0.6,0.1,1.2,0.2,1.7,0.4C26.4,30.5,26.9,31.6,26.3,32.7z
		 M35.2,23.3c-0.1,1.5-0.3,2.9-1,4.3c-0.1,0.1-0.2,0.4-0.3,0.6c-0.8,1.2-2,1.6-3.3,1.6c-1.2,0-2.1-0.9-1.9-2.1
		c0.1-0.6,0.2-1.2,0.4-1.7c0.2-0.8,0.5-1.5,0.6-2.3c0.2-1.2-0.4-2.4-1.7-2.9c-0.7-0.3-1.5-0.4-2.3-0.3c-1.2,0.1-2-0.5-2.5-1.6
		C23,18,23,17.2,23.1,16.3c0.1-0.9,0.5-1.7,1.1-2.3c0.6-0.6,1.4-1,2.2-1.3c1.3-0.4,2.6-0.4,4,0c1,0.3,1.9,0.7,2.6,1.5
		c0.9,1,1.4,2.3,1.8,3.6C35.3,19.6,35.3,21.5,35.2,23.3z"/>
</g>
</svg>
