<?xml version="1.0" encoding="utf-8"?>
<!-- Generator: Adobe Illustrator 19.0.0, SVG Export Plug-In . SVG Version: 6.00 Build 0)  -->
<svg version="1.1" id="Layer_1" xmlns="http://www.w3.org/2000/svg" xmlns:xlink="http://www.w3.org/1999/xlink" x="0px" y="0px"
	 viewBox="-666 1027 107 107" style="enable-background:new -666 1027 107 107;" xml:space="preserve">
<style type="text/css">
	.st0{fill:#10426C;}
	.st1{clip-path:url(#SVGID_2_);fill:#0E416C;}
	.st2{clip-path:url(#SVGID_2_);fill:#FFFFFF;}
	.st3{clip-path:url(#SVGID_2_);fill:none;stroke:#FFFFFF;stroke-width:1.02;stroke-miterlimit:10;}
	.st4{clip-path:url(#SVGID_2_);fill:none;stroke:#FFFFFF;stroke-width:1.02;}
</style>
<circle class="st0" cx="-1279.5" cy="2107.5" r="48"/>
<g>
	<defs>
		<rect id="SVGID_1_" x="-661" y="1031.6" width="97" height="97"/>
	</defs>
	<clipPath id="SVGID_2_">
		<use xlink:href="#SVGID_1_"  style="overflow:visible;"/>
	</clipPath>
	<path class="st1" d="M-564,1080.1c0,26.8-21.7,48.5-48.5,48.5c-26.8,0-48.5-21.7-48.5-48.5c0-26.8,21.7-48.5,48.5-48.5
		C-585.7,1031.6-564,1053.3-564,1080.1"/>
	<path class="st2" d="M-594.1,1081.8H-613c-0.4-0.7-0.9-1.3-1.7-1.6v-21.8h-3.5v22.2c-0.8,0.6-1.3,1.6-1.3,2.7s0.5,2.1,1.3,2.7v0
		h0.1c0.6,0.4,1.3,0.7,2.1,0.7c0.8,0,1.5-0.3,2.1-0.7h19.8V1081.8z"/>
	<path class="st3" d="M-594.1,1081.8H-613c-0.4-0.7-0.9-1.3-1.7-1.6v-21.8h-3.5v22.2c-0.8,0.6-1.3,1.6-1.3,2.7s0.5,2.1,1.3,2.7v0
		h0.1c0.6,0.4,1.3,0.7,2.1,0.7c0.8,0,1.5-0.3,2.1-0.7h19.8V1081.8z"/>
	<path class="st2" d="M-578.8,1080.1c0,18.6-15.1,33.7-33.7,33.7s-33.7-15.1-33.7-33.7s15.1-33.7,33.7-33.7
		S-578.8,1061.5-578.8,1080.1 M-575.5,1080.1c0-20.5-16.6-37-37-37c-20.5,0-37,16.6-37,37s16.6,37,37,37
		C-592,1117.1-575.5,1100.5-575.5,1080.1"/>
	<path class="st4" d="M-578.8,1080.1c0,18.6-15.1,33.7-33.7,33.7s-33.7-15.1-33.7-33.7s15.1-33.7,33.7-33.7
		S-578.8,1061.5-578.8,1080.1z M-575.5,1080.1c0-20.5-16.6-37-37-37c-20.5,0-37,16.6-37,37s16.6,37,37,37
		C-592,1117.1-575.5,1100.5-575.5,1080.1z"/>
</g>
</svg>
