<?xml version="1.0" encoding="utf-8"?>
<!-- Generator: Adobe Illustrator 21.0.0, SVG Export Plug-In . SVG Version: 6.00 Build 0)  -->
<svg version="1.1" id="Layer_1" xmlns="http://www.w3.org/2000/svg" xmlns:xlink="http://www.w3.org/1999/xlink" x="0px" y="0px"
	 viewBox="0 0 45 45" enable-background="new 0 0 45 45" xml:space="preserve">
<path id="XMLID_248_" fill="#08457B" d="M42.226,27.687c0,1.624-0.5,3.123-1.374,4.373c-0.999,1.499-2.374,2.748-3.873,3.623
	c-1.749,1.124-3.623,1.874-5.622,2.374c-1.124,0.25-2.124,0.375-3.248,0.5c-0.25,0-0.625,0-0.875,0c-0.125,0-0.25,0-0.375,0
	c-0.125,0-0.125,0-0.25,0c0,0,0,0-0.125,0c0,0-0.125,0-0.125,0.125c-0.375,0.375-0.75,0.875-1.249,1.249
	c-1.624,1.499-3.623,2.873-5.997,3.123c-0.25,0-0.5,0-0.75,0c1.249-0.875,2.124-2.124,2.748-3.498
	c0.125-0.375,0.375-0.875,0.5-1.249c-2.374-0.375-4.747-1.124-6.871-2.249c-1.999-1.124-3.748-2.624-4.872-4.622
	c-0.625-1.124-1.124-2.499-1.124-3.873c0-1.499,0.5-2.499,0.5-2.748c0.625-1.624,1.749-2.998,3.123-3.998
	c1.374-1.124,2.998-1.999,4.747-2.748c1.624-0.625,3.248-0.999,4.997-1.249c1.749-0.25,3.498-0.25,5.247-0.125
	c1.499,0.125,2.998,0.375,4.497,0.75c1.374,0.375,2.624,0.875,3.873,1.499c1.124,0.625,2.249,1.374,3.123,2.249
	c0.875,0.75,1.624,1.624,2.124,2.624c0.5,0.875,0.875,1.999,0.999,2.998C42.226,27.188,42.226,27.437,42.226,27.687z"/>
<path id="XMLID_1_" fill="#08457B" stroke="#FFFFFF" stroke-width="0.5" stroke-miterlimit="10" d="M3.38,11.7
	c0.125-0.999,0.5-2.124,0.999-2.998c0.5-0.999,1.249-1.874,2.124-2.624c0.875-0.875,1.999-1.624,3.123-2.249
	c1.249-0.625,2.499-1.124,3.873-1.499c1.499-0.375,2.998-0.625,4.497-0.75c1.749-0.125,3.498-0.125,5.247,0.125
	s3.373,0.625,4.997,1.249c1.749,0.75,3.373,1.624,4.747,2.748c1.374,0.999,2.499,2.374,3.123,3.998c0,0.25,0.5,1.249,0.5,2.748
	c0,1.374-0.5,2.748-1.124,3.873c-1.124,1.999-2.873,3.498-4.872,4.622c-2.124,1.124-4.497,1.874-6.871,2.249
	c0.125,0.375,0.375,0.875,0.5,1.249c0.625,1.374,1.499,2.624,2.748,3.498c-0.25,0-0.5,0-0.75,0c-2.374-0.25-4.373-1.624-5.997-3.123
	c-0.5-0.375-0.875-0.875-1.249-1.249c0-0.125-0.125-0.125-0.125-0.125c-0.125,0-0.125,0-0.125,0c-0.125,0-0.125,0-0.25,0
	c-0.125,0-0.25,0-0.375,0c-0.25,0-0.625,0-0.875,0c-1.124-0.125-2.124-0.25-3.248-0.5c-1.999-0.5-3.873-1.249-5.622-2.374
	c-1.499-0.875-2.873-2.124-3.873-3.623C3.63,15.697,3.13,14.198,3.13,12.574C3.13,12.324,3.13,12.074,3.38,11.7z"/>
</svg>
