<?xml version="1.0" encoding="utf-8"?>
<!-- Generator: Adobe Illustrator 21.0.0, SVG Export Plug-In . SVG Version: 6.00 Build 0)  -->
<svg version="1.1" id="Layer_1" xmlns="http://www.w3.org/2000/svg" xmlns:xlink="http://www.w3.org/1999/xlink" x="0px" y="0px"
	 viewBox="0 0 45 45" style="enable-background:new 0 0 45 45;" xml:space="preserve">
<style type="text/css">
	.st0{fill:#00467E;}
</style>
<g>
	<path class="st0" d="M22.5,0.5c-12.2,0-22,9.8-22,22s9.8,22,22,22c12.2,0,22-9.8,22-22S34.7,0.5,22.5,0.5z M38,23.2L38,23.2
		c-0.3,0.5-0.8,0.8-1.2,0.8h-6c-0.4,0-1,0.3-1.3,0.6l-2.1,2.6c-0.3,0.3-0.1,0.6,0.3,0.6s0.8,0.3,0.8,0.8v0.2c0,0.4-0.3,0.8-0.8,0.8
		h-1.3c-0.4,0-1,0.3-1.2,0.6l-2.2,3c-0.3,0.3-0.7,0.9-0.9,1.2l-2.6,3.2c-0.3,0.3-0.7,0.3-1,0l-0.5-0.5c-0.3-0.3-0.4-0.9-0.2-1.3
		l4.6-10.9c0.2-0.4-0.1-0.7-0.5-0.8l-7.3-0.3c-0.4,0-1,0.2-1.3,0.5l-2.2,2.4c-0.3,0.3-0.8,0.5-1.2,0.4c-0.4-0.1-0.6-0.5-0.5-0.9
		l0.8-3.8l-0.8-3.8c-0.1-0.4,0.1-0.8,0.5-0.9c0.4-0.1,0.9,0.1,1.2,0.4l2.2,2.4c0.3,0.3,0.9,0.5,1.3,0.5l7.3-0.3
		c0.4,0,0.6-0.4,0.5-0.8L17.5,9.2c-0.2-0.4-0.1-1,0.2-1.3l0.5-0.5c0.3-0.3,0.7-0.3,1,0.1l5.8,7.4c0.3,0.3,0.8,0.6,1.2,0.6h1.3
		c0.4,0,0.8,0.3,0.8,0.8v0.2c0,0.4-0.3,0.8-0.8,0.8s-0.5,0.3-0.3,0.6l2.1,2.6c0.3,0.3,0.8,0.6,1.3,0.6h6c0.4,0,0.9,0.3,1.2,0.7
		l0.1,0.1C38.2,22.2,38.2,22.8,38,23.2z"/>
</g>
</svg>
