<?xml version="1.0" encoding="utf-8"?>
<!-- Generator: Adobe Illustrator 21.0.0, SVG Export Plug-In . SVG Version: 6.00 Build 0)  -->
<svg version="1.1" id="Layer_1" xmlns="http://www.w3.org/2000/svg" xmlns:xlink="http://www.w3.org/1999/xlink" x="0px" y="0px"
	 viewBox="0 0 45 45" style="enable-background:new 0 0 45 45;" xml:space="preserve">
<style type="text/css">
	.st0{fill:#00467E;}
</style>
<path class="st0" d="M40.2,9.4c-0.2-0.4-0.6-0.8-1-1.2c-4-4.7-10-7.7-16.7-7.7c-12.2,0-22,9.8-22,22c0,12.2,9.8,22,22,22
	c12.2,0,22-9.8,22-22C44.5,17.6,42.9,13.1,40.2,9.4z M39.9,10.8c0,0.1-0.1,0.2-0.3,0.2c-0.2,0.1-0.4,0.1-0.5,0.1
	c-0.1,0-0.2,0-0.3,0.1c0,0.2,0.1,0.2,0.2,0.2c0.1,0.1,0.2,0.1,0.3,0.2c0.1,0,0.2,0.1,0.1,0.2c0,0.1-0.1,0.2-0.2,0.3
	c-0.1,0-0.2,0-0.3,0c-0.4,0-0.5,0.1-0.4,0.5c0.1,0.2,0.2,0.5,0.2,0.7c-0.1,0.8,0.5,1.3,0.7,1.9c0.1,0.1,0.2,0.3,0.3,0.2
	c0.1-0.1,0.1-0.2,0.1-0.4c0-0.4,0-0.9,0-1.3c0-0.3,0.1-0.6,0.5-0.5c0.1,0,0.3,0,0.3-0.2c0-0.3,0-0.6-0.2-0.9
	c-0.1-0.2-0.3-0.3-0.4-0.5c-0.1-0.1-0.2-0.3-0.1-0.4c2.1,3.3,3.3,7.1,3.3,11.3c0,1.2-0.1,2.4-0.3,3.6c0,0,0,0.1-0.1,0.1
	c-0.1,0.2-0.2,0.2-0.4,0.2c-0.7-0.1-1.1-0.6-1.4-1.1c-0.8-1.4-1.1-2.9-1-4.5c0-0.9,0-1.7-0.4-2.5c0-0.1,0-0.2-0.1-0.2
	c-0.2-0.4-0.1-0.9,0.1-1.3c0.1-0.2,0.1-0.5,0-0.8c-0.1,0.3-0.1,0.6-0.2,0.8c-0.2,0.5-0.5,0.7-1,0.4c-0.2-0.1-0.4-0.3-0.4-0.6
	c0-0.1-0.1-0.2-0.2-0.3c-0.4-0.4-0.4-0.7-0.1-1.2c0.3-0.4,0.2-0.8-0.3-0.9c-0.1,0-0.3-0.1-0.4-0.1c-0.3,0-0.4-0.2-0.5-0.4
	c0-0.2,0-0.3,0-0.5c0-0.8-0.3-1.4-0.9-1.9c-0.1-0.1-0.2-0.2-0.2-0.3c-0.1-0.3-0.2-0.6-0.2-0.9c0-0.4-0.1-0.7-0.3-1
	c-0.3-0.3-0.5-0.7-0.5-1.2c0-0.1-0.1-0.3-0.2-0.3c-0.4-0.2-0.8-0.4-1.2-0.6c-0.1,0-0.2-0.1-0.2,0c-0.1,0.1,0,0.1,0,0.2
	c0.1,0.1,0.2,0.2,0,0.3c-0.3,0.2-0.2,0.3,0.1,0.4c0.1,0,0.2,0.1,0.3,0.2c0.5,0.3,0.8,0.8,1.3,1c0.2,0.1,0.1,0.2,0,0.2
	c-0.2,0.1-0.5,0.2-0.6,0.4C34,10,33.8,10,33.6,9.9c-0.6-0.1-1.1-0.3-1.4-0.9c-0.2-0.5-0.6-0.8-1.1-1.1c-0.3-0.1-0.5-0.3-0.8-0.4
	c-0.4-0.2-0.6-0.4-0.8-0.7c-0.1-0.2-0.1-0.3,0.1-0.5c0.3-0.2,0.7-0.2,1-0.3c0.1,0,0.3,0,0.3-0.2c0-0.1,0-0.2-0.2-0.3
	c-0.1-0.1-0.3-0.1-0.4,0c-0.1,0.2-0.3,0.1-0.5,0.1c-0.3,0-0.2-0.2-0.2-0.4c0,0,0-0.1,0-0.1C29.2,5,29,4.6,28.7,4.4
	C28.1,4,27.6,3.7,27,3.3c-0.2-0.2-0.4-0.2-0.6,0.1c-0.3,0.3-0.6,0.4-1.1,0.3c-0.5-0.2-1.1-0.3-1.7,0C23,4,22.2,4,21.4,3.7
	c-0.1,0-0.2-0.1-0.3-0.2c-0.2-0.3-0.7-0.5-1-0.2c-0.3,0.2-0.5,0.2-0.8,0.3c-0.3,0-0.6,0.1-0.9,0.2c-0.1,0-0.3,0.1-0.3,0.2
	c0,0.5-0.4,0.5-0.7,0.6c-0.2,0-0.4,0-0.6,0.1c-0.2,0.1-0.4,0.2-0.3,0.5c0.1,0.2,0,0.3-0.2,0.4c-0.3,0.2-0.5,0.2-0.8,0.2
	c-0.4,0-0.5,0.2-0.5,0.5c0,0.2,0,0.3-0.1,0.4c-0.6,0.4-1,1-1.5,1.5c-0.3,0.2-0.6,0.3-1,0.3c0.1-0.2,0.3-0.4,0.4-0.7
	C13,7.5,13,7.3,12.8,7.3c-0.6,0-0.6-0.5-0.9-0.8c0-0.1-0.1-0.1,0-0.2c0.3-0.3,0.5-0.7,0.9-0.8c0.3-0.1,0.7-0.5,0.6-0.8
	c-0.1-0.5,0.1-0.8,0.6-0.9c0.1,0,0.2-0.1,0.2-0.1c0.2-0.1,0.4-0.4,0.4-0.6c2.4-1,5.1-1.5,7.9-1.5C29.7,1.5,36.2,5.2,39.9,10.8z
	 M25.2,42.9c-0.2,0-0.3-0.1-0.4-0.2c-0.7-0.9-1.5-1.6-2.4-2.2c-0.5-0.3-0.7-0.9-0.5-1.5c0.1-0.3,0.3-0.6,0.7-0.7
	c0.4-0.1,0.5-0.3,0.5-0.6c0-0.3,0.1-0.5,0.1-0.8c0-0.4,0-0.5-0.5-0.5c-0.7,0.1-1.4-0.1-2-0.4c-0.3-0.1-0.5-0.3-0.6-0.6
	c-0.2-0.6-0.6-1-1.1-1.3c-0.7-0.5-1.5-0.8-2.3-1.1c-0.6-0.2-1.1-0.3-1.6-0.8c-0.4-0.4-0.9-0.9-1.5-1.1c-0.3-0.1-0.6-0.5-0.5-0.8
	c0.1-0.4,0.1-0.8-0.1-1.1c-0.5-0.9-0.8-1.8-1-2.8c0-0.1,0-0.3-0.2-0.3c-0.2,0-0.1,0.2-0.1,0.4c0.1,0.8,0.2,1.5,0.7,2.2
	c-0.5-0.1-0.8-0.5-1-0.9c-0.3-0.8-0.5-1.6-0.7-2.4c-0.2-0.7-0.5-1.4-0.3-2.1c0-0.2,0.1-0.5,0.1-0.7c0.1-1.4,0.5-2.7,1.4-3.9
	c0.1-0.2,0.2-0.3,0.1-0.5c-0.1-0.8-0.1-1.6,0.1-2.4c0.1-0.5,0.3-1,0.4-1.5c0.1-0.4,0.1-0.8,0.1-1.1c-0.1-0.5-0.2-1-0.8-1.2
	c-0.5-0.2-0.9-0.4-1.4-0.6c-0.3-0.1-0.4-0.3-0.4-0.7c0.1,0.1,0.2,0.2,0.3,0.2c0.4,0.3,0.5,0.2,0.7-0.2c0.1-0.2,0.1-0.3,0.2-0.5
	c0.2-0.4,0.6-0.6,1-0.5c0.3,0.1,0.5,0,0.6-0.3C13,9,13.2,8.9,13.5,8.9c0.2,0,0.4,0,0.6,0c0.7-0.3,1.2-0.1,1.4,0.7c0,0.1,0,0.3,0,0.4
	c0,0.3,0.1,0.5,0.2,0.7c0.7,1,1.7,1.6,2.6,2.3c0.1,0,0.1,0.1,0.2,0c0.1-0.1,0.1-0.2,0.1-0.2c0-0.2-0.1-0.2-0.2-0.3
	c-0.2-0.1-0.3-0.2-0.4-0.5c0-0.2-0.1-0.4-0.3-0.6c-0.2-0.1-0.2-0.3,0-0.4c0.3-0.3,0.8-0.3,1.1,0.1c0.1,0.2,0.2,0.3,0.4,0.4
	c0.2,0.1,0.3,0.3,0.4,0.5c0.1,0.3,0.1,0.6,0.1,0.9c0,0.2,0,0.4,0.2,0.4c0.2,0,0.3-0.2,0.4-0.4c0-0.2-0.1-0.6,0.3-0.5
	c0.4,0,0.2,0.4,0.3,0.6c0,0.3,0.1,0.5,0.5,0.6c0.3,0,0.5-0.1,0.7-0.1c0.4,0.5,0.4,0.6-0.2,1c-0.1,0-0.1,0.1-0.2,0.1
	c-0.4,0.3-0.7,0.6-1,0.9c-0.4,0.5-0.7,1-0.7,1.7c0,0.5,0.2,0.7,0.6,0.8c0.2,0.1,0.4,0.1,0.6,0.1c0.4,0.1,0.6,0.3,0.6,0.7
	c0,0.4,0.2,0.6,0.5,0.9c0.2,0.2,0.3,0.2,0.4-0.1c0.1-0.5,0.1-1,0.3-1.5c0,0,0-0.1,0-0.2c-0.3-0.5-0.2-1.1-0.3-1.7
	c0-0.3,0.2-0.4,0.4-0.4c0.5,0.1,1,0.2,1.3,0.6c0.3,0.3,0.5,0.4,0.9,0.5c0.2,0,0.4,0,0.6,0.1c0.6,0.4,1.2,0.9,1.6,1.5
	c0.5,0.7,0.3,1.4-0.6,1.5c-0.1,0-0.1,0-0.2,0c-0.5,0.1-1,0.4-1.3,0.8c0,0.1-0.1,0.1-0.1,0.2c0.1,0.1,0.2,0,0.2,0
	c0.2-0.1,0.3-0.2,0.5-0.3c0.2-0.1,0.6-0.1,0.6,0.1c0.1,0.5,0.4,0.5,0.7,0.4c0.2,0,0.3,0,0.4,0.2c0.1,0.2,0,0.3-0.2,0.4
	c-0.4,0.2-0.8,0.4-1.1,0.7c-0.1,0.1-0.2,0.1-0.3,0c-0.3-0.2-0.5,0-0.7,0.2c-0.3,0.4-0.5,0.9-0.9,1.3c-0.4,0.4-0.6,1-0.6,1.6
	c0,0.4-0.1,0.7-0.5,0.9c-0.3,0.2-0.5,0.4-0.7,0.6c-0.5,0.4-0.7,1.1-0.5,1.8c0.1,0.2,0.1,0.4,0.2,0.6c0,0.2,0,0.3-0.2,0.4
	c-0.2,0.1-0.3,0-0.4-0.1c-0.2-0.3-0.4-0.5-0.5-0.8c-0.4-0.5-1.2-0.8-1.8-0.5c-0.3,0.1-0.6,0.1-0.9,0c-0.5-0.2-1.1-0.2-1.5,0.1
	c-0.6,0.5-0.9,1.1-0.8,1.9c0,0.2,0,0.5,0.2,0.7c0.3,0.3,0.6,0.6,1.1,0.7c0.3,0.1,0.6,0,0.8-0.3c0.1-0.3,0.4-0.3,0.6-0.4
	c0.3-0.1,0.7,0.2,0.6,0.5c0,0.3-0.1,0.6-0.2,0.8c-0.2,0.4-0.1,0.6,0.4,0.6c0.2,0,0.5,0,0.7,0.1c0.8,0.2,1,0.5,0.7,1.3
	c0,0,0,0.1,0,0.1c-0.1,0.3,0,0.5,0.2,0.7c0.4,0.4,1,0.4,1.5,0.5c0.3,0.1,0.5,0,0.6-0.2c0.1-0.1,0.2-0.2,0.3-0.3
	c0.5-0.5,1.1-0.8,1.8-0.4c0.1,0.1,0.3,0.1,0.5,0C26.4,35,26.7,35,27,35c0.5,0,1,0,1.5-0.2c0.3-0.1,0.6-0.1,0.8,0.1
	c0.8,0.4,1.6,0.6,2.4,0.5c0.8-0.1,1.3,0.2,1.7,0.8c0.1,0.2,0.4,0.3,0.7,0.3c0.9-0.2,1.9-0.3,2.7-0.7c0.4-0.2,0.6,0.1,0.8,0.3
	c0.2,0.2,0,0.4-0.1,0.6c-0.2,0.3-0.4,0.6-0.6,0.9c-3.1,3-7.1,5-11.5,5.6C25.5,43.1,25.5,42.9,25.2,42.9z M21.8,9.6
	c0-0.1,0-0.2,0.1-0.3C22.2,9.1,22.5,9,22.8,9c0.1,0,0.2,0,0.3,0.1c0.2,0.4,0.4,0.2,0.6,0c0.7-0.7,1.7-0.8,2.5-0.3
	c0.2,0.2,0.5,0.3,0.8,0.4c1,0.2,1.6,0.9,2.3,1.6c0.2,0.2,0.2,0.8,0,0.9c-0.5,0.4-0.4,0.9-0.5,1.3c0,0.4,0,0.7-0.1,1.1
	c-0.1,0.4,0.1,0.7,0.5,0.9c0.2,0.1,0.4,0.2,0.7,0.3c-0.6,0.2-1.1,0.5-1.7,0.5c-0.3,0-1.1-0.5-1.2-0.9c-0.1-0.1-0.1-0.3-0.3-0.3
	c-0.3-0.1-0.4-0.3-0.4-0.6c0-0.7-0.3-1.2-0.9-1.7c-0.4-0.3-0.8-0.6-1.2-0.8c-0.4-0.2-0.8-0.6-0.9-1.1c0-0.1,0-0.2-0.1-0.2
	c-0.1,0-0.1,0.1-0.2,0.2c-0.1,0.2-0.2,0.4-0.2,0.6c-0.2,0.6-0.2,0.6-0.6,0.2c0,0-0.1-0.1-0.1-0.1c-0.4-0.3-0.4-0.6-0.3-1
	C21.8,10,21.9,9.8,21.8,9.6z M29.4,21c-0.1,0.2-0.3,0.1-0.4,0.1c-0.5,0-1.3-0.8-1.2-1.3c0-0.1,0-0.3,0.1-0.3c0.1,0,0.2,0.1,0.2,0.1
	c0.3,0.3,0.7,0.6,1,0.9C29.3,20.7,29.5,20.8,29.4,21z M21.7,12.1c0.8,0.2,1.5,0.5,2,1c0.4,0.4,0.7,0.9,1.3,1.2
	c0.4,0.2,0.4,0.6,0.2,1c0,0.1-0.1,0.2-0.1,0.3c-0.1,0.4-0.4,0.5-0.8,0.4c-0.4-0.2-0.8-0.3-1.3-0.4c-0.1,0-0.2,0-0.2-0.1
	c0-0.1,0.1-0.1,0.2-0.2c0.2-0.2,0.4-0.4,0.4-0.7c0-0.5-0.2-0.7-0.6-0.9c-0.2-0.1-0.4-0.1-0.6-0.2l0,0c-0.3-0.2-0.6-0.4-0.8-0.7
	c-0.1-0.1-0.2-0.2-0.1-0.4C21.3,12.3,21.5,12.1,21.7,12.1z M26.5,32.8c-0.6,0.1-1.1,0.2-1.6,0c-0.1-0.1-0.3-0.1-0.3-0.3
	c0-0.2,0.2-0.2,0.3-0.3c0.2,0,0.4-0.1,0.7-0.1c0.2,0,0.4,0,0.5,0.3C26.1,32.6,26.4,32.5,26.5,32.8z M24.4,32.1
	c0,0.3-0.3,0.3-0.5,0.3c-0.2,0-0.4,0.1-0.6-0.1c-0.6-0.5-1.3-0.8-2.1-0.9c-0.1,0-0.1,0-0.2-0.1c0,0,0,0,0-0.1
	c0.1-0.1,0.3-0.2,0.5-0.2c0.9,0.2,1.7,0.5,2.6,0.6C24.2,31.9,24.4,31.9,24.4,32.1z M29.9,11.8c0,0,0-0.1,0-0.2
	c0.3-0.2,0.5-0.6,1-0.7c0.3,0,0.7,0.3,0.6,0.6c-0.1,0.4-0.2,0.8-0.5,1.1c-0.3,0.3-0.6,0.3-0.8,0C30,12.5,29.9,12.1,29.9,11.8z
	 M35,12.8c0.1,0.1,0.3,0.2,0.4,0.4c0.1,0.2,0,0.3-0.2,0.2c-0.4-0.1-0.7-0.3-0.8-0.7c-0.2-0.6-0.4-1.1-0.7-1.6
	c-0.1-0.1-0.2-0.3,0-0.4c0.2-0.1,0.3-0.1,0.5,0.1c0.4,0.4,0.9,0.5,1.4,0.8c0.2,0.1,0.4,0.2,0.6,0.3c0.2,0.1,0.3,0.3,0.3,0.5
	c-0.1,0.7,0,0.8-0.7,0.5c-0.2-0.1-0.3-0.2-0.5-0.2c-0.1,0-0.2-0.2-0.3-0.1C34.8,12.6,34.9,12.7,35,12.8z"/>
</svg>
