<?xml version="1.0" encoding="utf-8"?>
<!-- Generator: Adobe Illustrator 21.0.0, SVG Export Plug-In . SVG Version: 6.00 Build 0)  -->
<svg version="1.1" id="Layer_1" xmlns="http://www.w3.org/2000/svg" xmlns:xlink="http://www.w3.org/1999/xlink" x="0px" y="0px"
	 viewBox="0 0 45 45" style="enable-background:new 0 0 45 45;" xml:space="preserve">
<style type="text/css">
	.st0{fill:#00467E;}
</style>
<path class="st0" d="M43.2,34.6l-0.8,0c-0.7,0-1.2-0.6-1.1-1.4c0,0,1.3-6.5,0.8-10.2c-0.8-6-3.3-11.2-8-15.2
	c-5.8-5-14.2-5.7-20.8-1.7C5.3,11,1.7,20.8,3,29.8c0.2,1.6,0.7,3.5,0.7,3.5c0.2,0.7-0.3,1.3-1,1.3H1.8c-0.7,0-1.3,0.6-1.3,1.3v4.2
	c0,0.7,0.6,1.3,1.3,1.3c0,0,9.1,0,13.2,0c0.2,0,0.2,0,0.2,0c0.3,0,0.4-0.2,0.3-0.5c0,0,0,0-0.1-0.2c-0.8-1.2-1.6-2.5-2.4-3.7
	c-2.7-3.9-3.9-8.2-3.4-12.9c0.4-3.7,1.7-7,4.1-9.7c2.1-2.4,4.7-3.9,7.9-4.1c4-0.2,7.2,1.4,9.6,4.4c4.7,6,5.2,12.9,2.1,19.8
	c-1,2.1-2.3,3.7-3.6,5.7c-0.2,0.3-0.2,0.3-0.2,0.3c-0.3,0.4,0.1,0.7,0.9,0.8l12.7,0.1c0.7,0,1.3-0.6,1.3-1.3V36
	C44.5,35.2,43.9,34.6,43.2,34.6z M6.1,21c0.5-0.5,1.1-0.5,1.4,0.1c0.6,0.9,0.3,2.9-0.4,3.7c-0.5,0.5-1.1,0.4-1.4-0.2
	C5.2,23.7,5.4,21.8,6.1,21z M9.9,15.8c-0.8,0.3-1.2-0.1-1.2-0.9c0-1,1-2.4,2-2.9c0.8-0.3,1.3,0,1.3,0.9C11.8,14,10.8,15.5,9.9,15.8z
	 M22.4,9.1c-0.9,0-1.6-0.7-1.7-1.7c0-1,0.8-1.8,1.7-1.8c0.9,0,1.6,0.8,1.6,1.8C24,8.3,23.3,9.1,22.4,9.1z M37.5,21.1
	c0.4-0.6,1-0.7,1.4-0.1c0.7,0.8,0.9,2.7,0.4,3.6c-0.3,0.6-1,0.7-1.4,0.2C37.2,24.1,37,22,37.5,21.1z M35.2,15.9c-1-0.3-2.2-2-2.1-3
	c0-0.7,0.5-1,1.2-0.8c1,0.4,2.1,1.9,2.1,2.9C36.4,15.7,35.9,16.1,35.2,15.9z"/>
</svg>
