<?xml version="1.0" encoding="utf-8"?>
<!-- Generator: Adobe Illustrator 21.0.0, SVG Export Plug-In . SVG Version: 6.00 Build 0)  -->
<svg version="1.1" id="Layer_1" xmlns="http://www.w3.org/2000/svg" xmlns:xlink="http://www.w3.org/1999/xlink" x="0px" y="0px"
	 viewBox="0 0 200 200" style="enable-background:new 0 0 200 200;" xml:space="preserve">
<style type="text/css">
	.st0{opacity:0.69;fill-rule:evenodd;clip-rule:evenodd;fill:#9DDAF7;}
	.st1{fill:none;stroke:#FFFFFF;stroke-width:4;stroke-miterlimit:10;}
	.st2{fill:#FFFFFF;}
</style>
<g>
	<path id="XMLID_34_" class="st0" d="M100,2.5C46.4,2.5,3,46.2,3,100c0,53.8,43.4,97.5,97,97.5c53.6,0,97-43.6,97-97.5
		C197,46.2,153.6,2.5,100,2.5"/>
	<circle class="st1" cx="100" cy="100" r="98"/>
</g>
<path class="st2" d="M160.3,79.4l-65.2,64.1c0,0-6.8,7.1-12.7,0.3l-42.6-41.8c0,0-6.3-5.4-1.9-10.6l14.2-14c0,0,4.2-3.5,9.4,2.2
	l19.4,19c0,0,7.6,9,15.2,0l41.5-43.5c0,0,4.5-4.4,10.1,0.5l14.1,13.8C161.6,69.4,166.9,73.5,160.3,79.4"/>
</svg>
