<?xml version="1.0" encoding="utf-8"?>
<!-- Generator: Adobe Illustrator 21.0.0, SVG Export Plug-In . SVG Version: 6.00 Build 0)  -->
<svg version="1.1" id="Layer_1" xmlns="http://www.w3.org/2000/svg" xmlns:xlink="http://www.w3.org/1999/xlink" x="0px" y="0px"
	 viewBox="0 0 200 200" style="enable-background:new 0 0 200 200;" xml:space="preserve">
<style type="text/css">
	.st0{opacity:0.69;fill-rule:evenodd;clip-rule:evenodd;fill:#9DDAF7;}
	.st1{fill:none;stroke:#FFFFFF;stroke-width:4;stroke-miterlimit:10;}
	.st2{fill:#FFFFFF;}
</style>
<g>
	<path id="XMLID_33_" class="st0" d="M100,2.3C46.1,2.3,2.4,46,2.4,100c0,53.9,43.7,97.7,97.6,97.7c53.9,0,97.6-43.7,97.6-97.7
		C197.6,46,153.9,2.3,100,2.3"/>
	<circle class="st1" cx="100" cy="100" r="98"/>
	<g>
		<g>
			<path class="st2" d="M25.8,122.1V77.9h31.2v8.3H35.2v9.3h21.4v8.3H35.2v18.3H25.8z"/>
			<path class="st2" d="M63.6,122.1V77.9h31.2v8.3H73v9.3h21.4v8.3H73v10h21.8v8.3H63.6z"/>
			<path class="st2" d="M102.2,122.1V77.9h31.2v8.3h-21.8v9.3H133v8.3h-21.4v10h21.8v8.3H102.2z"/>
			<path class="st2" d="M137.8,115.9l5.1-7.2c3.1,3.2,7.9,6,14,6c5.2,0,7.7-2.4,7.7-4.9c0-3.2-4.1-4.2-8.9-5.4
				c-7.2-1.7-16.5-3.6-16.5-13.7c0-7.4,6.4-13.5,16.7-13.5c7,0,12.8,2.1,17.2,6.2l-5.2,6.9c-3.6-3.3-8.3-4.8-12.8-4.8
				c-4,0-6.3,1.8-6.3,4.4c0,2.8,4,3.8,8.8,4.9c7.3,1.7,16.5,3.9,16.5,13.9c0,8.1-5.8,14.2-17.7,14.2
				C148,122.9,141.9,120.1,137.8,115.9z"/>
		</g>
		<polygon class="st2" points="46.2,181.4 36.8,174.5 151.4,16.6 160.9,23.5 		"/>
	</g>
</g>
</svg>
