<?xml version="1.0" encoding="utf-8"?>
<!-- Generator: Adobe Illustrator 21.0.0, SVG Export Plug-In . SVG Version: 6.00 Build 0)  -->
<svg version="1.1" id="Layer_1" xmlns="http://www.w3.org/2000/svg" xmlns:xlink="http://www.w3.org/1999/xlink" x="0px" y="0px"
	 viewBox="0 0 200 200" style="enable-background:new 0 0 200 200;" xml:space="preserve">
<style type="text/css">
	.st0{opacity:0.69;fill:#9DDAF7;}
	.st1{fill-rule:evenodd;clip-rule:evenodd;fill:none;stroke:#FFFFFF;stroke-width:4;stroke-miterlimit:10;}
	.st2{fill:#FFFFFF;}
</style>
<g>
	<circle class="st0" cx="100" cy="100" r="98"/>
	<path id="XMLID_31_" class="st1" d="M100,2C45.9,2,2,45.9,2,100c0,54.1,43.9,98,98,98c54.1,0,98-43.9,98-98C198,45.9,154.1,2,100,2
		"/>
	<path id="XMLID_6_" class="st2" d="M93.9,155.4c-16.7-1.4-28.9-7.9-37.6-16.7l12.4-17.9c5.9,6.3,14.6,11.9,25.2,13.8v-24.9
		c-16.4-4-34.1-10.3-34.1-32.2c0-16.3,12.7-30.1,34.1-32.4v-15h14.9v15.3c12.9,1.4,23.8,6.3,32.4,14.3l-12.5,17.1
		c-5.7-5.3-12.7-8.7-19.9-10.5v22.2c16.5,4.2,34.9,10.6,34.9,32.7c0,17.9-11.6,31.7-34.9,34.1v14.5H93.9V155.4z M93.9,84.9V65.4
		c-7,1-11,4.8-11,10.3C82.9,80.4,87.4,82.8,93.9,84.9 M108.8,113.4v21.6c8.1-1.6,11.9-6.3,11.9-11.4
		C120.7,118.2,115.8,115.6,108.8,113.4"/>
</g>
</svg>
