<?xml version="1.0" encoding="utf-8"?>
<!-- Generator: Adobe Illustrator 21.0.0, SVG Export Plug-In . SVG Version: 6.00 Build 0)  -->
<svg version="1.1" id="Layer_1" xmlns="http://www.w3.org/2000/svg" xmlns:xlink="http://www.w3.org/1999/xlink" x="0px" y="0px"
	 viewBox="0 0 45 45" style="enable-background:new 0 0 45 45;" xml:space="preserve">
<style type="text/css">
	.st0{fill:#00467E;}
</style>
<path class="st0" d="M8.7,23.5c-0.3,0.6-1,0.9-1.6,0.6l-5.9-2.6c-0.6-0.3-0.9-1-0.6-1.6l3.6-8.4c0.3-0.6,1-0.9,1.6-0.6l5.9,2.6
	c0.6,0.3,0.9,1,0.6,1.6L8.7,23.5z M36.3,23.8c0.3,0.6,1,0.9,1.6,0.6l5.9-2.6c0.6-0.3,0.9-1,0.6-1.6l-3.6-8.4c-0.3-0.6-1-0.9-1.6-0.6
	l-5.9,2.6c-0.6,0.3-0.9,1-0.6,1.6L36.3,23.8z M35.4,23.9l-3.7-8.6c0,0-2.8,0.2-4.4-1.1c0,0-1.9-1.3-4.1,0.3
	c-0.2,0.2-1.2,1.3-1.3,1.4c-0.2,0.2-2.7,2.9-3,3.2c-0.1,0.2-0.9,1.3,0,2.5c0.3,0.4,0.6,0.5,1,0.5c0.5,0,1.1-0.4,1.3-0.6l0,0l0,0
	l2.5-2l0.1-0.1l0.1,0c0.2-0.1,0.7-0.3,1.2-0.3c0.6,0,1.1,0.2,1.5,0.6c1.1,0.9,5.6,5,6.1,5.3c0.1,0.1,0.6,0.4,1.3,0.4h0.8
	c0.1,0,0.2-0.1,0.3-0.1C35.9,24.8,35.4,23.9,35.4,23.9z M14.7,24.8c0.4-0.5,0.2-1.2-0.4-1.6l0,0c-0.6-0.4-1.3-0.4-1.7,0.1l-2.3,3
	c-0.4,0.5-0.2,1.2,0.4,1.6l0,0c0.6,0.4,1.3,0.4,1.7-0.1L14.7,24.8z M17.4,26.8c0.4-0.5,0.2-1.2-0.4-1.6l0,0
	c-0.6-0.4-1.3-0.4-1.7,0.1l-2.3,3c-0.4,0.5-0.2,1.2,0.4,1.6l0,0c0.6,0.4,1.3,0.4,1.7-0.1L17.4,26.8z M20.1,28.8
	c0.4-0.5,0.2-1.2-0.4-1.6l0,0c-0.6-0.4-1.3-0.4-1.7,0.1l-2.3,3c-0.4,0.5-0.2,1.2,0.4,1.6l0,0c0.6,0.4,1.3,0.4,1.7-0.1L20.1,28.8z
	 M22.8,30.9c0.4-0.5,0.2-1.2-0.4-1.6l0,0c-0.6-0.4-1.3-0.4-1.7,0.1l-2.3,3c-0.4,0.5-0.2,1.2,0.4,1.6l0,0c0.6,0.4,1.3,0.4,1.7-0.1
	L22.8,30.9z M33.7,26.6c-1.1,0-1.8-0.5-1.9-0.6l0,0l0,0c0,0-4.9-4.4-6.1-5.3c-0.2-0.2-0.5-0.3-0.8-0.3c-0.4,0-0.7,0.1-0.7,0.2
	l-2.4,1.9c-0.2,0.1-1,0.8-2,0.8c-0.5,0-1.2-0.2-1.8-1c-1.1-1.5-0.5-3.2,0-3.8c0,0,0,0,0,0c0,0,0,0,0,0c0,0,0,0,0-0.1
	c0,0,0,0,0.1-0.1c0,0,0,0,0.1-0.1c0,0,0.1-0.1,0.1-0.1c0,0,0,0,0.1-0.1c0,0,0.1-0.1,0.1-0.2c0,0,0,0,0-0.1c0.3-0.3,0.7-0.8,1.2-1.3
	c0,0,0,0,0,0c0.1-0.1,0.2-0.2,0.3-0.3c0,0,0,0,0.1-0.1c0.1-0.1,0.2-0.2,0.3-0.3c0,0,0,0,0.1-0.1c0.1-0.1,0.2-0.2,0.3-0.3
	c0,0,0,0,0,0c0.3-0.3,0.7-0.6,1-0.9c0.1-0.3,0-0.6-0.8-0.8c0,0-2.1-0.4-3.9,0.4c-1.6,0.7-3.2,0.9-3.7,0.8l-3.8,8.8c0,0-0.4,0.7,0,1
	c0.4,0.3,1.1-0.4,1.1-0.4l0.2-0.2l1-1.4c0.3-0.4,0.9-0.7,1.5-0.7h0c0.5,0,1,0.2,1.4,0.5c0.5,0.4,0.9,1,0.9,1.6c0.1,0,0.3,0,0.4,0h0
	c0.5,0,1,0.2,1.4,0.5c0.4,0.3,0.7,0.8,0.9,1.3c0,0.1,0,0.2,0,0.3c0.1,0,0.3,0,0.4,0h0c0.5,0,1,0.2,1.4,0.5c0.5,0.4,0.9,1,0.9,1.6
	c0.1,0,0.3,0,0.4,0h0c0.5,0,1,0.2,1.4,0.5c0.9,0.7,1.2,2,0.6,2.8L22.2,33c0.7,0.6,1.5,0.2,1.5,0.2s0.6-0.3,0.7-1.2
	c0,0,1.1,0.4,2.2-0.4c1.2-0.8,0.8-1.5,0.8-1.5s0.8,0.5,1.9-0.1c1.1-0.5,1.1-1.4,1.1-1.4s1.9,0.2,2.7-0.6
	C33.6,27.4,33.8,26.9,33.7,26.6C33.8,26.6,33.8,26.6,33.7,26.6z"/>
</svg>
