<?xml version="1.0" encoding="utf-8"?>
<!-- Generator: Adobe Illustrator 19.0.0, SVG Export Plug-In . SVG Version: 6.00 Build 0)  -->
<svg version="1.1" id="Layer_1" xmlns="http://www.w3.org/2000/svg" xmlns:xlink="http://www.w3.org/1999/xlink" x="0px" y="0px"
	 viewBox="0 0 150 93.079" enable-background="new 0 0 150 93.079" xml:space="preserve">
<g id="XMLID_12_">
	<path id="XMLID_229_" fill="#00467E" d="M131.563,59.443l0.227-2.422c-0.302-4.841-1.891-6.809-1.891-6.809
		c-2.345-4.69-25.495-6.732-25.495-6.732c-2.421-0.303-4.085,0.075-4.085,0.075c-3.971-3.064-16.68-8.625-16.68-8.625
		c-8.852-3.063-30.942-0.605-30.942-0.605c-0.341-0.34-0.984-0.264-0.984-0.264c-0.34,0-0.454-0.379-0.454-0.379
		c-0.491-0.53-0.643-0.188-0.643-0.188c0.379,0.075,0.304,1.133,0.304,1.133c-3.935,0.757-17.4,7.036-17.4,7.036
		c-1.362,0.378-8.927,1.209-8.927,1.209c-1.286,0.304-0.832,1.212-0.832,1.212c0.151,0.605-0.076,1.513-0.076,1.513
		c-0.907,1.741-0.831,3.783-0.831,3.783c-0.38,0.756-0.531,3.253-0.531,3.253c-0.605,0.605-0.907,1.286-0.907,1.286
		c-0.832,1.968,0.907,5.447,0.907,5.447c0.076,0.909,0.681,1.74,0.681,1.74c0.681,0.227,1.513-0.226,1.513-0.226
		c2.95,1.133,8.851,1.966,8.851,1.966c-1.21-11.046,8.397-11.499,8.397-11.499C52.885,51.044,52.43,63.375,52.43,63.375
		l50.763,0.455c-0.379-12.937,9.531-12.937,9.531-12.937c11.954,0.302,9.987,12.635,9.987,12.635l0.984-0.078l7.64-1.437
		c1.135-0.151,1.287-0.681,1.287-0.681C132.546,60.576,131.563,59.443,131.563,59.443z M25.935,49.626c0,0-1.022,0.171-2.781-0.227
		c0,0-0.056-2.553,0.795-3.575c0,0,2.269,0.682,3.291,1.079C27.239,46.903,27.863,48.491,25.935,49.626z M82.616,36.86
		c0,0,6.298,2.95,7.036,3.575c0,0-1.873-0.284-2.214,0.966c0,0-0.567,1.587-0.227,2.269c0,0-0.056,0.226,0.681,0.454l-15.716-0.397
		l-2.951-8.738C69.226,34.988,78.815,35.102,82.616,36.86z M42.616,43.215c-0.568-0.115-0.114-0.567-0.114-0.567
		c1.191-1.419,8.17-5.277,8.17-5.277l-3.631,5.788L42.616,43.215z M48.573,43.044l3.745-6.128c0,0,4.596-2.326,14.355-1.987
		l1.135,8.511L48.573,43.044z M128.802,59.631c0,0-0.341,1.097-0.908,0.567c0,0-0.53-0.605,0.264-1.626
		C128.158,58.572,129.066,58.497,128.802,59.631z M127.951,52.86c0,0-1.987-0.284-2.837-0.114l-1.268-1.816
		c0,0-0.567-0.757,0.227-0.907c0,0,4.048-0.228,4.899,0.226c0,0,1.703,1.816,1.646,3.065
		C130.618,53.314,129.029,53.428,127.951,52.86z"/>
	<g id="XMLID_152_">
		<path id="XMLID_227_" fill="#00467E" d="M42.717,52.054c-4.535,0-8.211,3.677-8.211,8.212c0,4.534,3.676,8.211,8.211,8.211
			c4.536,0,8.213-3.677,8.213-8.211C50.93,55.732,47.253,52.054,42.717,52.054z"/>
		<path id="XMLID_226_" fill="#00467E" d="M38.196,58.301c0,0,0.416-1.129,1.19-1.487l1.725,2.085c0,0,0.238,0.355-0.358,0.415
			L38.196,58.301z"/>
		<path id="XMLID_225_" fill="#00467E" d="M42.062,58.481l-1.664-2.38c0,0,0.713-0.595,1.664-0.655l0.299,2.855
			C42.361,58.301,42.361,58.54,42.062,58.481z"/>
		<path id="XMLID_224_" fill="#00467E" d="M43.432,58.301l0.118-2.975c0,0,1.072-0.059,1.666,0.536l-1.368,2.499
			C43.848,58.362,43.55,58.54,43.432,58.301z"/>
		<path id="XMLID_223_" fill="#00467E" d="M44.622,59.135l1.845-2.378c0,0,0.891,0.713,1.07,1.247l-2.618,1.429
			C44.919,59.433,44.443,59.67,44.622,59.135z"/>
		<path id="XMLID_162_" fill="#00467E" d="M45.097,60.385l2.977-0.833c0,0,0.416,1.19-0.179,1.725l-2.798-0.475
			C45.097,60.802,44.741,60.505,45.097,60.385z"/>
		<path id="XMLID_161_" fill="#00467E" d="M44.801,61.634l2.736,0.833c0,0-0.06,1.487-1.189,1.666l-1.726-2.081
			C44.622,62.052,44.324,61.575,44.801,61.634z"/>
		<path id="XMLID_160_" fill="#00467E" d="M43.848,62.528l1.786,2.26c0,0-1.012,1.25-1.905,0.773l-0.237-2.855
			C43.492,62.707,43.432,62.348,43.848,62.528z"/>
		<path id="XMLID_159_" fill="#00467E" d="M42.599,62.766L42.54,65.62c0,0-1.191,0.239-1.905-0.416l1.31-2.497
			C41.944,62.707,42.122,62.528,42.599,62.766z"/>
		<path id="XMLID_158_" fill="#00467E" d="M41.408,62.052l-1.845,2.259c0,0-1.19-0.356-1.011-1.367l2.499-1.31
			C41.052,61.634,41.349,61.813,41.408,62.052z"/>
		<path id="XMLID_157_" fill="#00467E" d="M40.814,60.802l-3.035,0.832c0,0-0.535-1.012,0-1.843l2.916,0.415
			C40.695,60.206,41.111,60.622,40.814,60.802z"/>
	</g>
	<g id="XMLID_19_">
		<path id="XMLID_150_" fill="#00467E" d="M113.414,51.827c-4.535,0-8.211,3.677-8.211,8.212c0,4.535,3.676,8.211,8.211,8.211
			c4.535,0,8.213-3.677,8.213-8.211C121.627,55.504,117.949,51.827,113.414,51.827z"/>
		<path id="XMLID_149_" fill="#00467E" d="M108.892,58.075c0,0,0.417-1.13,1.191-1.487l1.726,2.084c0,0,0.237,0.354-0.358,0.414
			L108.892,58.075z"/>
		<path id="XMLID_148_" fill="#00467E" d="M112.759,58.253l-1.666-2.379c0,0,0.715-0.596,1.666-0.654l0.299,2.855
			C113.058,58.075,113.058,58.313,112.759,58.253z"/>
		<path id="XMLID_147_" fill="#00467E" d="M114.128,58.075l0.118-2.976c0,0,1.072-0.059,1.666,0.536l-1.367,2.5
			C114.545,58.135,114.247,58.313,114.128,58.075z"/>
		<path id="XMLID_134_" fill="#00467E" d="M115.794,60.158l2.975-0.834c0,0,0.418,1.189-0.178,1.726l-2.796-0.476
			C115.794,60.575,115.437,60.277,115.794,60.158z"/>
		<path id="XMLID_128_" fill="#00467E" d="M115.497,61.407l2.737,0.834c0,0-0.059,1.487-1.19,1.666l-1.726-2.082
			C115.318,61.825,115.021,61.348,115.497,61.407z"/>
		<path id="XMLID_123_" fill="#00467E" d="M114.545,62.301l1.785,2.26c0,0-1.012,1.249-1.905,0.774l-0.238-2.855
			C114.188,62.48,114.128,62.122,114.545,62.301z"/>
		<path id="XMLID_102_" fill="#00467E" d="M113.295,62.538l-0.06,2.855c0,0-1.189,0.239-1.904-0.415l1.309-2.498
			C112.64,62.48,112.819,62.301,113.295,62.538z"/>
		<path id="XMLID_83_" fill="#00467E" d="M112.105,61.825l-1.845,2.26c0,0-1.189-0.358-1.01-1.368l2.499-1.31
			C111.749,61.407,112.046,61.586,112.105,61.825z"/>
		<path id="XMLID_61_" fill="#00467E" d="M111.511,60.575l-3.036,0.832c0,0-0.535-1.011,0-1.844l2.917,0.417
			C111.392,59.98,111.808,60.396,111.511,60.575z"/>
	</g>
</g>
</svg>
