<?xml version="1.0" encoding="utf-8"?>
<!-- Generator: Adobe Illustrator 19.0.0, SVG Export Plug-In . SVG Version: 6.00 Build 0)  -->
<svg version="1.1" id="Layer_1" xmlns="http://www.w3.org/2000/svg" xmlns:xlink="http://www.w3.org/1999/xlink" x="0px" y="0px"
	 viewBox="-666 1027 107 107" style="enable-background:new -666 1027 107 107;" xml:space="preserve">
<style type="text/css">
	.st0{clip-path:url(#SVGID_2_);fill:#0E416B;}
	.st1{clip-path:url(#SVGID_4_);fill:#FFFFFF;}
	.st2{clip-path:url(#SVGID_6_);fill:#0E416C;}
	.st3{clip-path:url(#SVGID_8_);fill:#FFFFFF;}
	.st4{clip-path:url(#SVGID_10_);fill:#FFFFFF;}
	.st5{clip-path:url(#SVGID_12_);fill:#0E416C;}
	.st6{fill:#FFFFFF;}
	.st7{fill:none;stroke:#FFFFFF;stroke-width:4;stroke-miterlimit:10;}
</style>
<g>
	<g>
		<g>
			<defs>
				<rect id="SVGID_1_" x="-1992.1" y="3087" width="94.1" height="94.1"/>
			</defs>
			<clipPath id="SVGID_2_">
				<use xlink:href="#SVGID_1_"  style="overflow:visible;"/>
			</clipPath>
			<path class="st0" d="M-1898,3134.1c0,26-21.1,47.1-47.1,47.1s-47.1-21.1-47.1-47.1s21.1-47.1,47.1-47.1S-1898,3108.1-1898,3134.1
				"/>
		</g>
	</g>
	<g>
		<g>
			<defs>
				<rect id="SVGID_3_" x="-1992.1" y="3087" width="94.1" height="94.1"/>
			</defs>
			<clipPath id="SVGID_4_">
				<use xlink:href="#SVGID_3_"  style="overflow:visible;"/>
			</clipPath>
			<path class="st1" d="M-1915.7,3124.3l-31.1,30.2c0,0-3.2,3.4-6.1,0.1l-20.3-19.8c0,0-3-2.5-0.9-5l6.8-6.6c0,0,2-1.6,4.5,1.1
				l9.2,9c0,0,3.6,4.3,7.2,0l19.8-20.5c0,0,2.1-2.1,4.8,0.2l6.7,6.5C-1915.1,3119.6-1912.5,3121.6-1915.7,3124.3"/>
		</g>
	</g>
</g>
<g>
	<g>
		<defs>
			<rect id="SVGID_5_" x="-1327.1" y="2059" width="96.1" height="96.1"/>
		</defs>
		<clipPath id="SVGID_6_">
			<use xlink:href="#SVGID_5_"  style="overflow:visible;"/>
		</clipPath>
		<path class="st2" d="M-1231,2107.1c0,26.5-21.5,48.1-48.1,48.1c-26.5,0-48.1-21.5-48.1-48.1c0-26.5,21.5-48.1,48.1-48.1
			S-1231,2080.5-1231,2107.1"/>
	</g>
	<g>
		<defs>
			<rect id="SVGID_7_" x="-1327.1" y="2059" width="96.1" height="96.1"/>
		</defs>
		<clipPath id="SVGID_8_">
			<use xlink:href="#SVGID_7_"  style="overflow:visible;"/>
		</clipPath>
		<path class="st3" d="M-1248.4,2092.3c0,0,2.6,2-0.6,4.8"/>
	</g>
	<g>
		<defs>
			<rect id="SVGID_9_" x="-1327.1" y="2059" width="96.1" height="96.1"/>
		</defs>
		<clipPath id="SVGID_10_">
			<use xlink:href="#SVGID_9_"  style="overflow:visible;"/>
		</clipPath>
		<path class="st4" d="M-1249.1,2097.1l-31.7,30.9c0,0-3.3,3.4-6.2,0.1l-20.7-20.2c0,0-3.1-2.6-0.9-5.1l6.9-6.7c0,0,2-1.7,4.6,1.1
			l9.4,9.2c0,0,3.7,4.4,7.4,0l20.2-21"/>
	</g>
</g>
<g>
	<defs>
		<rect id="SVGID_11_" x="-661.1" y="1032" width="96.1" height="96.1"/>
	</defs>
	<clipPath id="SVGID_12_">
		<use xlink:href="#SVGID_11_"  style="overflow:visible;"/>
	</clipPath>
	<path class="st5" d="M-565,1080.1c0,26.5-21.5,48.1-48.1,48.1c-26.5,0-48.1-21.5-48.1-48.1c0-26.5,21.5-48.1,48.1-48.1
		C-586.5,1032-565,1053.5-565,1080.1"/>
</g>
<g>
	<path class="st6" d="M-649.6,1091.7v-22.4h15.8v4.2h-11.1v4.7h10.8v4.2h-10.8v9.3H-649.6z"/>
	<path class="st6" d="M-630.5,1091.7v-22.4h15.8v4.2h-11.1v4.7h10.8v4.2h-10.8v5.1h11.1v4.2H-630.5z"/>
	<path class="st6" d="M-610.9,1091.7v-22.4h15.8v4.2h-11.1v4.7h10.8v4.2h-10.8v5.1h11.1v4.2H-610.9z"/>
	<path class="st6" d="M-592.9,1088.5l2.6-3.6c1.6,1.6,4,3,7.1,3c2.6,0,3.9-1.2,3.9-2.5c0-1.6-2.1-2.1-4.5-2.7
		c-3.7-0.8-8.4-1.8-8.4-6.9c0-3.7,3.2-6.8,8.5-6.8c3.6,0,6.5,1.1,8.7,3.1l-2.7,3.5c-1.8-1.7-4.2-2.4-6.5-2.4c-2,0-3.2,0.9-3.2,2.2
		c0,1.4,2,1.9,4.5,2.5c3.7,0.9,8.4,2,8.4,7c0,4.1-2.9,7.2-9,7.2C-587.7,1092.1-590.8,1090.6-592.9,1088.5z"/>
</g>
<line class="st7" x1="-638" y1="1121.1" x2="-589.3" y2="1038.3"/>
</svg>
