<?xml version="1.0" encoding="utf-8"?>
<!-- Generator: Adobe Illustrator 21.0.0, SVG Export Plug-In . SVG Version: 6.00 Build 0)  -->
<svg version="1.1" id="Layer_1" xmlns="http://www.w3.org/2000/svg" xmlns:xlink="http://www.w3.org/1999/xlink" x="0px" y="0px"
	 viewBox="0 0 45 45" style="enable-background:new 0 0 45 45;" xml:space="preserve">
<style type="text/css">
	.st0{fill:#00467E;}
</style>
<g>
	<path class="st0" d="M26.4,15.8L26.4,15.8c1.5,0,2.9,0.4,4.1,0.8l-3.6,2.9H16.5c0,0,3.8-3.7,9.1-3.7v0H26.4z M18.6,26.2L5.7,36.7
		c-3.2-3.8-5.2-8.8-5.2-14.2c0-12.2,9.8-22,22-22c7.1,0,13.4,3.3,17.4,8.5L31.3,16c-3.1-1.2-6-1.1-8.6-0.8c-3.9,0.5-7.7,3.7-7.7,3.7
		l-4.7,0.7c-5.9,1.2-5.6,3-5.7,3.5c-0.1,0.5,0,1.3,0.3,2.2c0.3,1,1.1,1,1.1,1h1.8c0,0,0.3,0,0.8,0c-0.1-0.2-0.1-0.5-0.1-0.8
		c0-2.1,1.7-3.7,3.7-3.7s3.7,1.7,3.7,3.7c0,0.3,0,0.5-0.1,0.8C16.8,26.2,17.7,26.2,18.6,26.2z M15.4,25.5c0-1.7-1.4-3.1-3.1-3.1
		c-1.7,0-3.1,1.4-3.1,3.1s1.4,3.1,3.1,3.1C14,28.5,15.4,27.2,15.4,25.5z M34.4,23.3c-1.2,0-2.2,1-2.2,2.2s1,2.2,2.2,2.2
		c1.2,0,2.2-1,2.2-2.2S35.6,23.3,34.4,23.3z M12.4,23.3c-1.2,0-2.2,1-2.2,2.2s1,2.2,2.2,2.2c1.2,0,2.2-1,2.2-2.2
		S13.6,23.3,12.4,23.3z M44.5,22.5c0,12.2-9.8,22-22,22c-5.9,0-11.3-2.3-15.2-6.1l15-12.1c2.9,0,5.9,0,8.5,0c0-0.2-0.1-0.5-0.1-0.7
		c0-2.1,1.7-3.7,3.7-3.7s3.7,1.7,3.7,3.7c0,0.2,0,0.5-0.1,0.7c1,0,1.4,0,1.4,0c0.8-0.1,0.7-0.9,0.7-0.9c0-0.1,0.2-3.1,0-4.2
		c-0.2-1-1.3-1.3-1.3-1.3l-2.8-0.8c-0.9-0.7-1.7-1.3-2.6-1.8l7.6-6.1C43.3,14.3,44.5,18.2,44.5,22.5z M37.5,25.5
		c0-1.7-1.4-3.1-3.1-3.1s-3.1,1.4-3.1,3.1s1.4,3.1,3.1,3.1S37.5,27.2,37.5,25.5z M32.8,17.7l-2.3,1.8h4.8
		C35.3,19.5,34.3,18.6,32.8,17.7z"/>
</g>
</svg>
