<?xml version="1.0" encoding="utf-8"?>
<!-- Generator: Adobe Illustrator 21.0.0, SVG Export Plug-In . SVG Version: 6.00 Build 0)  -->
<svg version="1.1" id="Layer_1" xmlns="http://www.w3.org/2000/svg" xmlns:xlink="http://www.w3.org/1999/xlink" x="0px" y="0px"
	 viewBox="0 0 45 45" style="enable-background:new 0 0 45 45;" xml:space="preserve">
<style type="text/css">
	.st0{fill:#00467E;}
</style>
<g>
	<path class="st0" d="M8.9,33.3l-3.6,2.9c-3-3.8-4.8-8.5-4.8-13.7c0-12.2,9.8-22,22-22c6.8,0,13,3.1,17,8l-6.2,5L23,5.9
		c-0.2-0.2-0.6-0.2-0.8,0L4.1,19.2c-0.2,0.2-0.2,0.3,0.1,0.3h4.2c0.3,0,0.5,0.2,0.5,0.5L8.9,33.3z M24.4,16.1c0.3,0,0.5-0.2,0.5-0.5
		v-3.9c0-0.3-0.2-0.5-0.5-0.5h-3.9c-0.3,0-0.5,0.2-0.5,0.5v3.9c0,0.3,0.2,0.5,0.5,0.5H24.4z M40.8,10.4L35.2,15l5.7,4.3
		c0.2,0.2,0.2,0.3-0.1,0.3h-4.2c-0.3,0-0.5,0.2-0.5,0.5l0,15.2c0,0.3-0.2,0.5-0.5,0.5h-9.2c-0.3,0-0.5-0.2-0.5-0.5l0-6.8
		c0-0.3-0.2-0.5-0.5-0.5h-6c-0.3,0-0.5,0.2-0.5,0.5l0,6.8c0,0.3-0.2,0.5-0.5,0.5h-9l-2.7,2.2c4,4.1,9.5,6.6,15.7,6.6
		c12.2,0,22-9.8,22-22C44.5,18,43.2,13.8,40.8,10.4z"/>
</g>
</svg>
