<?xml version="1.0" encoding="utf-8"?>
<!-- Generator: Adobe Illustrator 21.0.0, SVG Export Plug-In . SVG Version: 6.00 Build 0)  -->
<svg version="1.1" id="Layer_1" xmlns="http://www.w3.org/2000/svg" xmlns:xlink="http://www.w3.org/1999/xlink" x="0px" y="0px"
	 viewBox="0 0 45 45" style="enable-background:new 0 0 45 45;" xml:space="preserve">
<style type="text/css">
	.st0{fill:#00467E;}
</style>
<g>
	<path class="st0" d="M12.7,14.9h19.5c0.1,0,0.2,0,0.3,0.1l-0.8,0.7h-19c-0.3,0-0.5-0.2-0.5-0.4C12.2,15.1,12.5,14.9,12.7,14.9z
		 M24.5,21.5l1.1-0.9H5.4c-0.3,0-0.4-0.2-0.2-0.4l6.8-8.1c0.2-0.2,0.5-0.4,0.8-0.4h19.4c0.3,0,0.6,0.2,0.8,0.4l1.3,1.5L39.9,9
		c-4-5.2-10.3-8.5-17.4-8.5c-12.2,0-22,9.8-22,22c0,5.4,2,10.4,5.2,14.2l3.9-3.2H5v-0.9h5.8l1.1-0.9H5v-0.9h8l1.1-0.9H5v-0.9h10.3
		l1.1-0.9H5V27h12.6l1.1-0.9H5v-0.9h14.9l1.1-0.9H5v-0.9h17.2l1.1-0.9H5v-0.9H24.5z M10.6,17.1c0,0.2,0.2,0.4,0.5,0.4h18.3l0.9-0.7
		H11.1C10.8,16.7,10.6,16.9,10.6,17.1z M8.9,19c0,0.2,0.2,0.4,0.5,0.4h17.7l0.9-0.7H9.4C9.1,18.6,8.9,18.8,8.9,19z M31,13.8
		c0.3,0,0.5-0.2,0.5-0.4S31.3,13,31,13H13.9c-0.3,0-0.5,0.2-0.5,0.4s0.2,0.4,0.5,0.4H31z M36,19c0-0.2-0.2-0.4-0.5-0.4h-3.9
		l-0.9,0.7h4.8C35.7,19.4,36,19.2,36,19z M33.9,17.5c0.3,0,0.5-0.2,0.5-0.4c0-0.2-0.2-0.3-0.4-0.4L33,17.5H33.9z M41.2,10.9
		l-5.5,4.4l4,4.8c0.2,0.2,0.1,0.4-0.2,0.4H29.3l-1.1,0.9h11.9v0.9H27l-1.1,0.9h14.2v0.9H24.7l-1.1,0.9h16.5v0.9H22.4L21.3,27h18.8
		v0.9h-20L19,28.9h21.1v0.9H17.8l-1.1,0.9h23.4v0.9H15.5l-1.1,0.9h25.7v0.9H13.2l-6,4.8c4,3.8,9.3,6.1,15.2,6.1c12.2,0,22-9.8,22-22
		C44.5,18.2,43.3,14.3,41.2,10.9z"/>
</g>
</svg>
