<?xml version="1.0" encoding="utf-8"?>
<!-- Generator: Adobe Illustrator 18.1.1, SVG Export Plug-In . SVG Version: 6.00 Build 0)  -->
<svg version="1.1" id="Layer_1" xmlns="http://www.w3.org/2000/svg" xmlns:xlink="http://www.w3.org/1999/xlink" x="0px" y="0px"
	 viewBox="0 0 91 91" enable-background="new 0 0 91 91" xml:space="preserve">
<radialGradient id="SVGID_1_" cx="43.6777" cy="27.9431" r="69.1167" gradientUnits="userSpaceOnUse">
	<stop  offset="0" style="stop-color:#719E40"/>
	<stop  offset="1" style="stop-color:#3D5E2D"/>
</radialGradient>
<path fill="url(#SVGID_1_)" d="M82.7,44.1C82.7,23.6,66.1,7,45.6,7S8.6,23.6,8.6,44.1c0,19.8,15.5,36,35.1,37V57.2
	c-0.5-1.1-0.9-3.2-3.1-4.9c-3.2-2.6-7-4.7-8.6-7.2c-2.3-3.5-1.5-5-1.5-7.9c0.2,2.9-0.2,4.8,2.1,6.9c2.7,2.5,9.2,5.8,12,8.9l0.8-25.3
	l1.2,28.4c3.4-4,8.7-6.4,10.9-9.4c1.9-2.4,2.5-5.4,2.9-7.1c0,2.4,0,4.9-1.9,7.8c-1.7,2.5-5.3,5.8-8.4,8.4c-1.9,1.6-2.5,3.4-3,4.6
	v20.6C66.7,80.5,82.7,64.1,82.7,44.1z M69.2,22.7c0.9,0,1.6,0.7,1.6,1.6c0,0.9-0.7,1.6-1.6,1.6c-0.9,0-1.6-0.7-1.6-1.6
	C67.6,23.4,68.3,22.7,69.2,22.7z M68.3,28.9c0,1.1-0.9,2.1-2.1,2.1c-1.1,0-2.1-0.9-2.1-2.1c0-1.1,0.9-2.1,2.1-2.1
	C67.4,26.8,68.3,27.7,68.3,28.9z M66.5,23.1c0,1.8-1.5,3.2-3.2,3.2c-1.8,0-3.2-1.5-3.2-3.2c0-1.8,1.5-3.2,3.2-3.2
	C65,19.9,66.5,21.3,66.5,23.1z M62.8,16.5c0,2.1-1.7,3.8-3.8,3.8c-2.1,0-3.8-1.7-3.8-3.8c0-2.1,1.7-3.8,3.8-3.8
	C61.1,12.8,62.8,14.4,62.8,16.5z M60,26.8c0,1.5-1.2,2.7-2.7,2.7c-1.5,0-2.7-1.2-2.7-2.7c0-1.5,1.2-2.7,2.7-2.7
	C58.8,24,60,25.3,60,26.8z M55.6,21.1c0,1.1-0.9,2.1-2.1,2.1c-1.1,0-2.1-0.9-2.1-2.1c0-1.1,0.9-2.1,2.1-2.1
	C54.6,19,55.6,19.9,55.6,21.1z M53.6,28.1c0,2-1.6,3.6-3.6,3.6c-2,0-3.6-1.6-3.6-3.6c0-2,1.6-3.6,3.6-3.6
	C52,24.4,53.6,26.1,53.6,28.1z M52.1,13.4c1.1,0,2.1,0.9,2.1,2.1c0,1.1-0.9,2.1-2.1,2.1S50,16.6,50,15.5
	C50,14.3,50.9,13.4,52.1,13.4z M47.9,11.1c1.1,0,2.1,0.9,2.1,2.1c0,1.1-0.9,2.1-2.1,2.1c-1.1,0-2.1-0.9-2.1-2.1
	C45.8,12,46.8,11.1,47.9,11.1z M39.1,9.6c1.9,0,3.4,1.5,3.4,3.4c0,1.9-1.5,3.4-3.4,3.4c-1.9,0-3.4-1.5-3.4-3.4
	C35.7,11.2,37.2,9.6,39.1,9.6z M39.1,29.6c-1.7,0-3.1-1.4-3.1-3.1c0-1.7,1.4-3.1,3.1-3.1c1.7,0,3.1,1.4,3.1,3.1
	C42.2,28.2,40.8,29.6,39.1,29.6z M44,33c0,1.4-1.1,2.5-2.5,2.5c-1.4,0-2.5-1.1-2.5-2.5c0-1.4,1.1-2.5,2.5-2.5
	C42.9,30.5,44,31.6,44,33z M36.4,17.7c1.3,0,2.3,1,2.3,2.3c0,1.3-1,2.3-2.3,2.3c-1.3,0-2.3-1-2.3-2.3C34,18.7,35.1,17.7,36.4,17.7z
	 M29.3,19c0-1.1,0.9-2.1,2.1-2.1c1.1,0,2.1,0.9,2.1,2.1c0,1.1-0.9,2.1-2.1,2.1C30.3,21.1,29.3,20.1,29.3,19z M23.5,20.3
	c0.9,0,1.6,0.7,1.6,1.6c0,0.9-0.7,1.6-1.6,1.6c-0.9,0-1.6-0.7-1.6-1.6C21.9,21,22.6,20.3,23.5,20.3z M26.2,26.4
	c0,0.9-0.7,1.6-1.6,1.6c-0.9,0-1.6-0.7-1.6-1.6c0-0.9,0.7-1.6,1.6-1.6C25.5,24.8,26.2,25.5,26.2,26.4z M22.6,29
	c1.1,0,2.1,0.9,2.1,2.1c0,1.1-0.9,2.1-2.1,2.1c-1.1,0-2.1-0.9-2.1-2.1C20.5,29.9,21.4,29,22.6,29z M21.3,37.7
	c-0.9,0-1.6-0.7-1.6-1.6c0-0.9,0.7-1.6,1.6-1.6c0.9,0,1.6,0.7,1.6,1.6C22.9,37,22.2,37.7,21.3,37.7z M23.7,35.9
	c0-1.5,1.2-2.7,2.7-2.7c1.5,0,2.7,1.2,2.7,2.7c0,1.5-1.2,2.7-2.7,2.7C24.9,38.7,23.7,37.4,23.7,35.9z M26.3,45C25,45,24,44,24,42.7
	c0-1.3,1-2.3,2.3-2.3c1.3,0,2.3,1,2.3,2.3C28.6,44,27.6,45,26.3,45z M28.4,31.6c-1.1,0-2.1-0.9-2.1-2.1c0-1.1,0.9-2.1,2.1-2.1
	s2.1,0.9,2.1,2.1C30.5,30.6,29.5,31.6,28.4,31.6z M28.3,25.3c-1.3,0-2.3-1-2.3-2.3c0-1.3,1-2.3,2.3-2.3c1.3,0,2.3,1,2.3,2.3
	C30.6,24.3,29.6,25.3,28.3,25.3z M34,28.9c1.8,0,3.2,1.5,3.2,3.2c0,1.8-1.5,3.2-3.2,3.2c-1.8,0-3.2-1.5-3.2-3.2
	C30.8,30.3,32.2,28.9,34,28.9z M32.7,39.6c-0.9,0-1.6-0.7-1.6-1.6c0-0.9,0.7-1.6,1.6-1.6c0.9,0,1.6,0.7,1.6,1.6
	C34.3,38.9,33.6,39.6,32.7,39.6z M35.7,44.8c-0.9,0-1.6-0.7-1.6-1.6c0-0.9,0.7-1.6,1.6-1.6c0.9,0,1.6,0.7,1.6,1.6
	C37.2,44.1,36.5,44.8,35.7,44.8z M35.2,38.7c0-1.7,1.4-3.1,3.1-3.1c1.7,0,3.1,1.4,3.1,3.1c0,1.7-1.4,3.1-3.1,3.1
	C36.6,41.8,35.2,40.4,35.2,38.7z M41.5,46.7c-1.4,0-2.5-1.1-2.5-2.5c0-1.4,1.1-2.5,2.5-2.5c1.4,0,2.5,1.1,2.5,2.5
	C44,45.6,42.9,46.7,41.5,46.7z M45.3,24.8c-2.7,0-4.8-2.2-4.8-4.8c0-2.7,2.1-4.8,4.8-4.8c2.7,0,4.8,2.2,4.8,4.8
	C50.1,22.7,48,24.8,45.3,24.8z M48.6,32.5c1.4,0,2.5,1.1,2.5,2.5c0,1.4-1.1,2.5-2.5,2.5c-1.4,0-2.5-1.1-2.5-2.5
	C46.1,33.6,47.2,32.5,48.6,32.5z M49.4,44c-1.3,0-2.3-1-2.3-2.3c0-1.3,1-2.3,2.3-2.3c1.3,0,2.3,1,2.3,2.3C51.7,43,50.7,44,49.4,44z
	 M55.6,44.5c-1.4,0-2.6-1.2-2.6-2.6c0-1.4,1.2-2.6,2.6-2.6s2.6,1.2,2.6,2.6C58.2,43.4,57,44.5,55.6,44.5z M55.3,38.2
	c-1.9,0-3.4-1.5-3.4-3.4c0-1.9,1.5-3.4,3.4-3.4c1.9,0,3.4,1.5,3.4,3.4C58.7,36.7,57.2,38.2,55.3,38.2z M59.2,37.5
	c0-1.3,1-2.3,2.3-2.3c1.3,0,2.3,1,2.3,2.3c0,1.3-1,2.3-2.3,2.3C60.2,39.8,59.2,38.8,59.2,37.5z M62.3,45.1c-1,0-1.8-0.8-1.8-1.8
	c0-1,0.8-1.8,1.8-1.8c1,0,1.8,0.8,1.8,1.8C64.1,44.3,63.3,45.1,62.3,45.1z M63.6,34.2c0-1.2,1-2.2,2.2-2.2c1.2,0,2.2,1,2.2,2.2
	c0,1.2-1,2.2-2.2,2.2C64.6,36.4,63.6,35.4,63.6,34.2z M66.9,40.3c-0.9,0-1.6-0.7-1.6-1.6c0-0.9,0.7-1.6,1.6-1.6
	c0.9,0,1.6,0.7,1.6,1.6C68.4,39.6,67.7,40.3,66.9,40.3z M70,33.4c-0.9,0-1.6-0.7-1.6-1.6c0-0.9,0.7-1.6,1.6-1.6
	c0.9,0,1.6,0.7,1.6,1.6C71.5,32.7,70.8,33.4,70,33.4z"/>
<path fill="#13487D" d="M82.7,44.1C82.7,23.6,66.1,7,45.6,7S8.6,23.6,8.6,44.1c0,19.8,15.5,36,35.1,37V57.2
	c-0.5-1.1-0.9-3.2-3.1-4.9c-3.2-2.6-7-4.7-8.6-7.2c-2.3-3.5-1.5-5-1.5-7.9c0.2,2.9-0.2,4.8,2.1,6.9c2.7,2.5,9.2,5.8,12,8.9l0.8-25.3
	l1.2,28.4c3.4-4,8.7-6.4,10.9-9.4c1.9-2.4,2.5-5.4,2.9-7.1c0,2.4,0,4.9-1.9,7.8c-1.7,2.5-5.3,5.8-8.4,8.4c-1.9,1.6-2.5,3.4-3,4.6
	v20.6C66.7,80.5,82.7,64.1,82.7,44.1z M69.2,22.7c0.9,0,1.6,0.7,1.6,1.6c0,0.9-0.7,1.6-1.6,1.6c-0.9,0-1.6-0.7-1.6-1.6
	C67.6,23.4,68.3,22.7,69.2,22.7z M68.3,28.9c0,1.1-0.9,2.1-2.1,2.1c-1.1,0-2.1-0.9-2.1-2.1c0-1.1,0.9-2.1,2.1-2.1
	C67.4,26.8,68.3,27.7,68.3,28.9z M66.5,23.1c0,1.8-1.5,3.2-3.2,3.2c-1.8,0-3.2-1.5-3.2-3.2c0-1.8,1.5-3.2,3.2-3.2
	C65,19.9,66.5,21.3,66.5,23.1z M62.8,16.5c0,2.1-1.7,3.8-3.8,3.8c-2.1,0-3.8-1.7-3.8-3.8c0-2.1,1.7-3.8,3.8-3.8
	C61.1,12.8,62.8,14.4,62.8,16.5z M60,26.8c0,1.5-1.2,2.7-2.7,2.7c-1.5,0-2.7-1.2-2.7-2.7c0-1.5,1.2-2.7,2.7-2.7
	C58.8,24,60,25.3,60,26.8z M55.6,21.1c0,1.1-0.9,2.1-2.1,2.1c-1.1,0-2.1-0.9-2.1-2.1c0-1.1,0.9-2.1,2.1-2.1
	C54.6,19,55.6,19.9,55.6,21.1z M53.6,28.1c0,2-1.6,3.6-3.6,3.6c-2,0-3.6-1.6-3.6-3.6c0-2,1.6-3.6,3.6-3.6
	C52,24.4,53.6,26.1,53.6,28.1z M52.1,13.4c1.1,0,2.1,0.9,2.1,2.1c0,1.1-0.9,2.1-2.1,2.1S50,16.6,50,15.5
	C50,14.3,50.9,13.4,52.1,13.4z M47.9,11.1c1.1,0,2.1,0.9,2.1,2.1c0,1.1-0.9,2.1-2.1,2.1c-1.1,0-2.1-0.9-2.1-2.1
	C45.8,12,46.8,11.1,47.9,11.1z M39.1,9.6c1.9,0,3.4,1.5,3.4,3.4c0,1.9-1.5,3.4-3.4,3.4c-1.9,0-3.4-1.5-3.4-3.4
	C35.7,11.2,37.2,9.6,39.1,9.6z M39.1,29.6c-1.7,0-3.1-1.4-3.1-3.1c0-1.7,1.4-3.1,3.1-3.1c1.7,0,3.1,1.4,3.1,3.1
	C42.2,28.2,40.8,29.6,39.1,29.6z M44,33c0,1.4-1.1,2.5-2.5,2.5c-1.4,0-2.5-1.1-2.5-2.5c0-1.4,1.1-2.5,2.5-2.5
	C42.9,30.5,44,31.6,44,33z M36.4,17.7c1.3,0,2.3,1,2.3,2.3c0,1.3-1,2.3-2.3,2.3c-1.3,0-2.3-1-2.3-2.3C34,18.7,35.1,17.7,36.4,17.7z
	 M29.3,19c0-1.1,0.9-2.1,2.1-2.1c1.1,0,2.1,0.9,2.1,2.1c0,1.1-0.9,2.1-2.1,2.1C30.3,21.1,29.3,20.1,29.3,19z M23.5,20.3
	c0.9,0,1.6,0.7,1.6,1.6c0,0.9-0.7,1.6-1.6,1.6c-0.9,0-1.6-0.7-1.6-1.6C21.9,21,22.6,20.3,23.5,20.3z M26.2,26.4
	c0,0.9-0.7,1.6-1.6,1.6c-0.9,0-1.6-0.7-1.6-1.6c0-0.9,0.7-1.6,1.6-1.6C25.5,24.8,26.2,25.5,26.2,26.4z M22.6,29
	c1.1,0,2.1,0.9,2.1,2.1c0,1.1-0.9,2.1-2.1,2.1c-1.1,0-2.1-0.9-2.1-2.1C20.5,29.9,21.4,29,22.6,29z M21.3,37.7
	c-0.9,0-1.6-0.7-1.6-1.6c0-0.9,0.7-1.6,1.6-1.6c0.9,0,1.6,0.7,1.6,1.6C22.9,37,22.2,37.7,21.3,37.7z M23.7,35.9
	c0-1.5,1.2-2.7,2.7-2.7c1.5,0,2.7,1.2,2.7,2.7c0,1.5-1.2,2.7-2.7,2.7C24.9,38.7,23.7,37.4,23.7,35.9z M26.3,45C25,45,24,44,24,42.7
	c0-1.3,1-2.3,2.3-2.3c1.3,0,2.3,1,2.3,2.3C28.6,44,27.6,45,26.3,45z M28.4,31.6c-1.1,0-2.1-0.9-2.1-2.1c0-1.1,0.9-2.1,2.1-2.1
	s2.1,0.9,2.1,2.1C30.5,30.6,29.5,31.6,28.4,31.6z M28.3,25.3c-1.3,0-2.3-1-2.3-2.3c0-1.3,1-2.3,2.3-2.3c1.3,0,2.3,1,2.3,2.3
	C30.6,24.3,29.6,25.3,28.3,25.3z M34,28.9c1.8,0,3.2,1.5,3.2,3.2c0,1.8-1.5,3.2-3.2,3.2c-1.8,0-3.2-1.5-3.2-3.2
	C30.8,30.3,32.2,28.9,34,28.9z M32.7,39.6c-0.9,0-1.6-0.7-1.6-1.6c0-0.9,0.7-1.6,1.6-1.6c0.9,0,1.6,0.7,1.6,1.6
	C34.3,38.9,33.6,39.6,32.7,39.6z M35.7,44.8c-0.9,0-1.6-0.7-1.6-1.6c0-0.9,0.7-1.6,1.6-1.6c0.9,0,1.6,0.7,1.6,1.6
	C37.2,44.1,36.5,44.8,35.7,44.8z M35.2,38.7c0-1.7,1.4-3.1,3.1-3.1c1.7,0,3.1,1.4,3.1,3.1c0,1.7-1.4,3.1-3.1,3.1
	C36.6,41.8,35.2,40.4,35.2,38.7z M41.5,46.7c-1.4,0-2.5-1.1-2.5-2.5c0-1.4,1.1-2.5,2.5-2.5c1.4,0,2.5,1.1,2.5,2.5
	C44,45.6,42.9,46.7,41.5,46.7z M45.3,24.8c-2.7,0-4.8-2.2-4.8-4.8c0-2.7,2.1-4.8,4.8-4.8c2.7,0,4.8,2.2,4.8,4.8
	C50.1,22.7,48,24.8,45.3,24.8z M48.6,32.5c1.4,0,2.5,1.1,2.5,2.5c0,1.4-1.1,2.5-2.5,2.5c-1.4,0-2.5-1.1-2.5-2.5
	C46.1,33.6,47.2,32.5,48.6,32.5z M49.4,44c-1.3,0-2.3-1-2.3-2.3c0-1.3,1-2.3,2.3-2.3c1.3,0,2.3,1,2.3,2.3C51.7,43,50.7,44,49.4,44z
	 M55.6,44.5c-1.4,0-2.6-1.2-2.6-2.6c0-1.4,1.2-2.6,2.6-2.6s2.6,1.2,2.6,2.6C58.2,43.4,57,44.5,55.6,44.5z M55.3,38.2
	c-1.9,0-3.4-1.5-3.4-3.4c0-1.9,1.5-3.4,3.4-3.4c1.9,0,3.4,1.5,3.4,3.4C58.7,36.7,57.2,38.2,55.3,38.2z M59.2,37.5
	c0-1.3,1-2.3,2.3-2.3c1.3,0,2.3,1,2.3,2.3c0,1.3-1,2.3-2.3,2.3C60.2,39.8,59.2,38.8,59.2,37.5z M62.3,45.1c-1,0-1.8-0.8-1.8-1.8
	c0-1,0.8-1.8,1.8-1.8c1,0,1.8,0.8,1.8,1.8C64.1,44.3,63.3,45.1,62.3,45.1z M63.6,34.2c0-1.2,1-2.2,2.2-2.2c1.2,0,2.2,1,2.2,2.2
	c0,1.2-1,2.2-2.2,2.2C64.6,36.4,63.6,35.4,63.6,34.2z M66.9,40.3c-0.9,0-1.6-0.7-1.6-1.6c0-0.9,0.7-1.6,1.6-1.6
	c0.9,0,1.6,0.7,1.6,1.6C68.4,39.6,67.7,40.3,66.9,40.3z M70,33.4c-0.9,0-1.6-0.7-1.6-1.6c0-0.9,0.7-1.6,1.6-1.6
	c0.9,0,1.6,0.7,1.6,1.6C71.5,32.7,70.8,33.4,70,33.4z"/>
</svg>
