<?xml version="1.0" encoding="utf-8"?>
<!-- Generator: Adobe Illustrator 21.0.0, SVG Export Plug-In . SVG Version: 6.00 Build 0)  -->
<svg version="1.1" id="Layer_1" xmlns="http://www.w3.org/2000/svg" xmlns:xlink="http://www.w3.org/1999/xlink" x="0px" y="0px"
	 viewBox="0 0 45 45" style="enable-background:new 0 0 45 45;" xml:space="preserve">
<style type="text/css">
	.st0{fill:#00467E;}
</style>
<path class="st0" d="M44,13.1v4.7c0,0-5,0.2-7-0.6v24h-1.3V12.4c-0.2-0.2-0.3-0.4-0.3-0.6c0-0.5,0.4-0.9,0.9-0.9
	c0.5,0,0.9,0.4,0.9,0.9c0,0.2-0.1,0.4-0.2,0.6C38,12.7,40.1,13.3,44,13.1z M19.9,15.5v-2.2c0,0,0-2.6-2.6-2.6
	c-2.7,0-2.6,2.8-2.6,2.8v2c-0.3,0-0.5,0.1-0.5,0.2c0,0.1,0.6,0.3,1.3,0.3h1c0,0.4,0.3,0.7,0.7,0.7s0.7-0.3,0.7-0.7h1
	c0.7,0,1.3-0.1,1.3-0.3C20.4,15.6,20.2,15.5,19.9,15.5z M32.9,26.7h-2c-0.7,0-1.3,0.6-1.3,1.3v11.9c0,0.7-0.6,1.3-1.3,1.3h-7.9
	c0-0.1,0.1-0.3,0.1-0.4V32c0-0.7-0.6-1.3-1.3-1.3h-3.6c-0.7,0-1.3,0.6-1.3,1.3v8.8c0,0.1,0,0.3,0.1,0.4H6.4c-0.7,0-1.3-0.6-1.3-1.3
	V28c0-0.7-0.6-1.3-1.3-1.3h-2c-0.7,0-0.9-0.4-0.3-0.9l8.5-7.2c0.6-0.5,1-1.5,1-2.2v-3.1c0-0.7-0.6-1.3-1.3-1.3H8.2
	c-0.7,0-0.9-0.4-0.3-0.9l8.4-7c0.6-0.5,1.5-0.5,2.1,0l8.4,7c0.6,0.5,0.4,0.9-0.3,0.9h-1.3c-0.7,0-1.3,0.6-1.3,1.3v3.1
	c0,0.7,0.5,1.7,1,2.2l8.5,7.2C33.8,26.3,33.7,26.7,32.9,26.7z M21.9,14.6c0-0.7-0.1-1.9-0.2-2.7c0,0-0.4-2.8-4.5-2.8
	c-4.1,0-4.5,2.9-4.5,2.9c-0.1,0.7-0.2,1.9-0.2,2.7v1.7c0,0.7,0.6,1.3,1.3,1.3h6.6c0.7,0,1.3-0.6,1.3-1.3V14.6z"/>
</svg>
