<?xml version="1.0" encoding="utf-8"?>
<!-- Generator: Adobe Illustrator 21.0.0, SVG Export Plug-In . SVG Version: 6.00 Build 0)  -->
<svg version="1.1" id="Layer_1" xmlns="http://www.w3.org/2000/svg" xmlns:xlink="http://www.w3.org/1999/xlink" x="0px" y="0px"
	 viewBox="0 0 45 45" style="enable-background:new 0 0 45 45;" xml:space="preserve">
<style type="text/css">
	.st0{fill:#00467E;}
</style>
<g>
	<path class="st0" d="M22.6,7.9c-4.7,0-5.5,3.6-5.5,4.4v5.6h10.7v-5.7C27.8,11.5,27.3,7.9,22.6,7.9z"/>
	<path class="st0" d="M22.5,0.5c-12.1,0-21.8,9.8-21.8,22s9.8,22,21.8,22c12.1,0,21.8-9.8,21.8-22S34.6,0.5,22.5,0.5z M32.4,35.8
		H12.6V17.9h2.5l0-5.8c0-2.2,2.1-6.3,7.5-6.3c5.5,0,7.3,4.1,7.3,6.3l0,0.1v5.7h2.5V35.8z"/>
	<path class="st0" d="M25.1,24.7c0-1.4-1.2-2.6-2.6-2.6s-2.6,1.2-2.6,2.6c0,1,0.5,1.8,1.3,2.3h0v5.6h2.5V27h0
		C24.5,26.5,25.1,25.7,25.1,24.7z"/>
</g>
</svg>
