<?xml version="1.0" encoding="utf-8"?>
<!-- Generator: Adobe Illustrator 19.0.0, SVG Export Plug-In . SVG Version: 6.00 Build 0)  -->
<svg version="1.1" id="Layer_1" xmlns="http://www.w3.org/2000/svg" xmlns:xlink="http://www.w3.org/1999/xlink" x="0px" y="0px"
	 viewBox="0 0 150 93.079" enable-background="new 0 0 150 93.079" xml:space="preserve">
<g id="XMLID_238_">
	<path id="XMLID_287_" fill="#00467E" d="M136.531,48.803c-1.947-1.949-1.797-3.445-1.797-3.445
		c-0.599-1.946-3.294-2.545-3.294-2.545c-5.242-2.995-26.059-3.895-26.059-3.895c-1.497-1.647-2.696-0.899-2.696-0.899
		c-1.497-0.299-7.188-5.091-7.188-5.091c-5.84-4.494-11.081-6.44-11.081-6.44c-4.344-1.049-19.17-1.797-19.17-1.797
		c-2.247-1.348-4.643-1.799-4.643-1.799c-3.294-0.297-33.846-0.149-33.846-0.149c-2.246,0.448-2.396,2.397-2.396,2.397
		c-1.498,0.299-4.793,0-4.793,0c-2.097-0.15-2.846,1.047-2.846,1.047l2.995,1.049c-1.648,2.248-4.793,9.585-4.793,9.585
		l-1.947,2.545l-1.198,1.797c-0.899,0.451-0.449,4.494-0.449,4.494c0,1.196,0.15,3.294,0.15,3.294l-1.947,2.547l0.6,5.841
		c-0.15,1.197,1.048,2.696,1.048,2.696l3.893,1.198c0.599,1.197,1.049,1.797,1.049,1.797c1.798,0.599,8.686,1.348,8.686,1.348
		l0.15,3.295l1.198-1.496c-0.748-5.542,1.797-12.581,1.797-12.581c2.097-3.893,4.943-3.893,4.943-3.893
		c3.893-0.899,10.783,0.448,10.783,0.448c8.386,2.098,8.535,14.529,8.535,14.529l0.899,0.899l4.493-0.451l0.749,0.9h1.647
		l0.899-0.75l40.435,0.15l0.899,1.049c0.6-1.349,1.198-8.536,1.198-8.536c1.647-8.237,6.739-7.938,6.739-7.938
		c3.445-0.899,10.184,0.449,10.184,0.449c7.937,1.797,7.638,13.029,7.638,13.029c1.647,2.098,2.545-0.149,2.545-0.149
		c1.947,0.299,3.744-0.3,3.744-0.3l3.594-3.295v-6.439C137.73,50.45,136.531,48.803,136.531,48.803z M85.313,29.184
		c0,0,5.991,3.145,7.788,5.241l-1.797,0.599c0,0-0.899,3.893,0.299,4.942l-18.421-0.599l-2.096-11.83
		C71.086,27.537,81.269,28.135,85.313,29.184z M40.833,37.72l-10.932-0.899c0,0-2.097-0.449-1.198-2.696l1.798-5.092
		c0,0,0.748-1.198,2.396-1.346l8.836-0.15c0,0,1.648,0.15,1.797,1.047l-1.198,7.487C42.332,36.071,42.482,37.271,40.833,37.72z
		 M29.153,24.39c0,0,0.099-1.047,2.196-1.148l27.157,0.299c0,0,0.998,0,1.397,0.9C59.903,24.441,28.953,24.541,29.153,24.39z
		 M45.626,38.468l1.648-11.38h3.145l0.449,11.38H45.626z M51.766,38.618l-0.449-11.531l16.175,0.149l0.299,12.13L51.766,38.618z
		 M125.748,44.459c0,0,3.744-0.599,5.391,0.299c0,0,1.199-1.497,2.247-0.748c0,0,1.348,1.049,1.497,3.295
		c0,0,2.097,2.545,2.097,4.341C136.981,51.646,132.039,50.749,125.748,44.459z"/>
	<g id="XMLID_257_">
		<path id="XMLID_285_" fill="#00467E" d="M37.988,52.995c-5.706,0-10.334,4.628-10.334,10.335c0,5.706,4.628,10.333,10.334,10.333
			c5.707,0,10.333-4.628,10.333-10.333C48.321,57.623,43.695,52.995,37.988,52.995z"/>
		<path id="XMLID_284_" fill="#00467E" d="M32.298,60.857c0,0,0.524-1.422,1.497-1.871l2.173,2.623c0,0,0.3,0.446-0.449,0.522
			L32.298,60.857z"/>
		<path id="XMLID_283_" fill="#00467E" d="M37.165,61.082l-2.097-2.995c0,0,0.899-0.748,2.097-0.824l0.374,3.594
			C37.539,60.857,37.539,61.158,37.165,61.082z"/>
		<path id="XMLID_282_" fill="#00467E" d="M38.887,60.857l0.15-3.744c0,0,1.347-0.074,2.096,0.674l-1.722,3.146
			C39.411,60.933,39.037,61.158,38.887,60.857z"/>
		<path id="XMLID_281_" fill="#00467E" d="M40.384,61.906l2.322-2.993c0,0,1.123,0.897,1.348,1.569l-3.295,1.797
			C40.759,62.279,40.16,62.578,40.384,61.906z"/>
		<path id="XMLID_280_" fill="#00467E" d="M40.984,63.479l3.745-1.049c0,0,0.524,1.498-0.225,2.172l-3.519-0.598
			C40.984,64.004,40.533,63.629,40.984,63.479z"/>
		<path id="XMLID_262_" fill="#00467E" d="M40.609,65.051l3.445,1.049c0,0-0.075,1.871-1.498,2.096l-2.172-2.62
			C40.384,65.576,40.011,64.977,40.609,65.051z"/>
		<path id="XMLID_261_" fill="#00467E" d="M39.411,66.176l2.246,2.844c0,0-1.273,1.572-2.396,0.973L38.963,66.4
			C38.963,66.4,38.887,65.95,39.411,66.176z"/>
		<path id="XMLID_260_" fill="#00467E" d="M37.838,66.475l-0.074,3.593c0,0-1.496,0.3-2.396-0.524l1.648-3.143
			C37.015,66.4,37.24,66.176,37.838,66.475z"/>
		<path id="XMLID_259_" fill="#00467E" d="M36.341,65.576l-2.322,2.844c0,0-1.497-0.449-1.273-1.721l3.146-1.648
			C35.892,65.051,36.267,65.276,36.341,65.576z"/>
		<path id="XMLID_258_" fill="#00467E" d="M35.592,64.004l-3.819,1.047c0,0-0.674-1.274,0-2.321l3.669,0.524
			C35.442,63.254,35.967,63.777,35.592,64.004z"/>
	</g>
	<g id="XMLID_239_">
		<path id="XMLID_255_" fill="#00467E" d="M115.864,52.995c-5.707,0-10.333,4.628-10.333,10.335c0,5.706,4.626,10.333,10.333,10.333
			c5.707,0,10.334-4.628,10.334-10.333C126.198,57.623,121.571,52.995,115.864,52.995z"/>
		<path id="XMLID_254_" fill="#00467E" d="M110.173,60.857c0,0,0.524-1.422,1.498-1.871l2.171,2.623c0,0,0.3,0.446-0.448,0.522
			L110.173,60.857z"/>
		<path id="XMLID_253_" fill="#00467E" d="M115.041,61.082l-2.096-2.995c0,0,0.898-0.748,2.096-0.824l0.374,3.594
			C115.415,60.857,115.415,61.158,115.041,61.082z"/>
		<path id="XMLID_252_" fill="#00467E" d="M116.763,60.857l0.149-3.744c0,0,1.348-0.074,2.097,0.674l-1.722,3.146
			C117.287,60.933,116.912,61.158,116.763,60.857z"/>
		<path id="XMLID_251_" fill="#00467E" d="M118.26,61.906l2.322-2.993c0,0,1.123,0.897,1.348,1.569l-3.294,1.797
			C118.635,62.279,118.036,62.578,118.26,61.906z"/>
		<path id="XMLID_250_" fill="#00467E" d="M118.86,63.479l3.744-1.049c0,0,0.524,1.498-0.225,2.172l-3.519-0.598
			C118.86,64.004,118.41,63.629,118.86,63.479z"/>
		<path id="XMLID_249_" fill="#00467E" d="M118.485,65.051l3.444,1.049c0,0-0.074,1.871-1.497,2.096l-2.172-2.62
			C118.26,65.576,117.886,64.977,118.485,65.051z"/>
		<path id="XMLID_248_" fill="#00467E" d="M117.287,66.176l2.246,2.844c0,0-1.274,1.572-2.396,0.973l-0.3-3.593
			C116.838,66.4,116.763,65.95,117.287,66.176z"/>
		<path id="XMLID_247_" fill="#00467E" d="M115.715,66.475l-0.075,3.593c0,0-1.497,0.3-2.396-0.524l1.647-3.143
			C114.89,66.4,115.115,66.176,115.715,66.475z"/>
		<path id="XMLID_246_" fill="#00467E" d="M114.216,65.576l-2.322,2.844c0,0-1.497-0.449-1.272-1.721l3.144-1.648
			C113.767,65.051,114.142,65.276,114.216,65.576z"/>
		<path id="XMLID_240_" fill="#00467E" d="M113.468,64.004l-3.819,1.047c0,0-0.674-1.274,0-2.321l3.669,0.524
			C113.319,63.254,113.842,63.777,113.468,64.004z"/>
	</g>
</g>
</svg>
