<?xml version="1.0" encoding="utf-8"?>
<!-- Generator: Adobe Illustrator 21.0.0, SVG Export Plug-In . SVG Version: 6.00 Build 0)  -->
<svg version="1.1" id="Layer_1" xmlns="http://www.w3.org/2000/svg" xmlns:xlink="http://www.w3.org/1999/xlink" x="0px" y="0px"
	 viewBox="0 0 45 45" style="enable-background:new 0 0 45 45;" xml:space="preserve">
<style type="text/css">
	.st0{fill:#00467E;}
</style>
<path class="st0" d="M22.5,1C10.6,1,1,10.6,1,22.5S10.6,44,22.5,44S44,34.4,44,22.5S34.4,1,22.5,1z M20.8,7.2
	c0.1-0.7,0.5-1.3,1.2-1.5c0.9-0.3,1.8,0.1,2.2,0.9c0.4,0.8,0.1,1.8-0.7,2.3c-0.2,0.1-0.2,0.2-0.2,0.4c0,1.3,0,2.7,0,4
	c0,1.9,0,3.9,0,5.8c0,0.2-0.1,0.3-0.2,0.3c-0.3,0-0.6,0-1,0c0-0.2,0-0.4,0-0.6c0-2.2,0-4.3,0-6.5c0-1,0-2.1,0-3.1
	c0-0.1-0.1-0.2-0.2-0.2C21.1,8.6,20.7,8,20.8,7.2z M14.3,14.2c-0.8-0.2-1.2-0.7-1.4-1.5c-0.4,0-0.8,0-1.1,0c-0.7-0.1-1-0.5-1-1.1
	c0,0,0,0,0-0.1c-0.8,0.1-1.5,0.1-2.1-0.5C8.3,10.7,8.1,10.4,8,9.9c0.6,0,1.2,0,1.8,0c1.8-0.1,3.6-0.2,5.4-0.3
	c0.9-0.1,1.8-0.4,2.7-0.7c0.6-0.2,1.1-0.3,1.7-0.1C20,8.9,20.2,9,20.3,9.3c0,0,0,0,0,0c0.2,0.6,0.5,1,1.2,0.9c0,0.1,0,0.1,0,0.1
	c0,1.4,0,2.8,0,4.2c0,0.1,0,0.2-0.2,0.3c-1.1,0.2-2.2,0.4-3.3,0.2c-0.8-0.1-1.4-0.6-1.8-1.3c0,0,0,0-0.1-0.1
	C15.7,14.1,15,14.3,14.3,14.2z M15.9,19.6c-0.6-0.7-0.8-1.5-0.4-2.4c0.2-0.6,0.6-0.9,1.1-1.2c1-0.5,2.1-0.5,3.2-0.4
	c0.9,0.1,1.5,0.9,1.5,1.8c0,0.3-0.1,0.5-0.4,0.6c-0.8,0.3-1.5,0.3-2.2-0.3c-0.3-0.3-0.7-0.4-1.1-0.3c-0.1,0-0.2,0.1-0.3,0.2
	c-0.1,0.3,0,0.7,0.2,0.9c0.4,0.3,0.9,0.5,1.4,0.6c0.5,0.2,1.1,0.3,1.6,0.4c0.1,0,0.1,0,0.1,0c-0.4,0.2-0.9,0.3-1.3,0.6
	c-0.4,0.2-0.8,0.6-1.1,0.9c-0.1,0-0.2,0.1-0.2,0.1C17.2,20.8,16.5,20.4,15.9,19.6z M19.5,39.2c0.1-0.1,0.1-0.3,0.2-0.4
	c0.8-0.5,1.6-1,2.4-1.5c0.3-0.2,0.7-0.4,1-0.7c0.2-0.2,0.2-0.3,0.1-0.5c-0.4,0.3-0.8,0.6-1.1,0.8c0,0,0,0-0.1-0.1c0-0.3,0-0.5,0-0.8
	c0-0.1,0.1-0.1,0.2-0.2c0.5-0.2,1-0.3,1.6-0.4c0.4-0.1,0.9-0.3,1.2-0.7c0.2,0.2,0.3,0.4,0.3,0.7c0,0.7-0.3,1.2-0.9,1.5
	c-0.5,0.3-1.1,0.6-1.6,0.9c-0.9,0.4-1.9,0.8-2.8,1.2C19.8,39.2,19.7,39.2,19.5,39.2z M23.2,32.4c0.1,0.5-0.3,0.7-0.6,0.8
	c-0.2,0.1-0.3,0.1-0.6,0.2c0-0.3,0-0.5,0-0.7c0-0.1,0.1-0.1,0.2-0.2c0.4-0.2,0.8-0.3,1.2-0.4c0.6-0.2,1.2-0.4,1.8-0.6
	c0.1,0.3,0.2,0.7,0.2,1c0.1,1.4-0.5,2.4-1.9,2.8c-0.4,0.1-0.9,0.2-1.3,0.3c-0.1,0-0.2,0.1-0.3,0.1c-0.2,0.1-0.2,0.2-0.2,0.4
	c0,0.3,0,0.6,0,0.9c0,0.3-0.2,0.3-0.4,0.4c0,0-0.2,0-0.3-0.1c-0.4-0.3-0.7-0.6-0.9-1c-0.3-0.5-0.2-1,0.2-1.5
	c0.5-0.5,1.2-0.8,1.8-1.1c0.3-0.2,0.7-0.3,1-0.5C23.6,33,23.6,32.6,23.2,32.4z M25.4,39.1c-0.6-0.2-1.1-0.3-1.7-0.5
	c-0.2-0.1-0.4-0.1-0.5-0.2c-0.1,1.1-0.2,2.2-0.3,3.2c0,0.2-0.1,0.3-0.3,0.3c-0.2,0-0.3-0.1-0.4-0.3c-0.1-0.9-0.2-1.9-0.2-2.8
	c0-0.1,0-0.2,0.2-0.3c0.6-0.3,1.2-0.6,1.8-0.8c0.1,0,0.2,0,0.2,0c0.4,0.3,0.8,0.7,1.3,1c0,0,0.1,0.1,0.1,0.1c0,0.1,0.1,0.1,0.1,0.2
	C25.6,39.1,25.5,39.1,25.4,39.1z M26.1,30.2c-0.4,0.6-1,0.9-1.6,1.1c-0.7,0.3-1.5,0.5-2.2,0.8c-0.2,0.1-0.4,0.2-0.6,0.3
	c-0.4,0.3-0.4,0.6-0.2,1c0,0.1,0.1,0.1,0.1,0.1c-0.5,0.3-1,0.6-1.5,0.9c-0.6-0.3-0.9-1-0.7-1.8c0.2-0.9,0.7-1.5,1.6-1.9
	c0.5-0.3,1.1-0.4,1.7-0.6c0.4-0.2,0.8-0.3,1.1-0.6c0.6-0.4,0.6-0.8,0.1-1.3c-0.2-0.2-0.5-0.3-0.7-0.5c0,0,0,0-0.1,0
	c0,0.5,0,0.9,0,1.4c0,0.2,0,0.2-0.2,0.3c-0.3,0.1-0.6,0.2-0.9,0.3c0-0.3,0-0.6,0-0.9c0-0.1,0-0.2,0-0.3c0-0.5,0-0.5,0.5-0.7
	c0.7-0.3,1.5-0.5,2.3-0.8c0.1,0,0.3-0.1,0.4-0.2c0.2-0.1,0.3-0.1,0.5,0.1C26.6,28,26.8,29.2,26.1,30.2z M26.1,25.9
	c-0.9,0.6-1.9,1-2.9,1.3c-0.5,0.2-1,0.4-1.6,0.6c-0.2,0.1-0.4,0.2-0.5,0.4c-0.3,0.4-0.2,0.9,0.2,1.3c0.2,0.1,0.4,0.3,0.6,0.4
	c-0.7,0.2-1.4,0.5-2,1c-0.9-0.5-1.6-1.3-1.5-2.3c0.1-0.7,0.4-1.2,0.9-1.6c0.7-0.7,1.5-1.1,2.4-1.4c0.4-0.2,0.9-0.3,1.3-0.4
	c0.5-0.2,1-0.5,1.4-0.9c0.4-0.5,0.4-1.1,0-1.5c-0.1-0.1-0.2-0.1-0.3-0.2c0.5-0.1,1-0.1,1.4-0.2c0.5-0.1,0.9-0.3,1.4-0.4
	c0.3,0.4,0.4,0.8,0.5,1.4C27.6,24.4,27,25.2,26.1,25.9z M22,22.9c0-0.2,0.1-0.2,0.2-0.2c0.3,0,0.6-0.1,1-0.1c0,0.7,0,1.3,0,1.9
	c0,0,0,0.1-0.1,0.1c-0.3,0.1-0.7,0.3-1.1,0.4c0-0.2,0-0.3,0-0.4C22,24,22,23.5,22,22.9z M29.3,19.6c-0.7,0.8-1.5,1.3-2.4,1.7
	c-1.1,0.5-2.2,0.7-3.4,0.8c-0.7,0.1-1.4,0.2-2.1,0.3c-0.1,0-0.3,0.1-0.4,0.2c-0.4,0.2-0.6,0.5-0.5,0.9c0.1,0.7,0.5,1.1,1,1.4
	c0.1,0,0.2,0.1,0.3,0.1c-0.4,0.2-0.8,0.3-1.1,0.5c-0.4,0.2-0.7,0.4-1,0.6c-0.1,0.1-0.2,0.1-0.3,0c-0.4-0.3-0.7-0.5-1.1-0.9
	c-0.6-0.6-0.6-1.4-0.4-2.2c0.3-1.1,1-1.8,1.9-2.3c0.9-0.6,1.9-0.8,3-0.8c1.4,0,2.7-0.2,4-0.7c0.3-0.1,0.7-0.3,1-0.5
	c0.2-0.1,0.3-0.6,0.2-0.8c0-0.1-0.1-0.1-0.2-0.2c-0.4,0-0.7,0-1,0.3c-0.6,0.6-1.4,0.6-2.2,0.4c-0.4-0.1-0.5-0.3-0.5-0.7
	c0-0.9,0.8-1.7,1.7-1.8c0.9-0.1,1.8,0,2.7,0.3C30,16.6,30.3,18.4,29.3,19.6z M36.2,11.3c-0.5,0.3-1.1,0.3-1.7,0.2c0,0,0,0.1,0,0.1
	c0,0.7-0.5,1.1-1.2,1.2c-0.3,0-0.5,0-0.8,0c-0.1,0-0.2,0.1-0.2,0.1c-0.4,1.4-2,1.8-3.2,1c-0.1-0.1-0.1-0.1-0.2-0.2
	c0,0-0.1,0.1-0.1,0.1c-0.5,0.9-1.2,1.3-2.2,1.3c-1,0.1-1.9-0.1-2.8-0.3c-0.2,0-0.2-0.1-0.2-0.3c0-1.2,0-2.4,0-3.7c0-0.2,0-0.4,0-0.6
	c0,0,0.1,0,0.1,0c0.6,0,0.9-0.2,1.1-0.8c0.2-0.5,0.5-0.7,1-0.8c0.5,0,1,0.1,1.5,0.3c1.2,0.5,2.4,0.7,3.6,0.8c2,0.1,4,0.1,6,0.2
	c0.1,0,0.1,0,0.2,0C37,10.6,36.7,11,36.2,11.3z"/>
</svg>
