<?xml version="1.0" encoding="utf-8"?>
<!-- Generator: Adobe Illustrator 19.0.0, SVG Export Plug-In . SVG Version: 6.00 Build 0)  -->
<svg version="1.1" id="Layer_1" xmlns="http://www.w3.org/2000/svg" xmlns:xlink="http://www.w3.org/1999/xlink" x="0px" y="0px"
	 viewBox="0 0 150 93.079" enable-background="new 0 0 150 93.079" xml:space="preserve">
<g id="XMLID_65_">
	<path id="XMLID_72_" fill="#00467E" d="M29.782,52.346l4.723,0.295L35.16,52.1c0.052-0.411,1.414-10.063,12.501-10.967
		C58.8,40.213,62.44,53.134,62.476,53.264l0.593,0.457l31.529,0.359l0.525-0.278l8.327-12.548l23.281,0.118l0.624-0.599
		c0.094-2.722,0.246-6.67,0.357-8.895l0.381,0.002c0,0,2.237-1.279,3.676-1.119c1.439,0.159,1.758,6.393,3.036,14.226
		c1.279,7.832,0.64,7.513-1.598,8.791c0.48,1.758-0.16,4.156-1.439,3.836c-1.278-0.319-4.476,0.16-4.476,0.16
		c2.078,9.911-3.077,16.065-3.077,16.065c-3.355,4.076-12.227,8.032-21.818,2.038c-8.632-7.193-6.473-17.024-6.473-17.024
		l-1.439-1.318l-28.532-1.199l-3.117,4.196c0,0,0.36,3.717-0.12,6.834C60.438,79.234,46.651,83.79,37.54,76.597
		c-9.111-7.193-3.836-19.421-3.836-19.421s-0.599-1.918-1.319-3.237C31.912,53.072,31.016,52.623,29.782,52.346z"/>
	<path id="XMLID_68_" fill="#00467E" d="M90.368,31.721c0,0,1.12-3.516-0.959-4.635c-2.078-1.119-2.557-0.16-2.557-0.16
		s-2.877-15.664-3.996-15.664c-1.119,0-1.758,1.438-0.959,4.315c0.799,2.878,2.717,12.948,2.717,12.948s-0.957,2.078-0.798,3.836
		c-0.64,1.918-0.64,1.918-0.64,1.918s-2.477-1.439-3.556-0.959c-0.719-1.318-0.6-2.637-0.6-2.637s1.319-2.757,0-3.237
		c-1.319-0.479-1.798,3.237-2.757,5.635c-0.96,2.398-2.038,5.754-2.038,5.754l-1.08,1.918l-1.918,0.479c0,0-1.559-2.877-2.637-3.836
		c0.6-7.192,2.158-19.181,2.038-20.619c-0.12-1.439-2.158-5.035-2.637-2.757c-0.48,2.278-0.719,8.151-1.558,8.151
		c-0.84,0-9.591-1.558-11.39-0.239C53.245,23.25,44.613,33.68,44.613,33.68s-16.064-1.079-16.424,0
		c-0.202,0.607-0.367,2.769-0.473,4.546l-0.215,12.733l6.533,0.408c0.499-2.287,3.034-10.617,13.525-11.474
		c5.017-0.415,9.417,1.728,12.689,6.186c1.948,2.655,2.946,5.355,3.287,6.405l30.737,0.351l8.325-12.546l0.521-0.277l23.013,0.116
		c0.135-3.81,0.248-6.562,0.337-8.253L90.368,31.721z M66.432,30.083c-2.038,0.24-1.439,4.795-1.439,4.795
		c-1.798-1.199-16.305-0.839-16.305-0.839s7.073-8.991,8.033-9.831c0.959-0.839,10.07,1.319,10.07,1.319
		S67.031,26.606,66.432,30.083z M84.894,38.715c0,0-0.84,1.918-1.199,2.877c-0.839,2.038-1.318,1.918-5.394,2.038
		c0.479-3.596-2.518-2.997-2.518-2.997l1.08-2.278l2.278-1.918c0,0,2.038,0.959,3.237,0.48
		C82.496,38.834,84.894,38.715,84.894,38.715z"/>
	<path id="XMLID_66_" fill="#00467E" d="M23.036,42.191c0.239-0.84,0.839-0.959,0.839-0.959s-0.121-3.237,1.439-3.477
		c0.646-0.099,0.98,0.401,1.154,1.018L26.25,51.532l0.417,0.453c-1.308,0.048-0.971,0.655-1.475,0.757
		c-0.6,0.12-1.319-0.12-1.918-0.24C22.675,52.381,22.795,43.03,23.036,42.191z"/>
</g>
</svg>
