<?xml version="1.0" encoding="utf-8"?>
<!-- Generator: Adobe Illustrator 21.0.0, SVG Export Plug-In . SVG Version: 6.00 Build 0)  -->
<svg version="1.1" id="Layer_1" xmlns="http://www.w3.org/2000/svg" xmlns:xlink="http://www.w3.org/1999/xlink" x="0px" y="0px"
	 viewBox="0 0 45 45" style="enable-background:new 0 0 45 45;" xml:space="preserve">
<style type="text/css">
	.st0{fill:#00467E;}
</style>
<path class="st0" d="M35.7,40.2l-0.3,0.2l1,2.5c0.3,0.8-0.1,1.4-1,1.4l-9.9-0.6c-0.9,0-1.1-0.6-0.5-1.2l6.9-7.1
	c0.6-0.6,1.3-0.5,1.7,0.3l0.2,0.4c0.2,0.5,0.5,1.2,0.7,1.8l0.3-0.2c4.6-3.7,7.3-9.4,7.3-15.3C42,11.9,33.5,3.2,23,3l-0.4,0V0.5
	l0.4,0c11.9,0.2,21.5,10,21.5,22C44.5,29.5,41.2,36.1,35.7,40.2z M15.7,16.8c0,1.7,0.5,3,1.5,3.9c1,0.9,2.6,1.6,4.7,2v8
	c-1.6-0.1-2.8-0.8-3.4-1.9c-0.3-0.6-0.6-1.6-0.6-2.9h-2.6c0,1.7,0.3,3,0.8,4c1,1.8,2.9,2.8,5.8,3v2.9h1.4V33
	c1.8-0.2,3.1-0.6,4.1-1.2c1.7-1.1,2.5-3,2.5-5.6c0-1.8-0.7-3.2-2-4.1c-0.8-0.6-2.3-1.2-4.6-1.8v-7.2c1.3,0,2.3,0.6,2.9,1.6
	c0.3,0.5,0.5,1.2,0.6,1.9h2.6c0-1.7-0.6-3-1.6-4c-1-1-2.5-1.6-4.5-1.7V9h-1.4v2c-2,0-3.5,0.6-4.6,1.8C16.3,14,15.7,15.4,15.7,16.8z
	 M18.4,16.7c0-0.8,0.3-1.6,0.8-2.3c0.5-0.7,1.5-1.1,2.8-1.2v6.9c-1.1-0.2-2-0.6-2.6-1.1C18.7,18.4,18.4,17.6,18.4,16.7z M23.3,30.9
	v-7.7c1.2,0.3,2.1,0.7,2.6,1.1c0.9,0.6,1.3,1.6,1.3,2.8c0,0.8-0.2,1.5-0.5,2C26.1,30.2,25,30.8,23.3,30.9z M22,42
	C11.5,41.8,3,33.1,3,22.5c0-5.9,2.7-11.6,7.3-15.3L10.6,7c0.2,0.6,0.5,1.3,0.7,1.8l0.2,0.4c0.3,0.8,1.1,1,1.7,0.3L20,2.4
	c0.6-0.6,0.4-1.2-0.5-1.2L9.7,0.7c-0.9,0-1.3,0.6-1,1.4l1,2.5L9.3,4.8C3.8,8.9,0.5,15.5,0.5,22.5c0,12,9.6,21.8,21.5,22l0.4,0V42
	L22,42z"/>
</svg>
